<?xml version="1.0" encoding="UTF-8" standalone="no"?>
<!DOCTYPE svg PUBLIC "-//W3C//DTD SVG 1.1//EN"
 "http://www.w3.org/Graphics/SVG/1.1/DTD/svg11.dtd">
<!-- Generated by graphviz version 12.1.0 (20240811.2233)
 -->
<!-- Title: classes Pages: 1 -->
<svg width="588pt" height="276pt"
 viewBox="0.00 0.00 587.62 275.50" xmlns="http://www.w3.org/2000/svg" xmlns:xlink="http://www.w3.org/1999/xlink">
<g id="graph0" class="graph" transform="scale(1 1) rotate(0) translate(4 271.5)">
<title>classes</title>
<polygon fill="white" stroke="none" points="-4,4 -4,-271.5 583.62,-271.5 583.62,4 -4,4"/>
<!-- whistle.event.Event -->
<g id="node1" class="node">
<title>whistle.event.Event</title>
<polygon fill="none" stroke="black" points="215.12,-160.5 215.12,-267 379.62,-267 379.62,-160.5 215.12,-160.5"/>
<text text-anchor="start" x="281.62" y="-249.7" font-family="Times,serif" font-size="14.00">Event</text>
<polyline fill="none" stroke="black" points="215.12,-242.5 379.62,-242.5"/>
<text text-anchor="start" x="223.12" y="-225.2" font-family="Times,serif" font-size="14.00">dispatcher : NoneType</text>
<text text-anchor="start" x="223.12" y="-208.7" font-family="Times,serif" font-size="14.00">name : NoneType</text>
<text text-anchor="start" x="223.12" y="-192.2" font-family="Times,serif" font-size="14.00">propagation_stopped : bool</text>
<polyline fill="none" stroke="black" points="215.12,-185 379.62,-185"/>
<text text-anchor="start" x="246" y="-167.7" font-family="Times,serif" font-size="14.00">stop_propagation()</text>
</g>
<!-- harp.config.events.OnBindEvent -->
<g id="node2" class="node">
<title>harp.config.events.OnBindEvent</title>
<polygon fill="none" stroke="black" points="0,-8.75 0,-115.25 148.75,-115.25 148.75,-8.75 0,-8.75"/>
<text text-anchor="start" x="37.25" y="-97.95" font-family="Times,serif" font-size="14.00">OnBindEvent</text>
<polyline fill="none" stroke="black" points="0,-90.75 148.75,-90.75"/>
<text text-anchor="start" x="8" y="-73.45" font-family="Times,serif" font-size="14.00">container : Container</text>
<text text-anchor="start" x="8" y="-56.95" font-family="Times,serif" font-size="14.00">name : str</text>
<text text-anchor="start" x="8" y="-40.45" font-family="Times,serif" font-size="14.00">settings : GlobalSettings</text>
<polyline fill="none" stroke="black" points="0,-33.25 148.75,-33.25"/>
<text text-anchor="start" x="72.5" y="-15.95" font-family="Times,serif" font-size="14.00"> </text>
</g>
<!-- harp.config.events.OnBindEvent&#45;&gt;whistle.event.Event -->
<g id="edge1" class="edge">
<title>harp.config.events.OnBindEvent&#45;&gt;whistle.event.Event</title>
<path fill="none" stroke="black" d="M146.12,-115.53C150.25,-118.42 154.35,-121.26 158.38,-124 173.51,-134.31 189.75,-145.01 205.61,-155.26"/>
<polygon fill="none" stroke="black" points="203.31,-157.94 213.62,-160.41 207.1,-152.06 203.31,-157.94"/>
</g>
<!-- harp.config.events.OnBoundEvent -->
<g id="node3" class="node">
<title>harp.config.events.OnBoundEvent</title>
<polygon fill="none" stroke="black" points="167,-8.75 167,-115.25 285.75,-115.25 285.75,-8.75 167,-8.75"/>
<text text-anchor="start" x="184.38" y="-97.95" font-family="Times,serif" font-size="14.00">OnBoundEvent</text>
<polyline fill="none" stroke="black" points="167,-90.75 285.75,-90.75"/>
<text text-anchor="start" x="175" y="-73.45" font-family="Times,serif" font-size="14.00">name : str</text>
<text text-anchor="start" x="175" y="-56.95" font-family="Times,serif" font-size="14.00">provider : Services</text>
<text text-anchor="start" x="175" y="-40.45" font-family="Times,serif" font-size="14.00">resolver : str</text>
<polyline fill="none" stroke="black" points="167,-33.25 285.75,-33.25"/>
<text text-anchor="start" x="224.5" y="-15.95" font-family="Times,serif" font-size="14.00"> </text>
</g>
<!-- harp.config.events.OnBoundEvent&#45;&gt;whistle.event.Event -->
<g id="edge2" class="edge">
<title>harp.config.events.OnBoundEvent&#45;&gt;whistle.event.Event</title>
<path fill="none" stroke="black" d="M251.21,-115.38C256.47,-126.48 262.08,-138.32 267.52,-149.77"/>
<polygon fill="none" stroke="black" points="264.34,-151.25 271.79,-158.78 270.67,-148.25 264.34,-151.25"/>
</g>
<!-- harp.config.events.OnReadyEvent -->
<g id="node4" class="node">
<title>harp.config.events.OnReadyEvent</title>
<polygon fill="none" stroke="black" points="304.12,-0.5 304.12,-123.5 432.62,-123.5 432.62,-0.5 304.12,-0.5"/>
<text text-anchor="start" x="327.12" y="-106.2" font-family="Times,serif" font-size="14.00">OnReadyEvent</text>
<polyline fill="none" stroke="black" points="304.12,-99 432.62,-99"/>
<text text-anchor="start" x="312.12" y="-81.7" font-family="Times,serif" font-size="14.00">binds : list[Bind]</text>
<text text-anchor="start" x="312.12" y="-65.2" font-family="Times,serif" font-size="14.00">kernel : ASGIKernel</text>
<text text-anchor="start" x="312.12" y="-48.7" font-family="Times,serif" font-size="14.00">name : str</text>
<text text-anchor="start" x="312.12" y="-32.2" font-family="Times,serif" font-size="14.00">provider : Services</text>
<polyline fill="none" stroke="black" points="304.12,-25 432.62,-25"/>
<text text-anchor="start" x="366.5" y="-7.7" font-family="Times,serif" font-size="14.00"> </text>
</g>
<!-- harp.config.events.OnReadyEvent&#45;&gt;whistle.event.Event -->
<g id="edge3" class="edge">
<title>harp.config.events.OnReadyEvent&#45;&gt;whistle.event.Event</title>
<path fill="none" stroke="black" d="M339.5,-123.91C335.46,-132.43 331.3,-141.2 327.24,-149.76"/>
<polygon fill="none" stroke="black" points="324.13,-148.16 323.01,-158.69 330.45,-151.16 324.13,-148.16"/>
</g>
<!-- harp.config.events.OnShutdownEvent -->
<g id="node5" class="node">
<title>harp.config.events.OnShutdownEvent</title>
<polygon fill="none" stroke="black" points="451.12,-8.75 451.12,-115.25 579.62,-115.25 579.62,-8.75 451.12,-8.75"/>
<text text-anchor="start" x="464" y="-97.95" font-family="Times,serif" font-size="14.00">OnShutdownEvent</text>
<polyline fill="none" stroke="black" points="451.12,-90.75 579.62,-90.75"/>
<text text-anchor="start" x="459.12" y="-73.45" font-family="Times,serif" font-size="14.00">kernel : ASGIKernel</text>
<text text-anchor="start" x="459.12" y="-56.95" font-family="Times,serif" font-size="14.00">name : str</text>
<text text-anchor="start" x="459.12" y="-40.45" font-family="Times,serif" font-size="14.00">provider : Services</text>
<polyline fill="none" stroke="black" points="451.12,-33.25 579.62,-33.25"/>
<text text-anchor="start" x="513.5" y="-15.95" font-family="Times,serif" font-size="14.00"> </text>
</g>
<!-- harp.config.events.OnShutdownEvent&#45;&gt;whistle.event.Event -->
<g id="edge4" class="edge">
<title>harp.config.events.OnShutdownEvent&#45;&gt;whistle.event.Event</title>
<path fill="none" stroke="black" d="M452.86,-115.52C449.01,-118.44 445.17,-121.29 441.38,-124 424.95,-135.75 406.96,-147.59 389.43,-158.62"/>
<polygon fill="none" stroke="black" points="387.66,-155.6 381.03,-163.86 391.37,-161.54 387.66,-155.6"/>
</g>
</g>
</svg>
