<?xml version="1.0" encoding="UTF-8" standalone="no"?>
<!DOCTYPE svg PUBLIC "-//W3C//DTD SVG 1.1//EN"
 "http://www.w3.org/Graphics/SVG/1.1/DTD/svg11.dtd">
<!-- Generated by graphviz version 12.1.0 (20240811.2233)
 -->
<!-- Title: classes Pages: 1 -->
<svg width="475pt" height="403pt"
 viewBox="0.00 0.00 475.00 402.50" xmlns="http://www.w3.org/2000/svg" xmlns:xlink="http://www.w3.org/1999/xlink">
<g id="graph0" class="graph" transform="scale(1 1) rotate(0) translate(4 398.5)">
<title>classes</title>
<polygon fill="white" stroke="none" points="-4,4 -4,-398.5 471,-398.5 471,4 -4,4"/>
<!-- harp.asgi.events.ControllerEvent -->
<g id="node1" class="node">
<title>harp.asgi.events.ControllerEvent</title>
<polygon fill="none" stroke="black" points="0,-17 0,-90.5 103,-90.5 103,-17 0,-17"/>
<text text-anchor="start" x="8" y="-73.2" font-family="Times,serif" font-size="14.00">ControllerEvent</text>
<polyline fill="none" stroke="black" points="0,-66 103,-66"/>
<text text-anchor="start" x="24.12" y="-48.7" font-family="Times,serif" font-size="14.00">name : str</text>
<polyline fill="none" stroke="black" points="0,-41.5 103,-41.5"/>
<text text-anchor="start" x="49.62" y="-24.2" font-family="Times,serif" font-size="14.00"> </text>
</g>
<!-- harp.asgi.events.RequestEvent -->
<g id="node3" class="node">
<title>harp.asgi.events.RequestEvent</title>
<polygon fill="none" stroke="black" points="40.25,-144 40.25,-250.5 300.75,-250.5 300.75,-144 40.25,-144"/>
<text text-anchor="start" x="133" y="-233.2" font-family="Times,serif" font-size="14.00">RequestEvent</text>
<polyline fill="none" stroke="black" points="40.25,-226 300.75,-226"/>
<text text-anchor="start" x="143.12" y="-208.7" font-family="Times,serif" font-size="14.00">controller</text>
<text text-anchor="start" x="143.12" y="-192.2" font-family="Times,serif" font-size="14.00">name : str</text>
<text text-anchor="start" x="143.12" y="-175.7" font-family="Times,serif" font-size="14.00">request</text>
<polyline fill="none" stroke="black" points="40.25,-168.5 300.75,-168.5"/>
<text text-anchor="start" x="48.25" y="-151.2" font-family="Times,serif" font-size="14.00">set_controller(controller: Optional[Callable])</text>
</g>
<!-- harp.asgi.events.ControllerEvent&#45;&gt;harp.asgi.events.RequestEvent -->
<g id="edge1" class="edge">
<title>harp.asgi.events.ControllerEvent&#45;&gt;harp.asgi.events.RequestEvent</title>
<path fill="none" stroke="black" d="M81.84,-90.82C93.12,-104.24 106.26,-119.86 118.91,-134.91"/>
<polygon fill="none" stroke="black" points="116.2,-137.12 125.32,-142.52 121.56,-132.62 116.2,-137.12"/>
</g>
<!-- whistle.event.Event -->
<g id="node2" class="node">
<title>whistle.event.Event</title>
<polygon fill="none" stroke="black" points="88.25,-287.5 88.25,-394 252.75,-394 252.75,-287.5 88.25,-287.5"/>
<text text-anchor="start" x="154.75" y="-376.7" font-family="Times,serif" font-size="14.00">Event</text>
<polyline fill="none" stroke="black" points="88.25,-369.5 252.75,-369.5"/>
<text text-anchor="start" x="96.25" y="-352.2" font-family="Times,serif" font-size="14.00">dispatcher : NoneType</text>
<text text-anchor="start" x="96.25" y="-335.7" font-family="Times,serif" font-size="14.00">name : NoneType</text>
<text text-anchor="start" x="96.25" y="-319.2" font-family="Times,serif" font-size="14.00">propagation_stopped : bool</text>
<polyline fill="none" stroke="black" points="88.25,-312 252.75,-312"/>
<text text-anchor="start" x="119.12" y="-294.7" font-family="Times,serif" font-size="14.00">stop_propagation()</text>
</g>
<!-- harp.asgi.events.RequestEvent&#45;&gt;whistle.event.Event -->
<g id="edge2" class="edge">
<title>harp.asgi.events.RequestEvent&#45;&gt;whistle.event.Event</title>
<path fill="none" stroke="black" d="M170.5,-250.94C170.5,-258.95 170.5,-267.29 170.5,-275.52"/>
<polygon fill="none" stroke="black" points="167,-275.5 170.5,-285.5 174,-275.5 167,-275.5"/>
</g>
<!-- harp.asgi.events.ResponseEvent -->
<g id="node4" class="node">
<title>harp.asgi.events.ResponseEvent</title>
<polygon fill="none" stroke="black" points="120.88,-8.75 120.88,-98.75 220.12,-98.75 220.12,-8.75 120.88,-8.75"/>
<text text-anchor="start" x="128.88" y="-81.45" font-family="Times,serif" font-size="14.00">ResponseEvent</text>
<polyline fill="none" stroke="black" points="120.88,-74.25 220.12,-74.25"/>
<text text-anchor="start" x="134.5" y="-56.95" font-family="Times,serif" font-size="14.00">name : str</text>
<text text-anchor="start" x="134.5" y="-40.45" font-family="Times,serif" font-size="14.00">response : str</text>
<polyline fill="none" stroke="black" points="120.88,-33.25 220.12,-33.25"/>
<text text-anchor="start" x="168.62" y="-15.95" font-family="Times,serif" font-size="14.00"> </text>
</g>
<!-- harp.asgi.events.ResponseEvent&#45;&gt;harp.asgi.events.RequestEvent -->
<g id="edge3" class="edge">
<title>harp.asgi.events.ResponseEvent&#45;&gt;harp.asgi.events.RequestEvent</title>
<path fill="none" stroke="black" d="M170.5,-99.13C170.5,-109.6 170.5,-120.97 170.5,-132.11"/>
<polygon fill="none" stroke="black" points="167,-132.08 170.5,-142.08 174,-132.08 167,-132.08"/>
</g>
<!-- harp.asgi.events.ViewEvent -->
<g id="node5" class="node">
<title>harp.asgi.events.ViewEvent</title>
<polygon fill="none" stroke="black" points="238,-0.5 238,-107 467,-107 467,-0.5 238,-0.5"/>
<text text-anchor="start" x="322.12" y="-89.7" font-family="Times,serif" font-size="14.00">ViewEvent</text>
<polyline fill="none" stroke="black" points="238,-82.5 467,-82.5"/>
<text text-anchor="start" x="255" y="-65.2" font-family="Times,serif" font-size="14.00">name : str</text>
<text text-anchor="start" x="255" y="-48.7" font-family="Times,serif" font-size="14.00">response : Optional[&#39;HttpResponse&#39;]</text>
<text text-anchor="start" x="255" y="-32.2" font-family="Times,serif" font-size="14.00">value : Any</text>
<polyline fill="none" stroke="black" points="238,-25 467,-25"/>
<text text-anchor="start" x="246" y="-7.7" font-family="Times,serif" font-size="14.00">set_response(response: &#39;HttpResponse&#39;)</text>
</g>
<!-- harp.asgi.events.ViewEvent&#45;&gt;harp.asgi.events.RequestEvent -->
<g id="edge4" class="edge">
<title>harp.asgi.events.ViewEvent&#45;&gt;harp.asgi.events.RequestEvent</title>
<path fill="none" stroke="black" d="M284.73,-107.44C272.53,-116.92 259.74,-126.87 247.3,-136.54"/>
<polygon fill="none" stroke="black" points="245.27,-133.69 239.52,-142.59 249.56,-139.21 245.27,-133.69"/>
</g>
</g>
</svg>
