<svg width="765" height="221" viewBox="0 0 765 221" fill="none" xmlns="http://www.w3.org/2000/svg">
    <path d="M694.531 202.001H397C388.163 202.001 381 194.837 381 186.001V73.5859" stroke="#1F2024" stroke-width="1.5"
          stroke-linecap="round"/>
    <path d="M380.28 72.4525L377.153 77.4843C376.778 78.0871 377.134 78.8643 377.781 78.9842C377.894 79.0053 378.01 78.9799 378.119 78.9407L381 77.9021L383.881 78.9407C383.99 78.9799 384.106 79.0053 384.219 78.9842C384.857 78.8658 385.215 78.1075 384.86 77.5046L381.897 72.4728C381.531 71.8513 380.661 71.8404 380.28 72.4525Z"
          fill="#1F2024"/>
    <path d="M698.5 202C698.5 203.381 697.381 204.5 696 204.5C694.619 204.5 693.5 203.381 693.5 202C693.5 200.619 694.619 199.5 696 199.5C697.381 199.5 698.5 200.619 698.5 202Z"
          fill="white" stroke="#1F2024" stroke-width="3"/>
    <g filter="url(#filter0_b_51_424)">
        <rect x="494" y="150" width="95" height="39" rx="8" fill="#1F2024" fill-opacity="0.05"/>
        <rect x="494" y="150" width="95" height="39" rx="8" stroke="#1F2024" stroke-width="1.5" stroke-linecap="round"
              stroke-linejoin="round"/>
        <path d="M523.86 167.783C523.826 167.439 523.68 167.172 523.421 166.982C523.163 166.791 522.812 166.696 522.369 166.696C522.067 166.696 521.813 166.739 521.606 166.824C521.398 166.906 521.239 167.021 521.129 167.169C521.021 167.317 520.967 167.484 520.967 167.672C520.961 167.828 520.994 167.964 521.065 168.081C521.138 168.197 521.239 168.298 521.367 168.384C521.495 168.466 521.643 168.538 521.81 168.601C521.978 168.661 522.157 168.712 522.347 168.754L523.131 168.942C523.512 169.027 523.862 169.141 524.18 169.283C524.498 169.425 524.773 169.599 525.006 169.807C525.239 170.014 525.42 170.259 525.548 170.54C525.678 170.821 525.745 171.143 525.748 171.507C525.745 172.041 525.609 172.504 525.339 172.896C525.072 173.286 524.685 173.588 524.18 173.804C523.677 174.017 523.07 174.124 522.36 174.124C521.656 174.124 521.042 174.016 520.519 173.8C519.999 173.584 519.593 173.264 519.3 172.841C519.011 172.415 518.859 171.888 518.844 171.26H520.63C520.65 171.553 520.734 171.797 520.881 171.993C521.032 172.186 521.232 172.332 521.482 172.432C521.735 172.528 522.021 172.577 522.339 172.577C522.651 172.577 522.923 172.531 523.153 172.44C523.386 172.349 523.566 172.223 523.694 172.061C523.822 171.899 523.886 171.713 523.886 171.503C523.886 171.307 523.827 171.142 523.711 171.009C523.597 170.875 523.43 170.761 523.208 170.668C522.989 170.574 522.721 170.489 522.403 170.412L521.452 170.173C520.717 169.994 520.136 169.714 519.71 169.334C519.283 168.953 519.072 168.44 519.075 167.795C519.072 167.267 519.212 166.805 519.496 166.411C519.783 166.016 520.177 165.707 520.677 165.486C521.177 165.264 521.745 165.153 522.381 165.153C523.029 165.153 523.594 165.264 524.077 165.486C524.563 165.707 524.941 166.016 525.211 166.411C525.481 166.805 525.62 167.263 525.629 167.783H523.86ZM530.436 167.455V168.818H526.495V167.455H530.436ZM527.39 165.886H529.205V171.989C529.205 172.156 529.23 172.287 529.282 172.381C529.333 172.472 529.404 172.536 529.495 172.572C529.588 172.609 529.696 172.628 529.819 172.628C529.904 172.628 529.989 172.621 530.074 172.607C530.159 172.589 530.225 172.577 530.27 172.568L530.556 173.919C530.465 173.947 530.337 173.98 530.172 174.017C530.007 174.057 529.807 174.081 529.571 174.089C529.134 174.107 528.75 174.048 528.421 173.915C528.094 173.781 527.84 173.574 527.658 173.293C527.476 173.011 527.387 172.656 527.39 172.227V165.886ZM534.506 174.128C533.844 174.128 533.272 173.987 532.789 173.706C532.309 173.422 531.938 173.027 531.676 172.521C531.415 172.013 531.284 171.423 531.284 170.753C531.284 170.077 531.415 169.486 531.676 168.98C531.938 168.472 532.309 168.077 532.789 167.795C533.272 167.511 533.844 167.369 534.506 167.369C535.168 167.369 535.739 167.511 536.219 167.795C536.702 168.077 537.074 168.472 537.336 168.98C537.597 169.486 537.728 170.077 537.728 170.753C537.728 171.423 537.597 172.013 537.336 172.521C537.074 173.027 536.702 173.422 536.219 173.706C535.739 173.987 535.168 174.128 534.506 174.128ZM534.515 172.722C534.816 172.722 535.067 172.636 535.269 172.466C535.471 172.293 535.623 172.057 535.725 171.759C535.83 171.46 535.882 171.121 535.882 170.74C535.882 170.359 535.83 170.02 535.725 169.722C535.623 169.423 535.471 169.187 535.269 169.014C535.067 168.841 534.816 168.754 534.515 168.754C534.211 168.754 533.955 168.841 533.748 169.014C533.543 169.187 533.388 169.423 533.283 169.722C533.181 170.02 533.13 170.359 533.13 170.74C533.13 171.121 533.181 171.46 533.283 171.759C533.388 172.057 533.543 172.293 533.748 172.466C533.955 172.636 534.211 172.722 534.515 172.722ZM538.908 174V167.455H540.668V168.597H540.736C540.855 168.19 541.056 167.884 541.337 167.676C541.618 167.466 541.942 167.361 542.309 167.361C542.4 167.361 542.498 167.366 542.603 167.378C542.708 167.389 542.8 167.405 542.88 167.425V169.036C542.794 169.01 542.676 168.987 542.526 168.967C542.375 168.947 542.238 168.938 542.113 168.938C541.846 168.938 541.607 168.996 541.397 169.112C541.189 169.226 541.025 169.385 540.902 169.589C540.783 169.794 540.723 170.03 540.723 170.297V174H538.908ZM545.497 174.124C545.08 174.124 544.707 174.051 544.381 173.906C544.054 173.759 543.795 173.541 543.605 173.254C543.418 172.964 543.324 172.604 543.324 172.172C543.324 171.808 543.391 171.503 543.524 171.256C543.658 171.009 543.839 170.81 544.07 170.659C544.3 170.509 544.561 170.395 544.854 170.318C545.149 170.241 545.459 170.188 545.783 170.156C546.163 170.116 546.47 170.08 546.703 170.045C546.936 170.009 547.105 169.955 547.21 169.884C547.315 169.812 547.368 169.707 547.368 169.568V169.543C547.368 169.273 547.283 169.064 547.112 168.916C546.945 168.768 546.706 168.695 546.396 168.695C546.07 168.695 545.81 168.767 545.616 168.912C545.423 169.054 545.295 169.233 545.233 169.449L543.554 169.312C543.639 168.915 543.807 168.571 544.057 168.281C544.307 167.989 544.629 167.764 545.024 167.608C545.422 167.449 545.882 167.369 546.405 167.369C546.768 167.369 547.116 167.412 547.449 167.497C547.784 167.582 548.081 167.714 548.339 167.893C548.601 168.072 548.807 168.303 548.957 168.584C549.108 168.862 549.183 169.196 549.183 169.585V174H547.462V173.092H547.411C547.305 173.297 547.165 173.477 546.989 173.634C546.812 173.787 546.601 173.908 546.354 173.996C546.107 174.081 545.821 174.124 545.497 174.124ZM546.017 172.871C546.284 172.871 546.52 172.818 546.724 172.713C546.929 172.605 547.089 172.46 547.206 172.278C547.322 172.097 547.381 171.891 547.381 171.661V170.966C547.324 171.003 547.246 171.037 547.146 171.068C547.05 171.097 546.94 171.124 546.818 171.149C546.696 171.172 546.574 171.193 546.452 171.213C546.33 171.23 546.219 171.246 546.119 171.26C545.906 171.291 545.72 171.341 545.561 171.409C545.402 171.477 545.278 171.57 545.19 171.686C545.102 171.8 545.058 171.942 545.058 172.112C545.058 172.359 545.148 172.548 545.327 172.679C545.509 172.807 545.739 172.871 546.017 172.871ZM553.54 176.591C552.952 176.591 552.448 176.51 552.028 176.348C551.61 176.189 551.278 175.972 551.031 175.696C550.783 175.42 550.623 175.111 550.549 174.767L552.228 174.541C552.279 174.672 552.36 174.794 552.471 174.908C552.582 175.021 552.728 175.112 552.91 175.18C553.094 175.251 553.319 175.287 553.583 175.287C553.978 175.287 554.303 175.19 554.559 174.997C554.817 174.807 554.947 174.487 554.947 174.038V172.841H554.87C554.79 173.023 554.671 173.195 554.512 173.357C554.353 173.518 554.148 173.651 553.898 173.753C553.648 173.855 553.35 173.906 553.004 173.906C552.512 173.906 552.065 173.793 551.661 173.565C551.261 173.335 550.941 172.984 550.702 172.513C550.467 172.038 550.349 171.439 550.349 170.714C550.349 169.973 550.469 169.354 550.711 168.857C550.952 168.359 551.273 167.987 551.674 167.74C552.077 167.493 552.519 167.369 552.999 167.369C553.366 167.369 553.673 167.432 553.92 167.557C554.167 167.679 554.366 167.832 554.516 168.017C554.67 168.199 554.788 168.378 554.87 168.554H554.938V167.455H556.741V174.064C556.741 174.621 556.604 175.087 556.332 175.462C556.059 175.837 555.681 176.118 555.198 176.305C554.718 176.496 554.165 176.591 553.54 176.591ZM553.579 172.543C553.871 172.543 554.119 172.47 554.32 172.325C554.525 172.178 554.681 171.967 554.789 171.695C554.9 171.419 554.955 171.089 554.955 170.706C554.955 170.322 554.901 169.99 554.793 169.709C554.685 169.425 554.529 169.205 554.325 169.048C554.12 168.892 553.871 168.814 553.579 168.814C553.281 168.814 553.029 168.895 552.825 169.057C552.62 169.216 552.465 169.437 552.36 169.722C552.255 170.006 552.202 170.334 552.202 170.706C552.202 171.084 552.255 171.411 552.36 171.686C552.468 171.959 552.623 172.17 552.825 172.321C553.029 172.469 553.281 172.543 553.579 172.543ZM561.168 174.128C560.495 174.128 559.915 173.991 559.43 173.719C558.947 173.443 558.575 173.054 558.313 172.551C558.052 172.045 557.921 171.447 557.921 170.757C557.921 170.084 558.052 169.493 558.313 168.984C558.575 168.476 558.942 168.08 559.417 167.795C559.894 167.511 560.454 167.369 561.096 167.369C561.528 167.369 561.93 167.439 562.302 167.578C562.677 167.714 563.004 167.92 563.282 168.196C563.563 168.472 563.782 168.818 563.938 169.236C564.094 169.651 564.173 170.136 564.173 170.693V171.192H558.646V170.067H562.464C562.464 169.805 562.407 169.574 562.293 169.372C562.18 169.17 562.022 169.013 561.82 168.899C561.621 168.783 561.39 168.724 561.126 168.724C560.85 168.724 560.606 168.788 560.393 168.916C560.183 169.041 560.018 169.21 559.898 169.423C559.779 169.634 559.718 169.868 559.715 170.126V171.196C559.715 171.52 559.775 171.8 559.894 172.036C560.016 172.271 560.188 172.453 560.41 172.581C560.631 172.709 560.894 172.773 561.198 172.773C561.4 172.773 561.585 172.744 561.752 172.688C561.92 172.631 562.063 172.545 562.183 172.432C562.302 172.318 562.393 172.179 562.455 172.014L564.134 172.125C564.049 172.528 563.874 172.881 563.61 173.182C563.349 173.48 563.011 173.713 562.596 173.881C562.184 174.045 561.708 174.128 561.168 174.128Z"
              fill="#1F2024"/>
    </g>
    <g filter="url(#filter1_b_51_424)">
        <rect x="125" y="21" width="82" height="39" rx="8" fill="#1F2024" fill-opacity="0.05"/>
        <rect x="125" y="21" width="82" height="39" rx="8" stroke="#1F2024" stroke-width="1.5" stroke-linecap="round"
              stroke-linejoin="round"/>
        <path d="M150.048 45V36.2727H153.491C154.153 36.2727 154.717 36.3991 155.183 36.652C155.648 36.902 156.004 37.25 156.248 37.696C156.495 38.1392 156.619 38.6506 156.619 39.2301C156.619 39.8097 156.494 40.321 156.244 40.7642C155.994 41.2074 155.631 41.5526 155.157 41.7997C154.685 42.0469 154.114 42.1705 153.444 42.1705H151.249V40.6918H153.146C153.501 40.6918 153.793 40.6307 154.023 40.5085C154.256 40.3835 154.43 40.2116 154.543 39.9929C154.66 39.7713 154.718 39.517 154.718 39.2301C154.718 38.9403 154.66 38.6875 154.543 38.4716C154.43 38.2528 154.256 38.0838 154.023 37.9645C153.79 37.8423 153.495 37.7812 153.137 37.7812H151.893V45H150.048ZM157.783 45V38.4545H159.543V39.5966H159.611C159.73 39.1903 159.931 38.8835 160.212 38.6761C160.493 38.4659 160.817 38.3608 161.184 38.3608C161.275 38.3608 161.373 38.3665 161.478 38.3778C161.583 38.3892 161.675 38.4048 161.755 38.4247V40.0355C161.669 40.0099 161.551 39.9872 161.401 39.9673C161.25 39.9474 161.113 39.9375 160.988 39.9375C160.721 39.9375 160.482 39.9957 160.272 40.1122C160.064 40.2259 159.9 40.3849 159.777 40.5895C159.658 40.794 159.598 41.0298 159.598 41.2969V45H157.783ZM165.346 45.1278C164.684 45.1278 164.112 44.9872 163.629 44.706C163.148 44.4219 162.778 44.027 162.516 43.5213C162.255 43.0128 162.124 42.4233 162.124 41.7528C162.124 41.0767 162.255 40.4858 162.516 39.9801C162.778 39.4716 163.148 39.0767 163.629 38.7955C164.112 38.5114 164.684 38.3693 165.346 38.3693C166.008 38.3693 166.579 38.5114 167.059 38.7955C167.542 39.0767 167.914 39.4716 168.175 39.9801C168.437 40.4858 168.567 41.0767 168.567 41.7528C168.567 42.4233 168.437 43.0128 168.175 43.5213C167.914 44.027 167.542 44.4219 167.059 44.706C166.579 44.9872 166.008 45.1278 165.346 45.1278ZM165.354 43.7216C165.656 43.7216 165.907 43.6364 166.109 43.4659C166.31 43.2926 166.462 43.0568 166.565 42.7585C166.67 42.4602 166.722 42.1207 166.722 41.7401C166.722 41.3594 166.67 41.0199 166.565 40.7216C166.462 40.4233 166.31 40.1875 166.109 40.0142C165.907 39.8409 165.656 39.7543 165.354 39.7543C165.05 39.7543 164.795 39.8409 164.587 40.0142C164.383 40.1875 164.228 40.4233 164.123 40.7216C164.021 41.0199 163.969 41.3594 163.969 41.7401C163.969 42.1207 164.021 42.4602 164.123 42.7585C164.228 43.0568 164.383 43.2926 164.587 43.4659C164.795 43.6364 165.05 43.7216 165.354 43.7216ZM171.031 38.4545L172.232 40.7429L173.464 38.4545H175.326L173.43 41.7273L175.377 45H173.523L172.232 42.7372L170.962 45H169.087L171.031 41.7273L169.156 38.4545H171.031ZM177.525 47.4545C177.295 47.4545 177.079 47.4361 176.877 47.3991C176.678 47.3651 176.513 47.321 176.383 47.267L176.792 45.9119C177.005 45.9773 177.197 46.0128 177.367 46.0185C177.54 46.0241 177.69 45.9844 177.815 45.8991C177.942 45.8139 178.046 45.669 178.126 45.4645L178.232 45.1875L175.884 38.4545H177.793L179.148 43.2614H179.217L180.585 38.4545H182.506L179.962 45.7074C179.84 46.0597 179.674 46.3665 179.464 46.6278C179.256 46.892 178.994 47.0952 178.675 47.2372C178.357 47.3821 177.974 47.4545 177.525 47.4545Z"
              fill="#1F2024"/>
    </g>
    <g filter="url(#filter2_b_51_424)">
        <rect x="295" y="21" width="119" height="39" rx="8" fill="#1F2024" fill-opacity="0.05"/>
        <rect x="295" y="21" width="119" height="39" rx="8" stroke="#1F2024" stroke-width="1.5" stroke-linecap="round"
              stroke-linejoin="round"/>
        <path d="M320.061 45V36.2727H321.906V39.8736H325.652V36.2727H327.493V45H325.652V41.3949H321.906V45H320.061ZM328.682 37.794V36.2727H335.85V37.794H333.178V45H331.354V37.794H328.682ZM336.698 37.794V36.2727H343.865V37.794H341.193V45H339.369V37.794H336.698ZM345.046 45V36.2727H348.489C349.151 36.2727 349.715 36.3991 350.181 36.652C350.646 36.902 351.002 37.25 351.246 37.696C351.493 38.1392 351.617 38.6506 351.617 39.2301C351.617 39.8097 351.492 40.321 351.242 40.7642C350.992 41.2074 350.629 41.5526 350.155 41.7997C349.683 42.0469 349.112 42.1705 348.442 42.1705H346.247V40.6918H348.144C348.499 40.6918 348.791 40.6307 349.021 40.5085C349.254 40.3835 349.428 40.2116 349.541 39.9929C349.658 39.7713 349.716 39.517 349.716 39.2301C349.716 38.9403 349.658 38.6875 349.541 38.4716C349.428 38.2528 349.254 38.0838 349.021 37.9645C348.789 37.8423 348.493 37.7812 348.135 37.7812H346.891V45H345.046ZM363.293 39.3281H361.426C361.392 39.0866 361.323 38.8722 361.218 38.6847C361.112 38.4943 360.977 38.3324 360.813 38.1989C360.648 38.0653 360.458 37.9631 360.242 37.892C360.029 37.821 359.797 37.7855 359.547 37.7855C359.095 37.7855 358.702 37.8977 358.367 38.1222C358.031 38.3437 357.771 38.6676 357.587 39.0938C357.402 39.517 357.31 40.0312 357.31 40.6364C357.31 41.2585 357.402 41.7812 357.587 42.2045C357.774 42.6278 358.036 42.9474 358.371 43.1634C358.706 43.3793 359.094 43.4872 359.534 43.4872C359.781 43.4872 360.01 43.4545 360.22 43.3892C360.433 43.3239 360.622 43.2287 360.787 43.1037C360.952 42.9759 361.088 42.821 361.196 42.6392C361.307 42.4574 361.384 42.25 361.426 42.017L363.293 42.0256C363.244 42.4261 363.124 42.8125 362.931 43.1847C362.74 43.554 362.483 43.8849 362.159 44.1776C361.838 44.4673 361.455 44.6974 361.009 44.8679C360.566 45.0355 360.064 45.1193 359.504 45.1193C358.726 45.1193 358.03 44.9432 357.416 44.5909C356.806 44.2386 356.323 43.7287 355.968 43.0611C355.615 42.3935 355.439 41.5852 355.439 40.6364C355.439 39.6847 355.618 38.875 355.976 38.2074C356.334 37.5398 356.82 37.0312 357.433 36.6818C358.047 36.3295 358.737 36.1534 359.504 36.1534C360.01 36.1534 360.479 36.2244 360.911 36.3665C361.345 36.5085 361.73 36.7159 362.066 36.9886C362.401 37.2585 362.673 37.5895 362.884 37.9815C363.097 38.3736 363.233 38.8224 363.293 39.3281ZM366.397 36.2727V45H364.582V36.2727H366.397ZM367.851 45V38.4545H369.667V45H367.851ZM368.763 37.6108C368.493 37.6108 368.262 37.5213 368.069 37.3423C367.878 37.1605 367.783 36.9432 367.783 36.6903C367.783 36.4403 367.878 36.2259 368.069 36.0469C368.262 35.8651 368.493 35.7741 368.763 35.7741C369.033 35.7741 369.263 35.8651 369.454 36.0469C369.647 36.2259 369.743 36.4403 369.743 36.6903C369.743 36.9432 369.647 37.1605 369.454 37.3423C369.263 37.5213 369.033 37.6108 368.763 37.6108ZM374.104 45.1278C373.431 45.1278 372.851 44.9915 372.365 44.7188C371.882 44.4432 371.51 44.054 371.249 43.5511C370.987 43.0455 370.857 42.4474 370.857 41.7571C370.857 41.0838 370.987 40.4929 371.249 39.9844C371.51 39.4759 371.878 39.0795 372.352 38.7955C372.83 38.5114 373.389 38.3693 374.031 38.3693C374.463 38.3693 374.865 38.4389 375.237 38.5781C375.612 38.7145 375.939 38.9205 376.218 39.196C376.499 39.4716 376.718 39.8182 376.874 40.2358C377.03 40.6506 377.108 41.1364 377.108 41.6932V42.1918H371.581V41.0668H375.399C375.399 40.8054 375.343 40.5739 375.229 40.3722C375.115 40.1705 374.958 40.0128 374.756 39.8991C374.557 39.7827 374.325 39.7244 374.061 39.7244C373.786 39.7244 373.541 39.7884 373.328 39.9162C373.118 40.0412 372.953 40.2102 372.834 40.4233C372.715 40.6335 372.654 40.8679 372.651 41.1264V42.196C372.651 42.5199 372.71 42.7997 372.83 43.0355C372.952 43.2713 373.124 43.4531 373.345 43.581C373.567 43.7088 373.83 43.7727 374.134 43.7727C374.335 43.7727 374.52 43.7443 374.688 43.6875C374.855 43.6307 374.999 43.5455 375.118 43.4318C375.237 43.3182 375.328 43.179 375.391 43.0142L377.07 43.125C376.985 43.5284 376.81 43.8807 376.546 44.1818C376.284 44.4801 375.946 44.7131 375.531 44.8807C375.119 45.0455 374.644 45.1278 374.104 45.1278ZM380.108 41.2159V45H378.293V38.4545H380.023V39.6094H380.1C380.244 39.2287 380.487 38.9276 380.828 38.706C381.169 38.4815 381.583 38.3693 382.068 38.3693C382.523 38.3693 382.919 38.4688 383.257 38.6676C383.595 38.8665 383.858 39.1506 384.046 39.5199C384.233 39.8864 384.327 40.3239 384.327 40.8324V45H382.512V41.1562C382.514 40.7557 382.412 40.4432 382.205 40.2188C381.997 39.9915 381.712 39.8778 381.348 39.8778C381.104 39.8778 380.888 39.9304 380.7 40.0355C380.516 40.1406 380.371 40.294 380.266 40.4957C380.164 40.6946 380.111 40.9347 380.108 41.2159ZM389.239 38.4545V39.8182H385.297V38.4545H389.239ZM386.192 36.8864H388.008V42.9886C388.008 43.1562 388.033 43.2869 388.084 43.3807C388.135 43.4716 388.206 43.5355 388.297 43.5724C388.391 43.6094 388.499 43.6278 388.621 43.6278C388.706 43.6278 388.792 43.6207 388.877 43.6065C388.962 43.5895 389.028 43.5767 389.073 43.5682L389.358 44.919C389.268 44.9474 389.14 44.9801 388.975 45.017C388.81 45.0568 388.61 45.081 388.374 45.0895C387.937 45.1065 387.553 45.0483 387.224 44.9148C386.897 44.7812 386.643 44.5739 386.461 44.2926C386.279 44.0114 386.189 43.6562 386.192 43.2273V36.8864Z"
              fill="#1F2024"/>
    </g>
    <g filter="url(#filter3_b_51_424)">
        <rect x="670" y="21" width="94" height="39" rx="8" fill="#1F2024" fill-opacity="0.05"/>
        <rect x="670" y="21" width="94" height="39" rx="8" stroke="#1F2024" stroke-width="1.5" stroke-linecap="round"
              stroke-linejoin="round"/>
        <path d="M695.253 45V36.2727H698.696C699.355 36.2727 699.917 36.3906 700.383 36.6264C700.852 36.8594 701.209 37.1903 701.453 37.6193C701.7 38.0455 701.824 38.5469 701.824 39.1236C701.824 39.7031 701.699 40.2017 701.449 40.6193C701.199 41.0341 700.836 41.3523 700.362 41.5739C699.89 41.7955 699.319 41.9062 698.649 41.9062H696.344V40.4233H698.351C698.703 40.4233 698.996 40.375 699.229 40.2784C699.461 40.1818 699.635 40.0369 699.748 39.8438C699.865 39.6506 699.923 39.4105 699.923 39.1236C699.923 38.8338 699.865 38.5895 699.748 38.3906C699.635 38.1918 699.46 38.0412 699.224 37.9389C698.991 37.8338 698.697 37.7812 698.342 37.7812H697.098V45H695.253ZM699.966 41.0284L702.135 45H700.098L697.976 41.0284H699.966ZM705.971 45.1278C705.298 45.1278 704.718 44.9915 704.232 44.7188C703.749 44.4432 703.377 44.054 703.116 43.5511C702.855 43.0455 702.724 42.4474 702.724 41.7571C702.724 41.0838 702.855 40.4929 703.116 39.9844C703.377 39.4759 703.745 39.0795 704.22 38.7955C704.697 38.5114 705.257 38.3693 705.899 38.3693C706.33 38.3693 706.732 38.4389 707.105 38.5781C707.48 38.7145 707.806 38.9205 708.085 39.196C708.366 39.4716 708.585 39.8182 708.741 40.2358C708.897 40.6506 708.975 41.1364 708.975 41.6932V42.1918H703.448V41.0668H707.267C707.267 40.8054 707.21 40.5739 707.096 40.3722C706.982 40.1705 706.825 40.0128 706.623 39.8991C706.424 39.7827 706.193 39.7244 705.928 39.7244C705.653 39.7244 705.409 39.7884 705.195 39.9162C704.985 40.0412 704.82 40.2102 704.701 40.4233C704.582 40.6335 704.521 40.8679 704.518 41.1264V42.196C704.518 42.5199 704.578 42.7997 704.697 43.0355C704.819 43.2713 704.991 43.4531 705.213 43.581C705.434 43.7088 705.697 43.7727 706.001 43.7727C706.203 43.7727 706.387 43.7443 706.555 43.6875C706.722 43.6307 706.866 43.5455 706.985 43.4318C707.105 43.3182 707.195 43.179 707.258 43.0142L708.937 43.125C708.852 43.5284 708.677 43.8807 708.413 44.1818C708.151 44.4801 707.813 44.7131 707.399 44.8807C706.987 45.0455 706.511 45.1278 705.971 45.1278ZM710.16 45V38.4545H711.89V39.6094H711.967C712.103 39.2259 712.33 38.9233 712.649 38.7017C712.967 38.4801 713.347 38.3693 713.791 38.3693C714.24 38.3693 714.622 38.4815 714.937 38.706C715.252 38.9276 715.463 39.2287 715.568 39.6094H715.636C715.769 39.2344 716.011 38.9347 716.36 38.7102C716.713 38.483 717.129 38.3693 717.609 38.3693C718.22 38.3693 718.715 38.5639 719.096 38.9531C719.48 39.3395 719.671 39.8878 719.671 40.598V45H717.86V40.956C717.86 40.5923 717.764 40.3196 717.57 40.1378C717.377 39.956 717.136 39.8651 716.846 39.8651C716.517 39.8651 716.259 39.9702 716.075 40.1804C715.89 40.3878 715.798 40.6619 715.798 41.0028V45H714.038V40.9176C714.038 40.5966 713.945 40.3409 713.761 40.1506C713.579 39.9602 713.339 39.8651 713.041 39.8651C712.839 39.8651 712.657 39.9162 712.495 40.0185C712.336 40.1179 712.21 40.2585 712.116 40.4403C712.022 40.6193 711.975 40.8295 711.975 41.071V45H710.16ZM724.063 45.1278C723.401 45.1278 722.828 44.9872 722.345 44.706C721.865 44.4219 721.494 44.027 721.233 43.5213C720.972 43.0128 720.841 42.4233 720.841 41.7528C720.841 41.0767 720.972 40.4858 721.233 39.9801C721.494 39.4716 721.865 39.0767 722.345 38.7955C722.828 38.5114 723.401 38.3693 724.063 38.3693C724.725 38.3693 725.296 38.5114 725.776 38.7955C726.259 39.0767 726.631 39.4716 726.892 39.9801C727.154 40.4858 727.284 41.0767 727.284 41.7528C727.284 42.4233 727.154 43.0128 726.892 43.5213C726.631 44.027 726.259 44.4219 725.776 44.706C725.296 44.9872 724.725 45.1278 724.063 45.1278ZM724.071 43.7216C724.372 43.7216 724.624 43.6364 724.825 43.4659C725.027 43.2926 725.179 43.0568 725.281 42.7585C725.387 42.4602 725.439 42.1207 725.439 41.7401C725.439 41.3594 725.387 41.0199 725.281 40.7216C725.179 40.4233 725.027 40.1875 724.825 40.0142C724.624 39.8409 724.372 39.7543 724.071 39.7543C723.767 39.7543 723.512 39.8409 723.304 40.0142C723.1 40.1875 722.945 40.4233 722.84 40.7216C722.737 41.0199 722.686 41.3594 722.686 41.7401C722.686 42.1207 722.737 42.4602 722.84 42.7585C722.945 43.0568 723.1 43.2926 723.304 43.4659C723.512 43.6364 723.767 43.7216 724.071 43.7216ZM731.946 38.4545V39.8182H728.004V38.4545H731.946ZM728.899 36.8864H730.715V42.9886C730.715 43.1562 730.74 43.2869 730.791 43.3807C730.843 43.4716 730.914 43.5355 731.004 43.5724C731.098 43.6094 731.206 43.6278 731.328 43.6278C731.414 43.6278 731.499 43.6207 731.584 43.6065C731.669 43.5895 731.735 43.5767 731.78 43.5682L732.066 44.919C731.975 44.9474 731.847 44.9801 731.682 45.017C731.517 45.0568 731.317 45.081 731.081 45.0895C730.644 45.1065 730.26 45.0483 729.931 44.9148C729.604 44.7812 729.35 44.5739 729.168 44.2926C728.986 44.0114 728.896 43.6562 728.899 43.2273V36.8864ZM736.041 45.1278C735.368 45.1278 734.789 44.9915 734.303 44.7188C733.82 44.4432 733.448 44.054 733.186 43.5511C732.925 43.0455 732.794 42.4474 732.794 41.7571C732.794 41.0838 732.925 40.4929 733.186 39.9844C733.448 39.4759 733.816 39.0795 734.29 38.7955C734.767 38.5114 735.327 38.3693 735.969 38.3693C736.401 38.3693 736.803 38.4389 737.175 38.5781C737.55 38.7145 737.877 38.9205 738.155 39.196C738.436 39.4716 738.655 39.8182 738.811 40.2358C738.968 40.6506 739.046 41.1364 739.046 41.6932V42.1918H733.519V41.0668H737.337C737.337 40.8054 737.28 40.5739 737.166 40.3722C737.053 40.1705 736.895 40.0128 736.693 39.8991C736.494 39.7827 736.263 39.7244 735.999 39.7244C735.723 39.7244 735.479 39.7884 735.266 39.9162C735.056 40.0412 734.891 40.2102 734.771 40.4233C734.652 40.6335 734.591 40.8679 734.588 41.1264V42.196C734.588 42.5199 734.648 42.7997 734.767 43.0355C734.889 43.2713 735.061 43.4531 735.283 43.581C735.504 43.7088 735.767 43.7727 736.071 43.7727C736.273 43.7727 736.458 43.7443 736.625 43.6875C736.793 43.6307 736.936 43.5455 737.056 43.4318C737.175 43.3182 737.266 43.179 737.328 43.0142L739.007 43.125C738.922 43.5284 738.747 43.8807 738.483 44.1818C738.222 44.4801 737.884 44.7131 737.469 44.8807C737.057 45.0455 736.581 45.1278 736.041 45.1278Z"
              fill="#1F2024"/>
    </g>
    <path d="M59.3234 40L102.5 40" stroke="#1F2024" stroke-width="1.5" stroke-linecap="round"/>
    <path d="M104.547 39.2803L99.5157 36.1526C98.9129 35.7778 98.1357 36.1339 98.0158 36.7806C97.9947 36.8943 98.0201 37.0102 98.0593 37.119L99.0979 40L98.0593 42.8811C98.0201 42.9899 97.9947 43.1058 98.0158 43.2195C98.1342 43.8571 98.8925 44.2148 99.4954 43.8598L104.527 40.8966C105.149 40.5306 105.16 39.6608 104.547 39.2803Z"
          fill="#1F2024"/>
    <path d="M54.5 40C54.5 38.6193 55.6193 37.5 57 37.5C58.3807 37.5 59.5 38.6193 59.5 40C59.5 41.3807 58.3807 42.5 57 42.5C55.6193 42.5 54.5 41.3807 54.5 40Z"
          fill="white" stroke="#1F2024" stroke-width="3"/>
    <path d="M229.323 40L272.5 40" stroke="#1F2024" stroke-width="1.5" stroke-linecap="round"/>
    <path d="M274.547 39.2803L269.516 36.1526C268.913 35.7778 268.136 36.1339 268.016 36.7806C267.995 36.8943 268.02 37.0102 268.059 37.119L269.098 40L268.059 42.8811C268.02 42.9899 267.995 43.1058 268.016 43.2195C268.134 43.8571 268.893 44.2148 269.495 43.8598L274.527 40.8966C275.149 40.5306 275.16 39.6608 274.547 39.2803Z"
          fill="#1F2024"/>
    <path d="M224.5 40C224.5 38.6193 225.619 37.5 227 37.5C228.381 37.5 229.5 38.6193 229.5 40C229.5 41.3807 228.381 42.5 227 42.5C225.619 42.5 224.5 41.3807 224.5 40Z"
          fill="white" stroke="#1F2024" stroke-width="3"/>
    <path d="M436.323 40L479.5 40" stroke="#1F2024" stroke-width="1.5" stroke-linecap="round"/>
    <path d="M481.547 39.2803L476.516 36.1526C475.913 35.7778 475.136 36.1339 475.016 36.7806C474.995 36.8943 475.02 37.0102 475.059 37.119L476.098 40L475.059 42.8811C475.02 42.9899 474.995 43.1058 475.016 43.2195C475.134 43.8571 475.893 44.2148 476.495 43.8598L481.527 40.8966C482.149 40.5306 482.16 39.6608 481.547 39.2803Z"
          fill="#1F2024"/>
    <path d="M431.5 40C431.5 38.6193 432.619 37.5 434 37.5C435.381 37.5 436.5 38.6193 436.5 40C436.5 41.3807 435.381 42.5 434 42.5C432.619 42.5 431.5 41.3807 431.5 40Z"
          fill="white" stroke="#1F2024" stroke-width="3"/>
    <path d="M604.323 40L647.5 40" stroke="#1F2024" stroke-width="1.5" stroke-linecap="round"/>
    <path d="M649.547 39.2803L644.516 36.1526C643.913 35.7778 643.136 36.1339 643.016 36.7806C642.995 36.8943 643.02 37.0102 643.059 37.119L644.098 40L643.059 42.8811C643.02 42.9899 642.995 43.1058 643.016 43.2195C643.134 43.8571 643.893 44.2148 644.495 43.8598L649.527 40.8966C650.149 40.5306 650.16 39.6608 649.547 39.2803Z"
          fill="#1F2024"/>
    <path d="M599.5 40C599.5 38.6193 600.619 37.5 602 37.5C603.381 37.5 604.5 38.6193 604.5 40C604.5 41.3807 603.381 42.5 602 42.5C600.619 42.5 599.5 41.3807 599.5 40Z"
          fill="white" stroke="#1F2024" stroke-width="3"/>
    <path d="M667.677 171L604.5 171" stroke="#1F2024" stroke-width="1.5" stroke-linecap="round"/>
    <path d="M602.453 170.28L607.484 167.153C608.087 166.778 608.864 167.134 608.984 167.781C609.005 167.894 608.98 168.01 608.941 168.119L607.902 171L608.941 173.881C608.98 173.99 609.005 174.106 608.984 174.219C608.866 174.857 608.107 175.215 607.505 174.86L602.473 171.897C601.851 171.531 601.84 170.661 602.453 170.28Z"
          fill="#1F2024"/>
    <path d="M672.5 171C672.5 169.619 671.381 168.5 670 168.5C668.619 168.5 667.5 169.619 667.5 171C667.5 172.381 668.619 173.5 670 173.5C671.381 173.5 672.5 172.381 672.5 171Z"
          fill="white" stroke="#1F2024" stroke-width="3"/>
    <path d="M542 93.3233L542 136.5" stroke="#1F2024" stroke-width="1.5" stroke-linecap="round"/>
    <path d="M542.72 138.547L545.847 133.516C546.222 132.913 545.866 132.136 545.219 132.016C545.106 131.995 544.99 132.02 544.881 132.059L542 133.098L539.119 132.059C539.01 132.02 538.894 131.995 538.781 132.016C538.143 132.134 537.785 132.893 538.14 133.495L541.103 138.527C541.469 139.149 542.339 139.16 542.72 138.547Z"
          fill="#1F2024"/>
    <path d="M542 88.5C543.381 88.5 544.5 89.6193 544.5 91C544.5 92.3807 543.381 93.5 542 93.5C540.619 93.5 539.5 92.3807 539.5 91C539.5 89.6193 540.619 88.5 542 88.5Z"
          fill="white" stroke="#1F2024" stroke-width="3"/>
    <path d="M717 76.3233L717 119.5" stroke="#1F2024" stroke-width="1.5" stroke-linecap="round"/>
    <path d="M717.72 121.547L720.847 116.516C721.222 115.913 720.866 115.136 720.219 115.016C720.106 114.995 719.99 115.02 719.881 115.059L717 116.098L714.119 115.059C714.01 115.02 713.894 114.995 713.781 115.016C713.143 115.134 712.785 115.893 713.14 116.495L716.103 121.527C716.469 122.149 717.339 122.16 717.72 121.547Z"
          fill="#1F2024"/>
    <path d="M717 71.5C718.381 71.5 719.5 72.6193 719.5 74C719.5 75.3807 718.381 76.5 717 76.5C715.619 76.5 714.5 75.3807 714.5 74C714.5 72.6193 715.619 71.5 717 71.5Z"
          fill="white" stroke="#1F2024" stroke-width="3"/>
    <g filter="url(#filter4_b_51_424)">
        <path d="M537.757 4.42843C540.1 2.08529 543.899 2.08529 546.243 4.42843L577.572 35.7573C579.915 38.1005 579.915 41.8995 577.572 44.2426L546.243 75.5715C543.899 77.9147 540.1 77.9147 537.757 75.5715L506.428 44.2426C504.085 41.8995 504.085 38.1005 506.428 35.7573L537.757 4.42843Z"
              fill="#1F2024" fill-opacity="0.05" stroke="#1F2024" stroke-width="1.5" stroke-linecap="round"
              stroke-linejoin="round"/>
        <path d="M526.957 39.0923H525.849C525.806 38.8556 525.727 38.6473 525.611 38.4673C525.495 38.2874 525.353 38.1347 525.185 38.0092C525.017 37.8838 524.828 37.7891 524.62 37.7251C524.414 37.6612 524.195 37.6293 523.963 37.6293C523.544 37.6293 523.169 37.7346 522.837 37.9453C522.508 38.156 522.248 38.465 522.056 38.8722C521.867 39.2794 521.772 39.7765 521.772 40.3636C521.772 40.9555 521.867 41.455 522.056 41.8622C522.248 42.2694 522.509 42.5772 522.841 42.7855C523.172 42.9938 523.545 43.098 523.96 43.098C524.189 43.098 524.407 43.0672 524.613 43.0057C524.821 42.9418 525.009 42.8482 525.178 42.7251C525.346 42.602 525.488 42.4517 525.604 42.2741C525.722 42.0942 525.804 41.8883 525.849 41.6562L526.957 41.6598C526.897 42.0173 526.783 42.3464 526.612 42.647C526.444 42.9453 526.228 43.2034 525.962 43.4212C525.7 43.6366 525.399 43.8035 525.06 43.9219C524.722 44.0402 524.353 44.0994 523.952 44.0994C523.323 44.0994 522.762 43.9503 522.269 43.652C521.777 43.3513 521.388 42.9216 521.104 42.3629C520.823 41.8042 520.682 41.1378 520.682 40.3636C520.682 39.5871 520.824 38.9207 521.108 38.3643C521.392 37.8056 521.78 37.3771 522.273 37.0788C522.765 36.7782 523.325 36.6278 523.952 36.6278C524.338 36.6278 524.698 36.6835 525.032 36.7947C525.368 36.9036 525.67 37.0646 525.938 37.2777C526.205 37.4884 526.426 37.7464 526.602 38.0518C526.777 38.3549 526.895 38.7017 526.957 39.0923ZM529.772 44.1207C529.426 44.1207 529.114 44.0568 528.834 43.929C528.555 43.7988 528.334 43.6106 528.17 43.3643C528.009 43.1181 527.929 42.8163 527.929 42.4588C527.929 42.151 527.988 41.8977 528.106 41.6989C528.225 41.5 528.385 41.3426 528.586 41.2266C528.787 41.1106 529.012 41.023 529.26 40.9638C529.509 40.9046 529.762 40.8596 530.02 40.8288C530.347 40.791 530.612 40.7602 530.816 40.7365C531.019 40.7105 531.167 40.669 531.26 40.6122C531.352 40.5554 531.398 40.4631 531.398 40.3352V40.3104C531.398 40.0002 531.311 39.7599 531.135 39.5895C530.963 39.419 530.705 39.3338 530.361 39.3338C530.004 39.3338 529.722 39.4131 529.516 39.5717C529.313 39.728 529.172 39.902 529.094 40.0938L528.096 39.8665C528.214 39.535 528.387 39.2675 528.614 39.0639C528.844 38.858 529.108 38.7088 529.406 38.6165C529.704 38.5218 530.018 38.4744 530.347 38.4744C530.565 38.4744 530.796 38.5005 531.04 38.5526C531.286 38.6023 531.515 38.6946 531.729 38.8295C531.944 38.9645 532.12 39.1574 532.258 39.4084C532.395 39.657 532.464 39.9801 532.464 40.3778V44H531.427V43.2543H531.384C531.315 43.3916 531.212 43.5265 531.075 43.6591C530.938 43.7917 530.761 43.9018 530.546 43.9893C530.331 44.0769 530.073 44.1207 529.772 44.1207ZM530.003 43.2685C530.296 43.2685 530.547 43.2105 530.756 43.0945C530.966 42.9785 531.126 42.8269 531.235 42.6399C531.346 42.4505 531.402 42.2481 531.402 42.0327V41.3295C531.364 41.3674 531.291 41.4029 531.182 41.4361C531.075 41.4669 530.953 41.4941 530.816 41.5178C530.679 41.5391 530.545 41.5592 530.415 41.5781C530.284 41.5947 530.175 41.6089 530.088 41.6207C529.882 41.6468 529.694 41.6906 529.523 41.7521C529.355 41.8137 529.22 41.9025 529.118 42.0185C529.019 42.1321 528.969 42.2836 528.969 42.473C528.969 42.7358 529.066 42.9347 529.26 43.0696C529.455 43.2022 529.702 43.2685 530.003 43.2685ZM536.175 44.1101C535.647 44.1101 535.193 43.9905 534.812 43.7514C534.433 43.5099 534.142 43.1773 533.938 42.7536C533.735 42.3298 533.633 41.8445 533.633 41.2976C533.633 40.7436 533.737 40.2547 533.945 39.831C534.154 39.4048 534.447 39.0722 534.826 38.8331C535.205 38.594 535.651 38.4744 536.165 38.4744C536.579 38.4744 536.948 38.5514 537.273 38.7053C537.597 38.8568 537.859 39.0698 538.058 39.3445C538.259 39.6191 538.378 39.9399 538.416 40.3068H537.383C537.326 40.0511 537.196 39.831 536.992 39.6463C536.791 39.4616 536.521 39.3693 536.183 39.3693C535.887 39.3693 535.627 39.4474 535.405 39.6037C535.185 39.7576 535.013 39.9777 534.89 40.2642C534.767 40.5483 534.705 40.8845 534.705 41.2727C534.705 41.6705 534.766 42.0137 534.886 42.3026C535.007 42.5914 535.178 42.8151 535.398 42.9737C535.62 43.1323 535.882 43.2116 536.183 43.2116C536.384 43.2116 536.566 43.175 536.729 43.1016C536.895 43.0258 537.034 42.9181 537.145 42.7784C537.259 42.6387 537.338 42.4706 537.383 42.2741H538.416C538.378 42.6269 538.263 42.9418 538.072 43.2188C537.88 43.4957 537.623 43.7135 537.301 43.8722C536.982 44.0308 536.606 44.1101 536.175 44.1101ZM540.613 40.7614V44H539.552V36.7273H540.599V39.4332H540.667C540.795 39.1397 540.99 38.9065 541.253 38.7337C541.515 38.5608 541.859 38.4744 542.282 38.4744C542.657 38.4744 542.983 38.5514 543.263 38.7053C543.544 38.8591 543.762 39.0888 543.916 39.3942C544.072 39.6972 544.15 40.076 544.15 40.5305V44H543.089V40.6584C543.089 40.2583 542.986 39.9482 542.78 39.728C542.574 39.5054 542.287 39.3942 541.92 39.3942C541.669 39.3942 541.444 39.4474 541.246 39.554C541.049 39.6605 540.894 39.8168 540.78 40.0227C540.669 40.2263 540.613 40.4725 540.613 40.7614ZM547.918 44.1101C547.381 44.1101 546.918 43.9953 546.53 43.7656C546.144 43.5336 545.845 43.2081 545.635 42.7891C545.426 42.3677 545.322 41.8741 545.322 41.3082C545.322 40.7495 545.426 40.2571 545.635 39.831C545.845 39.4048 546.139 39.0722 546.515 38.8331C546.894 38.594 547.337 38.4744 547.844 38.4744C548.151 38.4744 548.45 38.5253 548.738 38.6271C549.027 38.7289 549.287 38.8887 549.516 39.1065C549.746 39.3243 549.927 39.6072 550.059 39.9553C550.192 40.3009 550.258 40.7211 550.258 41.2159V41.5923H545.922V40.7969H549.218C549.218 40.5175 549.161 40.2701 549.047 40.0547C548.934 39.8369 548.774 39.6652 548.568 39.5398C548.364 39.4143 548.125 39.3516 547.851 39.3516C547.552 39.3516 547.292 39.425 547.069 39.5717C546.849 39.7161 546.679 39.9055 546.558 40.1399C546.44 40.3719 546.381 40.6241 546.381 40.8963V41.5178C546.381 41.8823 546.444 42.1925 546.572 42.4482C546.702 42.7038 546.884 42.8991 547.116 43.0341C547.348 43.1667 547.619 43.233 547.929 43.233C548.13 43.233 548.314 43.2045 548.479 43.1477C548.645 43.0885 548.788 43.0009 548.909 42.8849C549.03 42.7689 549.122 42.6257 549.186 42.4553L550.191 42.6364C550.11 42.9323 549.966 43.1915 549.758 43.4141C549.552 43.6342 549.292 43.8059 548.98 43.929C548.67 44.0497 548.316 44.1101 547.918 44.1101ZM553.478 44.1065C553.038 44.1065 552.645 43.9941 552.299 43.7692C551.956 43.5419 551.686 43.2187 551.49 42.7997C551.296 42.3783 551.199 41.8729 551.199 41.2834C551.199 40.6939 551.297 40.1896 551.493 39.7706C551.692 39.3516 551.964 39.0308 552.31 38.8082C552.656 38.5857 553.047 38.4744 553.485 38.4744C553.824 38.4744 554.096 38.5312 554.302 38.6449C554.511 38.7562 554.672 38.8864 554.785 39.0355C554.901 39.1847 554.991 39.3161 555.055 39.4297H555.119V36.7273H556.181V44H555.144V43.1513H555.055C554.991 43.2673 554.899 43.3999 554.778 43.549C554.66 43.6982 554.496 43.8284 554.288 43.9396C554.08 44.0509 553.81 44.1065 553.478 44.1065ZM553.713 43.201C554.018 43.201 554.276 43.1205 554.487 42.9595C554.7 42.7962 554.861 42.5701 554.97 42.2812C555.081 41.9924 555.137 41.6562 555.137 41.2727C555.137 40.8939 555.082 40.5625 554.973 40.2784C554.864 39.9943 554.705 39.773 554.494 39.6143C554.283 39.4557 554.023 39.3764 553.713 39.3764C553.393 39.3764 553.127 39.4593 552.914 39.625C552.701 39.7907 552.54 40.0168 552.431 40.3033C552.324 40.5897 552.271 40.9129 552.271 41.2727C552.271 41.6373 552.325 41.9652 552.434 42.2564C552.543 42.5476 552.704 42.7784 552.917 42.9489C553.133 43.117 553.398 43.201 553.713 43.201ZM561.504 41.9084V41.8409C561.509 41.4006 561.552 41.0502 561.635 40.7898C561.721 40.5294 561.841 40.3187 561.998 40.1577C562.154 39.9967 562.342 39.8499 562.562 39.7173C562.704 39.6274 562.832 39.5268 562.946 39.4155C563.059 39.3042 563.149 39.1764 563.216 39.032C563.282 38.8875 563.315 38.7277 563.315 38.5526C563.315 38.3419 563.265 38.1596 563.166 38.0057C563.066 37.8518 562.934 37.7334 562.768 37.6506C562.605 37.5653 562.422 37.5227 562.221 37.5227C562.039 37.5227 561.865 37.5606 561.699 37.6364C561.533 37.7121 561.396 37.8305 561.287 37.9915C561.178 38.1501 561.116 38.3549 561.099 38.6058H560.02C560.036 38.1797 560.144 37.8198 560.343 37.5263C560.542 37.2304 560.804 37.0066 561.131 36.8551C561.46 36.7036 561.824 36.6278 562.221 36.6278C562.657 36.6278 563.038 36.7095 563.365 36.8729C563.691 37.0339 563.945 37.2599 564.125 37.5511C564.307 37.84 564.398 38.1773 564.398 38.5632C564.398 38.8284 564.357 39.0675 564.274 39.2805C564.191 39.4912 564.073 39.6795 563.919 39.8452C563.767 40.0109 563.585 40.1577 563.372 40.2855C563.171 40.411 563.007 40.5412 562.882 40.6761C562.759 40.8111 562.669 40.9709 562.612 41.1555C562.555 41.3402 562.524 41.5687 562.52 41.8409V41.9084H561.504ZM562.04 44.0675C561.846 44.0675 561.679 43.9988 561.539 43.8615C561.4 43.7218 561.33 43.5537 561.33 43.3572C561.33 43.1631 561.4 42.9974 561.539 42.8601C561.679 42.7204 561.846 42.6506 562.04 42.6506C562.232 42.6506 562.398 42.7204 562.537 42.8601C562.679 42.9974 562.75 43.1631 562.75 43.3572C562.75 43.4875 562.717 43.607 562.651 43.7159C562.587 43.8224 562.502 43.9077 562.395 43.9716C562.289 44.0355 562.17 44.0675 562.04 44.0675Z"
              fill="#1F2024"/>
    </g>
    <g filter="url(#filter5_b_51_424)">
        <path d="M712.757 134.428C715.1 132.085 718.899 132.085 721.243 134.428L752.572 165.757C754.915 168.1 754.915 171.899 752.572 174.243L721.243 205.572C718.899 207.915 715.1 207.915 712.757 205.572L681.428 174.243C679.085 171.899 679.085 168.1 681.428 165.757L712.757 134.428Z"
              fill="#1F2024" fill-opacity="0.05" stroke="#1F2024" stroke-width="1.5" stroke-linecap="round"
              stroke-linejoin="round"/>
        <path d="M694.93 169.092H693.822C693.78 168.856 693.7 168.647 693.584 168.467C693.468 168.287 693.326 168.135 693.158 168.009C692.99 167.884 692.802 167.789 692.594 167.725C692.388 167.661 692.169 167.629 691.937 167.629C691.518 167.629 691.142 167.735 690.811 167.945C690.482 168.156 690.222 168.465 690.03 168.872C689.84 169.279 689.746 169.777 689.746 170.364C689.746 170.955 689.84 171.455 690.03 171.862C690.222 172.269 690.483 172.577 690.815 172.786C691.146 172.994 691.519 173.098 691.933 173.098C692.163 173.098 692.381 173.067 692.587 173.006C692.795 172.942 692.983 172.848 693.151 172.725C693.319 172.602 693.461 172.452 693.577 172.274C693.696 172.094 693.777 171.888 693.822 171.656L694.93 171.66C694.871 172.017 694.756 172.346 694.586 172.647C694.418 172.945 694.201 173.203 693.936 173.421C693.673 173.637 693.373 173.804 693.034 173.922C692.695 174.04 692.326 174.099 691.926 174.099C691.296 174.099 690.735 173.95 690.243 173.652C689.75 173.351 689.362 172.922 689.078 172.363C688.796 171.804 688.655 171.138 688.655 170.364C688.655 169.587 688.797 168.921 689.082 168.364C689.366 167.806 689.754 167.377 690.246 167.079C690.739 166.778 691.299 166.628 691.926 166.628C692.312 166.628 692.672 166.683 693.006 166.795C693.342 166.904 693.644 167.065 693.911 167.278C694.179 167.488 694.4 167.746 694.575 168.052C694.75 168.355 694.869 168.702 694.93 169.092ZM697.745 174.121C697.4 174.121 697.087 174.057 696.808 173.929C696.529 173.799 696.307 173.611 696.144 173.364C695.983 173.118 695.902 172.816 695.902 172.459C695.902 172.151 695.962 171.898 696.08 171.699C696.198 171.5 696.358 171.343 696.559 171.227C696.761 171.111 696.986 171.023 697.234 170.964C697.483 170.905 697.736 170.86 697.994 170.829C698.321 170.791 698.586 170.76 698.79 170.737C698.993 170.71 699.141 170.669 699.233 170.612C699.326 170.555 699.372 170.463 699.372 170.335V170.31C699.372 170 699.284 169.76 699.109 169.589C698.936 169.419 698.678 169.334 698.335 169.334C697.977 169.334 697.696 169.413 697.49 169.572C697.286 169.728 697.145 169.902 697.067 170.094L696.069 169.866C696.188 169.535 696.361 169.268 696.588 169.064C696.817 168.858 697.081 168.709 697.38 168.616C697.678 168.522 697.992 168.474 698.321 168.474C698.539 168.474 698.769 168.5 699.013 168.553C699.259 168.602 699.489 168.695 699.702 168.83C699.918 168.964 700.094 169.157 700.231 169.408C700.369 169.657 700.437 169.98 700.437 170.378V174H699.4V173.254H699.358C699.289 173.392 699.186 173.527 699.049 173.659C698.911 173.792 698.735 173.902 698.52 173.989C698.304 174.077 698.046 174.121 697.745 174.121ZM697.976 173.268C698.27 173.268 698.521 173.21 698.729 173.094C698.94 172.978 699.1 172.827 699.209 172.64C699.32 172.451 699.375 172.248 699.375 172.033V171.33C699.338 171.367 699.264 171.403 699.155 171.436C699.049 171.467 698.927 171.494 698.79 171.518C698.652 171.539 698.518 171.559 698.388 171.578C698.258 171.595 698.149 171.609 698.062 171.621C697.856 171.647 697.667 171.691 697.497 171.752C697.329 171.814 697.194 171.902 697.092 172.018C696.993 172.132 696.943 172.284 696.943 172.473C696.943 172.736 697.04 172.935 697.234 173.07C697.428 173.202 697.676 173.268 697.976 173.268ZM704.149 174.11C703.621 174.11 703.167 173.991 702.785 173.751C702.407 173.51 702.115 173.177 701.912 172.754C701.708 172.33 701.606 171.844 701.606 171.298C701.606 170.744 701.711 170.255 701.919 169.831C702.127 169.405 702.421 169.072 702.8 168.833C703.178 168.594 703.625 168.474 704.138 168.474C704.553 168.474 704.922 168.551 705.246 168.705C705.571 168.857 705.832 169.07 706.031 169.344C706.232 169.619 706.352 169.94 706.39 170.307H705.356C705.3 170.051 705.169 169.831 704.966 169.646C704.765 169.462 704.495 169.369 704.156 169.369C703.86 169.369 703.601 169.447 703.378 169.604C703.158 169.758 702.987 169.978 702.864 170.264C702.74 170.548 702.679 170.884 702.679 171.273C702.679 171.67 702.739 172.014 702.86 172.303C702.981 172.591 703.151 172.815 703.371 172.974C703.594 173.132 703.855 173.212 704.156 173.212C704.357 173.212 704.54 173.175 704.703 173.102C704.869 173.026 705.007 172.918 705.119 172.778C705.232 172.639 705.311 172.471 705.356 172.274H706.39C706.352 172.627 706.237 172.942 706.045 173.219C705.854 173.496 705.597 173.714 705.275 173.872C704.955 174.031 704.58 174.11 704.149 174.11ZM708.587 170.761V174H707.525V166.727H708.573V169.433H708.64C708.768 169.14 708.964 168.906 709.226 168.734C709.489 168.561 709.832 168.474 710.256 168.474C710.63 168.474 710.957 168.551 711.236 168.705C711.518 168.859 711.736 169.089 711.89 169.394C712.046 169.697 712.124 170.076 712.124 170.531V174H711.062V170.658C711.062 170.258 710.959 169.948 710.753 169.728C710.547 169.505 710.261 169.394 709.894 169.394C709.643 169.394 709.418 169.447 709.219 169.554C709.023 169.661 708.868 169.817 708.754 170.023C708.643 170.226 708.587 170.473 708.587 170.761ZM715.892 174.11C715.354 174.11 714.892 173.995 714.503 173.766C714.117 173.534 713.819 173.208 713.608 172.789C713.4 172.368 713.296 171.874 713.296 171.308C713.296 170.75 713.4 170.257 713.608 169.831C713.819 169.405 714.113 169.072 714.489 168.833C714.868 168.594 715.311 168.474 715.817 168.474C716.125 168.474 716.423 168.525 716.712 168.627C717.001 168.729 717.26 168.889 717.49 169.107C717.719 169.324 717.901 169.607 718.033 169.955C718.166 170.301 718.232 170.721 718.232 171.216V171.592H713.896V170.797H717.191C717.191 170.518 717.135 170.27 717.021 170.055C716.907 169.837 716.748 169.665 716.542 169.54C716.338 169.414 716.099 169.352 715.824 169.352C715.526 169.352 715.266 169.425 715.043 169.572C714.823 169.716 714.652 169.906 714.532 170.14C714.413 170.372 714.354 170.624 714.354 170.896V171.518C714.354 171.882 714.418 172.192 714.546 172.448C714.676 172.704 714.857 172.899 715.089 173.034C715.321 173.167 715.592 173.233 715.902 173.233C716.104 173.233 716.287 173.205 716.453 173.148C716.619 173.089 716.762 173.001 716.883 172.885C717.003 172.769 717.096 172.626 717.16 172.455L718.165 172.636C718.084 172.932 717.94 173.192 717.731 173.414C717.525 173.634 717.266 173.806 716.954 173.929C716.643 174.05 716.29 174.11 715.892 174.11ZM720.997 174.121C720.652 174.121 720.339 174.057 720.06 173.929C719.781 173.799 719.559 173.611 719.396 173.364C719.235 173.118 719.154 172.816 719.154 172.459C719.154 172.151 719.214 171.898 719.332 171.699C719.45 171.5 719.61 171.343 719.811 171.227C720.013 171.111 720.237 171.023 720.486 170.964C720.735 170.905 720.988 170.86 721.246 170.829C721.573 170.791 721.838 170.76 722.041 170.737C722.245 170.71 722.393 170.669 722.485 170.612C722.578 170.555 722.624 170.463 722.624 170.335V170.31C722.624 170 722.536 169.76 722.361 169.589C722.188 169.419 721.93 169.334 721.587 169.334C721.229 169.334 720.948 169.413 720.742 169.572C720.538 169.728 720.397 169.902 720.319 170.094L719.321 169.866C719.44 169.535 719.612 169.268 719.84 169.064C720.069 168.858 720.333 168.709 720.632 168.616C720.93 168.522 721.244 168.474 721.573 168.474C721.791 168.474 722.021 168.5 722.265 168.553C722.511 168.602 722.741 168.695 722.954 168.83C723.17 168.964 723.346 169.157 723.483 169.408C723.621 169.657 723.689 169.98 723.689 170.378V174H722.652V173.254H722.61C722.541 173.392 722.438 173.527 722.301 173.659C722.163 173.792 721.987 173.902 721.772 173.989C721.556 174.077 721.298 174.121 720.997 174.121ZM721.228 173.268C721.522 173.268 721.773 173.21 721.981 173.094C722.192 172.978 722.352 172.827 722.46 172.64C722.572 172.451 722.627 172.248 722.627 172.033V171.33C722.59 171.367 722.516 171.403 722.407 171.436C722.301 171.467 722.179 171.494 722.041 171.518C721.904 171.539 721.77 171.559 721.64 171.578C721.51 171.595 721.401 171.609 721.313 171.621C721.108 171.647 720.919 171.691 720.749 171.752C720.581 171.814 720.446 171.902 720.344 172.018C720.245 172.132 720.195 172.284 720.195 172.473C720.195 172.736 720.292 172.935 720.486 173.07C720.68 173.202 720.928 173.268 721.228 173.268ZM725.189 174V166.727H726.25V169.43H726.314C726.376 169.316 726.465 169.185 726.581 169.036C726.697 168.886 726.858 168.756 727.064 168.645C727.27 168.531 727.542 168.474 727.88 168.474C728.321 168.474 728.714 168.586 729.059 168.808C729.405 169.031 729.676 169.352 729.873 169.771C730.071 170.19 730.171 170.694 730.171 171.283C730.171 171.873 730.073 172.378 729.876 172.8C729.68 173.219 729.41 173.542 729.066 173.769C728.723 173.994 728.331 174.107 727.891 174.107C727.56 174.107 727.289 174.051 727.078 173.94C726.87 173.828 726.706 173.698 726.588 173.549C726.469 173.4 726.378 173.267 726.314 173.151H726.226V174H725.189ZM726.229 171.273C726.229 171.656 726.285 171.992 726.396 172.281C726.507 172.57 726.668 172.796 726.879 172.96C727.09 173.121 727.348 173.201 727.653 173.201C727.97 173.201 728.236 173.117 728.449 172.949C728.662 172.778 728.823 172.548 728.932 172.256C729.043 171.965 729.098 171.637 729.098 171.273C729.098 170.913 729.044 170.59 728.935 170.303C728.829 170.017 728.668 169.791 728.452 169.625C728.239 169.459 727.973 169.376 727.653 169.376C727.345 169.376 727.085 169.456 726.872 169.614C726.661 169.773 726.501 169.994 726.392 170.278C726.284 170.562 726.229 170.894 726.229 171.273ZM732.425 166.727V174H731.363V166.727H732.425ZM736.204 174.11C735.667 174.11 735.204 173.995 734.816 173.766C734.43 173.534 734.132 173.208 733.921 172.789C733.713 172.368 733.608 171.874 733.608 171.308C733.608 170.75 733.713 170.257 733.921 169.831C734.132 169.405 734.425 169.072 734.802 168.833C735.18 168.594 735.623 168.474 736.13 168.474C736.437 168.474 736.736 168.525 737.025 168.627C737.313 168.729 737.573 168.889 737.802 169.107C738.032 169.324 738.213 169.607 738.346 169.955C738.478 170.301 738.544 170.721 738.544 171.216V171.592H734.209V170.797H737.504C737.504 170.518 737.447 170.27 737.334 170.055C737.22 169.837 737.06 169.665 736.854 169.54C736.651 169.414 736.411 169.352 736.137 169.352C735.839 169.352 735.578 169.425 735.356 169.572C735.135 169.716 734.965 169.906 734.844 170.14C734.726 170.372 734.667 170.624 734.667 170.896V171.518C734.667 171.882 734.731 172.192 734.858 172.448C734.989 172.704 735.17 172.899 735.402 173.034C735.634 173.167 735.905 173.233 736.215 173.233C736.416 173.233 736.6 173.205 736.765 173.148C736.931 173.089 737.074 173.001 737.195 172.885C737.316 172.769 737.408 172.626 737.472 172.455L738.477 172.636C738.397 172.932 738.252 173.192 738.044 173.414C737.838 173.634 737.579 173.806 737.266 173.929C736.956 174.05 736.602 174.11 736.204 174.11ZM743.53 171.908V171.841C743.535 171.401 743.579 171.05 743.662 170.79C743.747 170.529 743.868 170.319 744.024 170.158C744.18 169.997 744.368 169.85 744.589 169.717C744.731 169.627 744.858 169.527 744.972 169.415C745.086 169.304 745.176 169.176 745.242 169.032C745.308 168.888 745.341 168.728 745.341 168.553C745.341 168.342 745.292 168.16 745.192 168.006C745.093 167.852 744.96 167.733 744.794 167.651C744.631 167.565 744.449 167.523 744.248 167.523C744.065 167.523 743.891 167.561 743.726 167.636C743.56 167.712 743.423 167.83 743.314 167.991C743.205 168.15 743.142 168.355 743.125 168.606H742.046C742.062 168.18 742.17 167.82 742.369 167.526C742.568 167.23 742.831 167.007 743.157 166.855C743.486 166.704 743.85 166.628 744.248 166.628C744.683 166.628 745.064 166.71 745.391 166.873C745.718 167.034 745.971 167.26 746.151 167.551C746.333 167.84 746.424 168.177 746.424 168.563C746.424 168.828 746.383 169.067 746.3 169.281C746.217 169.491 746.099 169.679 745.945 169.845C745.794 170.011 745.611 170.158 745.398 170.286C745.197 170.411 745.034 170.541 744.908 170.676C744.785 170.811 744.695 170.971 744.638 171.156C744.581 171.34 744.551 171.569 744.546 171.841V171.908H743.53ZM744.066 174.067C743.872 174.067 743.705 173.999 743.566 173.862C743.426 173.722 743.356 173.554 743.356 173.357C743.356 173.163 743.426 172.997 743.566 172.86C743.705 172.72 743.872 172.651 744.066 172.651C744.258 172.651 744.424 172.72 744.564 172.86C744.706 172.997 744.777 173.163 744.777 173.357C744.777 173.487 744.744 173.607 744.677 173.716C744.613 173.822 744.528 173.908 744.422 173.972C744.315 174.036 744.197 174.067 744.066 174.067Z"
              fill="#1F2024"/>
    </g>
    <path d="M547.561 117.045C547.402 117.045 547.258 117.032 547.127 117.006C546.997 116.983 546.9 116.957 546.836 116.928L547.092 116.058C547.286 116.11 547.459 116.133 547.61 116.126C547.762 116.119 547.896 116.062 548.012 115.955C548.13 115.849 548.234 115.675 548.324 115.433L548.456 115.071L546.46 109.545H547.596L548.978 113.778H549.034L550.416 109.545H551.556L549.308 115.728C549.204 116.012 549.071 116.252 548.91 116.449C548.749 116.648 548.557 116.797 548.335 116.896C548.112 116.996 547.854 117.045 547.561 117.045ZM554.719 115.11C554.182 115.11 553.719 114.995 553.33 114.766C552.945 114.534 552.646 114.208 552.436 113.789C552.227 113.368 552.123 112.874 552.123 112.308C552.123 111.75 552.227 111.257 552.436 110.831C552.646 110.405 552.94 110.072 553.316 109.833C553.695 109.594 554.138 109.474 554.644 109.474C554.952 109.474 555.25 109.525 555.539 109.627C555.828 109.729 556.087 109.889 556.317 110.107C556.547 110.324 556.728 110.607 556.86 110.955C556.993 111.301 557.059 111.721 557.059 112.216V112.592H552.723V111.797H556.019C556.019 111.518 555.962 111.27 555.848 111.055C555.735 110.837 555.575 110.665 555.369 110.54C555.165 110.414 554.926 110.352 554.651 110.352C554.353 110.352 554.093 110.425 553.87 110.572C553.65 110.716 553.48 110.906 553.359 111.14C553.24 111.372 553.181 111.624 553.181 111.896V112.518C553.181 112.882 553.245 113.192 553.373 113.448C553.503 113.704 553.684 113.899 553.916 114.034C554.148 114.167 554.419 114.233 554.73 114.233C554.931 114.233 555.114 114.205 555.28 114.148C555.446 114.089 555.589 114.001 555.71 113.885C555.83 113.769 555.923 113.626 555.987 113.455L556.992 113.636C556.911 113.932 556.767 114.192 556.558 114.414C556.352 114.634 556.093 114.806 555.781 114.929C555.471 115.05 555.117 115.11 554.719 115.11ZM562.325 110.877L561.362 111.048C561.322 110.924 561.258 110.807 561.17 110.696C561.085 110.585 560.969 110.494 560.822 110.423C560.676 110.352 560.492 110.316 560.272 110.316C559.971 110.316 559.72 110.384 559.519 110.518C559.318 110.651 559.217 110.823 559.217 111.033C559.217 111.216 559.285 111.362 559.42 111.474C559.555 111.585 559.772 111.676 560.073 111.747L560.94 111.946C561.442 112.062 561.816 112.241 562.062 112.482C562.308 112.724 562.431 113.037 562.431 113.423C562.431 113.75 562.336 114.041 562.147 114.297C561.96 114.55 561.698 114.749 561.362 114.893C561.028 115.038 560.641 115.11 560.201 115.11C559.59 115.11 559.092 114.98 558.706 114.719C558.32 114.457 558.083 114.084 557.996 113.601L559.022 113.445C559.086 113.712 559.217 113.915 559.416 114.052C559.615 114.187 559.874 114.254 560.194 114.254C560.542 114.254 560.82 114.182 561.028 114.038C561.237 113.891 561.341 113.712 561.341 113.501C561.341 113.331 561.277 113.188 561.149 113.072C561.024 112.956 560.831 112.868 560.57 112.809L559.647 112.607C559.138 112.491 558.762 112.306 558.518 112.053C558.276 111.799 558.156 111.478 558.156 111.09C558.156 110.768 558.246 110.487 558.425 110.245C558.605 110.004 558.854 109.815 559.171 109.68C559.488 109.543 559.852 109.474 560.261 109.474C560.851 109.474 561.315 109.602 561.653 109.858C561.992 110.111 562.216 110.451 562.325 110.877ZM564.937 107.727L564.845 112.908H563.861L563.769 107.727H564.937ZM564.355 115.067C564.158 115.067 563.99 114.999 563.851 114.862C563.711 114.722 563.642 114.554 563.645 114.357C563.642 114.163 563.711 113.997 563.851 113.86C563.99 113.72 564.158 113.651 564.355 113.651C564.547 113.651 564.712 113.72 564.852 113.86C564.992 113.997 565.063 114.163 565.065 114.357C565.063 114.487 565.028 114.607 564.962 114.716C564.898 114.822 564.813 114.908 564.706 114.972C564.6 115.036 564.483 115.067 564.355 115.067Z"
          fill="#1F2024"/>
    <path d="M627.561 167.045C627.402 167.045 627.258 167.032 627.127 167.006C626.997 166.983 626.9 166.957 626.836 166.928L627.092 166.058C627.286 166.11 627.459 166.133 627.61 166.126C627.762 166.119 627.896 166.062 628.012 165.955C628.13 165.849 628.234 165.675 628.324 165.433L628.456 165.071L626.46 159.545H627.596L628.978 163.778H629.034L630.416 159.545H631.556L629.308 165.728C629.204 166.012 629.071 166.252 628.91 166.449C628.749 166.648 628.557 166.797 628.335 166.896C628.112 166.996 627.854 167.045 627.561 167.045ZM634.719 165.11C634.182 165.11 633.719 164.995 633.33 164.766C632.945 164.534 632.646 164.208 632.436 163.789C632.227 163.368 632.123 162.874 632.123 162.308C632.123 161.75 632.227 161.257 632.436 160.831C632.646 160.405 632.94 160.072 633.316 159.833C633.695 159.594 634.138 159.474 634.644 159.474C634.952 159.474 635.25 159.525 635.539 159.627C635.828 159.729 636.087 159.889 636.317 160.107C636.547 160.324 636.728 160.607 636.86 160.955C636.993 161.301 637.059 161.721 637.059 162.216V162.592H632.723V161.797H636.019C636.019 161.518 635.962 161.27 635.848 161.055C635.735 160.837 635.575 160.665 635.369 160.54C635.165 160.414 634.926 160.352 634.651 160.352C634.353 160.352 634.093 160.425 633.87 160.572C633.65 160.716 633.48 160.906 633.359 161.14C633.24 161.372 633.181 161.624 633.181 161.896V162.518C633.181 162.882 633.245 163.192 633.373 163.448C633.503 163.704 633.684 163.899 633.916 164.034C634.148 164.167 634.419 164.233 634.73 164.233C634.931 164.233 635.114 164.205 635.28 164.148C635.446 164.089 635.589 164.001 635.71 163.885C635.83 163.769 635.923 163.626 635.987 163.455L636.992 163.636C636.911 163.932 636.767 164.192 636.558 164.414C636.352 164.634 636.093 164.806 635.781 164.929C635.471 165.05 635.117 165.11 634.719 165.11ZM642.325 160.877L641.362 161.048C641.322 160.924 641.258 160.807 641.17 160.696C641.085 160.585 640.969 160.494 640.822 160.423C640.676 160.352 640.492 160.316 640.272 160.316C639.971 160.316 639.72 160.384 639.519 160.518C639.318 160.651 639.217 160.823 639.217 161.033C639.217 161.216 639.285 161.362 639.42 161.474C639.555 161.585 639.772 161.676 640.073 161.747L640.94 161.946C641.442 162.062 641.816 162.241 642.062 162.482C642.308 162.724 642.431 163.037 642.431 163.423C642.431 163.75 642.336 164.041 642.147 164.297C641.96 164.55 641.698 164.749 641.362 164.893C641.028 165.038 640.641 165.11 640.201 165.11C639.59 165.11 639.092 164.98 638.706 164.719C638.32 164.457 638.083 164.084 637.996 163.601L639.022 163.445C639.086 163.712 639.217 163.915 639.416 164.052C639.615 164.187 639.874 164.254 640.194 164.254C640.542 164.254 640.82 164.182 641.028 164.038C641.237 163.891 641.341 163.712 641.341 163.501C641.341 163.331 641.277 163.188 641.149 163.072C641.024 162.956 640.831 162.868 640.57 162.809L639.647 162.607C639.138 162.491 638.762 162.306 638.518 162.053C638.276 161.799 638.156 161.478 638.156 161.09C638.156 160.768 638.246 160.487 638.425 160.245C638.605 160.004 638.854 159.815 639.171 159.68C639.488 159.543 639.852 159.474 640.261 159.474C640.851 159.474 641.315 159.602 641.653 159.858C641.992 160.111 642.216 160.451 642.325 160.877ZM644.937 157.727L644.845 162.908H643.861L643.769 157.727H644.937ZM644.355 165.067C644.158 165.067 643.99 164.999 643.851 164.862C643.711 164.722 643.642 164.554 643.645 164.357C643.642 164.163 643.711 163.997 643.851 163.86C643.99 163.72 644.158 163.651 644.355 163.651C644.547 163.651 644.712 163.72 644.852 163.86C644.992 163.997 645.063 164.163 645.065 164.357C645.063 164.487 645.028 164.607 644.962 164.716C644.898 164.822 644.813 164.908 644.706 164.972C644.6 165.036 644.483 165.067 644.355 165.067Z"
          fill="#1F2024"/>
    <path d="M617.027 50.7614V54H615.965V48.5455H616.984V49.4332H617.051C617.177 49.1444 617.373 48.9124 617.641 48.7372C617.911 48.562 618.251 48.4744 618.66 48.4744C619.032 48.4744 619.357 48.5526 619.637 48.7088C619.916 48.8627 620.133 49.0923 620.286 49.3977C620.44 49.7031 620.517 50.0807 620.517 50.5305V54H619.456V50.6584C619.456 50.263 619.353 49.9541 619.147 49.7315C618.941 49.5066 618.658 49.3942 618.298 49.3942C618.052 49.3942 617.833 49.4474 617.641 49.554C617.451 49.6605 617.301 49.8168 617.19 50.0227C617.081 50.2263 617.027 50.4725 617.027 50.7614ZM624.239 54.1101C623.728 54.1101 623.281 53.9929 622.9 53.7585C622.519 53.5241 622.223 53.1963 622.012 52.7749C621.802 52.3535 621.696 51.861 621.696 51.2976C621.696 50.7318 621.802 50.237 622.012 49.8132C622.223 49.3894 622.519 49.0604 622.9 48.826C623.281 48.5916 623.728 48.4744 624.239 48.4744C624.75 48.4744 625.197 48.5916 625.578 48.826C625.959 49.0604 626.255 49.3894 626.465 49.8132C626.676 50.237 626.782 50.7318 626.782 51.2976C626.782 51.861 626.676 52.3535 626.465 52.7749C626.255 53.1963 625.959 53.5241 625.578 53.7585C625.197 53.9929 624.75 54.1101 624.239 54.1101ZM624.242 53.2188C624.574 53.2188 624.849 53.1312 625.066 52.956C625.284 52.7808 625.445 52.5476 625.549 52.2564C625.656 51.9652 625.709 51.6444 625.709 51.294C625.709 50.946 625.656 50.6264 625.549 50.3352C625.445 50.0417 625.284 49.8061 625.066 49.6286C624.849 49.451 624.574 49.3622 624.242 49.3622C623.909 49.3622 623.632 49.451 623.411 49.6286C623.194 49.8061 623.032 50.0417 622.925 50.3352C622.821 50.6264 622.769 50.946 622.769 51.294C622.769 51.6444 622.821 51.9652 622.925 52.2564C623.032 52.5476 623.194 52.7808 623.411 52.956C623.632 53.1312 623.909 53.2188 624.242 53.2188ZM628.666 54.0675C628.472 54.0675 628.305 53.9988 628.166 53.8615C628.026 53.7218 627.956 53.5537 627.956 53.3572C627.956 53.1631 628.026 52.9974 628.166 52.8601C628.305 52.7204 628.472 52.6506 628.666 52.6506C628.86 52.6506 629.027 52.7204 629.167 52.8601C629.307 52.9974 629.377 53.1631 629.377 53.3572C629.377 53.4875 629.343 53.607 629.277 53.7159C629.213 53.8224 629.128 53.9077 629.021 53.9716C628.915 54.0355 628.796 54.0675 628.666 54.0675ZM631.498 54.0675C631.304 54.0675 631.137 53.9988 630.998 53.8615C630.858 53.7218 630.788 53.5537 630.788 53.3572C630.788 53.1631 630.858 52.9974 630.998 52.8601C631.137 52.7204 631.304 52.6506 631.498 52.6506C631.692 52.6506 631.859 52.7204 631.999 52.8601C632.139 52.9974 632.209 53.1631 632.209 53.3572C632.209 53.4875 632.175 53.607 632.109 53.7159C632.045 53.8224 631.96 53.9077 631.853 53.9716C631.747 54.0355 631.629 54.0675 631.498 54.0675ZM634.33 54.0675C634.136 54.0675 633.969 53.9988 633.83 53.8615C633.69 53.7218 633.62 53.5537 633.62 53.3572C633.62 53.1631 633.69 52.9974 633.83 52.8601C633.969 52.7204 634.136 52.6506 634.33 52.6506C634.524 52.6506 634.691 52.7204 634.831 52.8601C634.971 52.9974 635.041 53.1631 635.041 53.3572C635.041 53.4875 635.007 53.607 634.941 53.7159C634.877 53.8224 634.792 53.9077 634.685 53.9716C634.579 54.0355 634.461 54.0675 634.33 54.0675Z"
          fill="#1F2024"/>
    <path d="M672.027 216.761V220H670.965V214.545H671.984V215.433H672.051C672.177 215.144 672.373 214.912 672.641 214.737C672.911 214.562 673.251 214.474 673.66 214.474C674.032 214.474 674.357 214.553 674.637 214.709C674.916 214.863 675.133 215.092 675.286 215.398C675.44 215.703 675.517 216.081 675.517 216.531V220H674.456V216.658C674.456 216.263 674.353 215.954 674.147 215.732C673.941 215.507 673.658 215.394 673.298 215.394C673.052 215.394 672.833 215.447 672.641 215.554C672.451 215.661 672.301 215.817 672.19 216.023C672.081 216.226 672.027 216.473 672.027 216.761ZM679.239 220.11C678.728 220.11 678.281 219.993 677.9 219.759C677.519 219.524 677.223 219.196 677.012 218.775C676.802 218.353 676.696 217.861 676.696 217.298C676.696 216.732 676.802 216.237 677.012 215.813C677.223 215.389 677.519 215.06 677.9 214.826C678.281 214.592 678.728 214.474 679.239 214.474C679.75 214.474 680.197 214.592 680.578 214.826C680.959 215.06 681.255 215.389 681.465 215.813C681.676 216.237 681.782 216.732 681.782 217.298C681.782 217.861 681.676 218.353 681.465 218.775C681.255 219.196 680.959 219.524 680.578 219.759C680.197 219.993 679.75 220.11 679.239 220.11ZM679.242 219.219C679.574 219.219 679.849 219.131 680.066 218.956C680.284 218.781 680.445 218.548 680.549 218.256C680.656 217.965 680.709 217.644 680.709 217.294C680.709 216.946 680.656 216.626 680.549 216.335C680.445 216.042 680.284 215.806 680.066 215.629C679.849 215.451 679.574 215.362 679.242 215.362C678.909 215.362 678.632 215.451 678.411 215.629C678.194 215.806 678.032 216.042 677.925 216.335C677.821 216.626 677.769 216.946 677.769 217.294C677.769 217.644 677.821 217.965 677.925 218.256C678.032 218.548 678.194 218.781 678.411 218.956C678.632 219.131 678.909 219.219 679.242 219.219ZM683.666 220.067C683.472 220.067 683.305 219.999 683.166 219.862C683.026 219.722 682.956 219.554 682.956 219.357C682.956 219.163 683.026 218.997 683.166 218.86C683.305 218.72 683.472 218.651 683.666 218.651C683.86 218.651 684.027 218.72 684.167 218.86C684.307 218.997 684.377 219.163 684.377 219.357C684.377 219.487 684.343 219.607 684.277 219.716C684.213 219.822 684.128 219.908 684.021 219.972C683.915 220.036 683.796 220.067 683.666 220.067ZM686.498 220.067C686.304 220.067 686.137 219.999 685.998 219.862C685.858 219.722 685.788 219.554 685.788 219.357C685.788 219.163 685.858 218.997 685.998 218.86C686.137 218.72 686.304 218.651 686.498 218.651C686.692 218.651 686.859 218.72 686.999 218.86C687.139 218.997 687.209 219.163 687.209 219.357C687.209 219.487 687.175 219.607 687.109 219.716C687.045 219.822 686.96 219.908 686.853 219.972C686.747 220.036 686.629 220.067 686.498 220.067ZM689.33 220.067C689.136 220.067 688.969 219.999 688.83 219.862C688.69 219.722 688.62 219.554 688.62 219.357C688.62 219.163 688.69 218.997 688.83 218.86C688.969 218.72 689.136 218.651 689.33 218.651C689.524 218.651 689.691 218.72 689.831 218.86C689.971 218.997 690.041 219.163 690.041 219.357C690.041 219.487 690.007 219.607 689.941 219.716C689.877 219.822 689.792 219.908 689.685 219.972C689.579 220.036 689.461 220.067 689.33 220.067Z"
          fill="#1F2024"/>
    <g filter="url(#filter6_b_51_424)">
        <rect x="1" y="22" width="36" height="36" rx="18" fill="#1F2024" fill-opacity="0.05"/>
        <rect x="1" y="22" width="36" height="36" rx="18" stroke="#1F2024" stroke-width="1.5" stroke-linecap="round"
              stroke-linejoin="round"/>
    </g>
    <path d="M476.531 171.001H410C401.163 171.001 394 163.837 394 155.001V73.5859" stroke="#1F2024" stroke-width="1.5"
          stroke-linecap="round"/>
    <path d="M393.28 72.4525L390.153 77.4843C389.778 78.0871 390.134 78.8643 390.781 78.9842C390.894 79.0053 391.01 78.9799 391.119 78.9407L394 77.9021L396.881 78.9407C396.99 78.9799 397.106 79.0053 397.219 78.9842C397.857 78.8658 398.215 78.1075 397.86 77.5046L394.897 72.4728C394.531 71.8513 393.661 71.8404 393.28 72.4525Z"
          fill="#1F2024"/>
    <path d="M480.5 171C480.5 172.381 479.381 173.5 478 173.5C476.619 173.5 475.5 172.381 475.5 171C475.5 169.619 476.619 168.5 478 168.5C479.381 168.5 480.5 169.619 480.5 171Z"
          fill="white" stroke="#1F2024" stroke-width="3"/>
    <defs>
        <filter id="filter0_b_51_424" x="478.25" y="134.25" width="126.5" height="70.5" filterUnits="userSpaceOnUse"
                color-interpolation-filters="sRGB">
            <feFlood flood-opacity="0" result="BackgroundImageFix"/>
            <feGaussianBlur in="BackgroundImageFix" stdDeviation="7.5"/>
            <feComposite in2="SourceAlpha" operator="in" result="effect1_backgroundBlur_51_424"/>
            <feBlend mode="normal" in="SourceGraphic" in2="effect1_backgroundBlur_51_424" result="shape"/>
        </filter>
        <filter id="filter1_b_51_424" x="109.25" y="5.25" width="113.5" height="70.5" filterUnits="userSpaceOnUse"
                color-interpolation-filters="sRGB">
            <feFlood flood-opacity="0" result="BackgroundImageFix"/>
            <feGaussianBlur in="BackgroundImageFix" stdDeviation="7.5"/>
            <feComposite in2="SourceAlpha" operator="in" result="effect1_backgroundBlur_51_424"/>
            <feBlend mode="normal" in="SourceGraphic" in2="effect1_backgroundBlur_51_424" result="shape"/>
        </filter>
        <filter id="filter2_b_51_424" x="279.25" y="5.25" width="150.5" height="70.5" filterUnits="userSpaceOnUse"
                color-interpolation-filters="sRGB">
            <feFlood flood-opacity="0" result="BackgroundImageFix"/>
            <feGaussianBlur in="BackgroundImageFix" stdDeviation="7.5"/>
            <feComposite in2="SourceAlpha" operator="in" result="effect1_backgroundBlur_51_424"/>
            <feBlend mode="normal" in="SourceGraphic" in2="effect1_backgroundBlur_51_424" result="shape"/>
        </filter>
        <filter id="filter3_b_51_424" x="654.25" y="5.25" width="125.5" height="70.5" filterUnits="userSpaceOnUse"
                color-interpolation-filters="sRGB">
            <feFlood flood-opacity="0" result="BackgroundImageFix"/>
            <feGaussianBlur in="BackgroundImageFix" stdDeviation="7.5"/>
            <feComposite in2="SourceAlpha" operator="in" result="effect1_backgroundBlur_51_424"/>
            <feBlend mode="normal" in="SourceGraphic" in2="effect1_backgroundBlur_51_424" result="shape"/>
        </filter>
        <filter id="filter4_b_51_424" x="487" y="-15" width="110" height="110" filterUnits="userSpaceOnUse"
                color-interpolation-filters="sRGB">
            <feFlood flood-opacity="0" result="BackgroundImageFix"/>
            <feGaussianBlur in="BackgroundImageFix" stdDeviation="7.5"/>
            <feComposite in2="SourceAlpha" operator="in" result="effect1_backgroundBlur_51_424"/>
            <feBlend mode="normal" in="SourceGraphic" in2="effect1_backgroundBlur_51_424" result="shape"/>
        </filter>
        <filter id="filter5_b_51_424" x="662" y="115" width="110" height="110" filterUnits="userSpaceOnUse"
                color-interpolation-filters="sRGB">
            <feFlood flood-opacity="0" result="BackgroundImageFix"/>
            <feGaussianBlur in="BackgroundImageFix" stdDeviation="7.5"/>
            <feComposite in2="SourceAlpha" operator="in" result="effect1_backgroundBlur_51_424"/>
            <feBlend mode="normal" in="SourceGraphic" in2="effect1_backgroundBlur_51_424" result="shape"/>
        </filter>
        <filter id="filter6_b_51_424" x="-14.75" y="6.25" width="67.5" height="67.5" filterUnits="userSpaceOnUse"
                color-interpolation-filters="sRGB">
            <feFlood flood-opacity="0" result="BackgroundImageFix"/>
            <feGaussianBlur in="BackgroundImageFix" stdDeviation="7.5"/>
            <feComposite in2="SourceAlpha" operator="in" result="effect1_backgroundBlur_51_424"/>
            <feBlend mode="normal" in="SourceGraphic" in2="effect1_backgroundBlur_51_424" result="shape"/>
        </filter>
    </defs>
</svg>
