<svg width="456" height="194" viewBox="0 0 456 194" fill="none" xmlns="http://www.w3.org/2000/svg">
    <path d="M11.6652 95.4847C8.49786 95.4847 5.92015 92.9088 5.92015 89.7433C5.92015 86.5759 8.496 84 11.6652 84C14.8326 84 17.4085 86.5758 17.4085 89.7433C17.4067 92.9088 14.8309 95.4847 11.6652 95.4847ZM11.6652 84.9095C9.00056 84.9095 6.82969 87.0785 6.82969 89.7433C6.82969 92.4079 8.9987 94.5752 11.6652 94.5752C14.3299 94.5752 16.499 92.4061 16.499 89.7433C16.4972 87.0786 14.3299 84.9095 11.6652 84.9095Z" fill="black"/>
    <path d="M11.6652 84.9095C9.00057 84.9095 6.8297 87.0786 6.8297 89.7433C6.8297 92.4079 8.99871 94.5752 11.6652 94.5752C14.3299 94.5752 16.499 92.4062 16.499 89.7433C16.4972 87.0786 14.3299 84.9095 11.6652 84.9095Z" fill="white"/>
    <path d="M22.8853 108H22.8764H0.455886C0.329761 108 0.207182 107.947 0.121913 107.854C0.0366446 107.762 -0.00776769 107.636 0.00111847 107.51C0.46298 101.457 5.58612 96.718 11.665 96.718C17.712 96.718 22.8141 101.411 23.322 107.419C23.3327 107.46 23.3398 107.503 23.3398 107.545C23.3398 107.796 23.1375 108 22.8853 108ZM0.956826 107.09H22.3736C21.7181 101.745 17.1065 97.6271 11.6652 97.6271C6.22394 97.6271 1.61396 101.745 0.956826 107.09Z" fill="black"/>
    <path d="M0.956818 107.09H22.3736C21.7181 101.745 17.1065 97.6271 11.6652 97.6271C6.22393 97.6271 1.61396 101.745 0.956818 107.09Z" fill="white"/>
    <path d="M37.6652 95.4847C34.4979 95.4847 31.9202 92.9088 31.9202 89.7433C31.9202 86.5759 34.496 84 37.6652 84C40.8326 84 43.4085 86.5758 43.4085 89.7433C43.4067 92.9088 40.8309 95.4847 37.6652 95.4847ZM37.6652 84.9095C35.0006 84.9095 32.8297 87.0785 32.8297 89.7433C32.8297 92.4079 34.9987 94.5752 37.6652 94.5752C40.3299 94.5752 42.499 92.4061 42.499 89.7433C42.4972 87.0786 40.3299 84.9095 37.6652 84.9095Z" fill="black"/>
    <path d="M37.6652 84.9095C35.0006 84.9095 32.8297 87.0786 32.8297 89.7433C32.8297 92.4079 34.9987 94.5752 37.6652 94.5752C40.3299 94.5752 42.499 92.4062 42.499 89.7433C42.4972 87.0786 40.3299 84.9095 37.6652 84.9095Z" fill="white"/>
    <path d="M48.8853 108H48.8764H26.4559C26.3298 108 26.2072 107.947 26.1219 107.854C26.0366 107.762 25.9922 107.636 26.0011 107.51C26.463 101.457 31.5861 96.718 37.665 96.718C43.712 96.718 48.8141 101.411 49.322 107.419C49.3327 107.46 49.3398 107.503 49.3398 107.545C49.3398 107.796 49.1375 108 48.8853 108ZM26.9568 107.09H48.3736C47.7181 101.745 43.1065 97.6271 37.6652 97.6271C32.2239 97.6271 27.614 101.745 26.9568 107.09Z" fill="black"/>
    <path d="M26.9568 107.09H48.3736C47.7181 101.745 43.1065 97.6271 37.6652 97.6271C32.2239 97.6271 27.614 101.745 26.9568 107.09Z" fill="white"/>
    <path d="M24.6652 98.4847C21.4979 98.4847 18.9202 95.9088 18.9202 92.7433C18.9202 89.5759 21.496 87 24.6652 87C27.8326 87 30.4085 89.5758 30.4085 92.7433C30.4067 95.9088 27.8309 98.4847 24.6652 98.4847ZM24.6652 87.9095C22.0006 87.9095 19.8297 90.0785 19.8297 92.7433C19.8297 95.4079 21.9987 97.5752 24.6652 97.5752C27.3299 97.5752 29.499 95.4061 29.499 92.7433C29.4972 90.0786 27.3299 87.9095 24.6652 87.9095Z" fill="black"/>
    <path d="M24.6652 87.9095C22.0006 87.9095 19.8297 90.0786 19.8297 92.7433C19.8297 95.4079 21.9987 97.5752 24.6652 97.5752C27.3299 97.5752 29.499 95.4062 29.499 92.7433C29.4972 90.0786 27.3299 87.9095 24.6652 87.9095Z" fill="white"/>
    <path d="M35.8853 111H35.8764H13.4559C13.3298 111 13.2072 110.947 13.1219 110.854C13.0366 110.762 12.9922 110.636 13.0011 110.51C13.463 104.457 18.5861 99.718 24.665 99.718C30.712 99.718 35.8141 104.411 36.322 110.419C36.3327 110.46 36.3398 110.503 36.3398 110.545C36.3398 110.796 36.1375 111 35.8853 111ZM13.9568 110.09H35.3736C34.7181 104.745 30.1065 100.627 24.6652 100.627C19.2239 100.627 14.614 104.745 13.9568 110.09Z" fill="black"/>
    <path d="M13.9568 110.09H35.3736C34.7181 104.745 30.1065 100.627 24.6652 100.627C19.2239 100.627 14.614 104.745 13.9568 110.09Z" fill="white"/>
    <g filter="url(#filter0_b_51_424)">
        <rect x="107" y="55" width="128" height="84" rx="8" fill="#1F2024" fill-opacity="0.05"/>
        <rect x="107" y="55" width="128" height="84" rx="8" stroke="#1F2024" stroke-width="1.5"/>
        <path d="M131.415 78.2727H133.482L135.472 82.0312H135.557L137.547 78.2727H139.614L136.431 83.9148V87H134.598V83.9148L131.415 78.2727ZM142.174 87.1278C141.512 87.1278 140.94 86.9872 140.457 86.706C139.977 86.4219 139.606 86.027 139.344 85.5213C139.083 85.0128 138.952 84.4233 138.952 83.7528C138.952 83.0767 139.083 82.4858 139.344 81.9801C139.606 81.4716 139.977 81.0767 140.457 80.7955C140.94 80.5114 141.512 80.3693 142.174 80.3693C142.836 80.3693 143.407 80.5114 143.887 80.7955C144.37 81.0767 144.742 81.4716 145.004 81.9801C145.265 82.4858 145.396 83.0767 145.396 83.7528C145.396 84.4233 145.265 85.0128 145.004 85.5213C144.742 86.027 144.37 86.4219 143.887 86.706C143.407 86.9872 142.836 87.1278 142.174 87.1278ZM142.183 85.7216C142.484 85.7216 142.735 85.6364 142.937 85.4659C143.138 85.2926 143.29 85.0568 143.393 84.7585C143.498 84.4602 143.55 84.1207 143.55 83.7401C143.55 83.3594 143.498 83.0199 143.393 82.7216C143.29 82.4233 143.138 82.1875 142.937 82.0142C142.735 81.8409 142.484 81.7543 142.183 81.7543C141.879 81.7543 141.623 81.8409 141.415 82.0142C141.211 82.1875 141.056 82.4233 140.951 82.7216C140.849 83.0199 140.798 83.3594 140.798 83.7401C140.798 84.1207 140.849 84.4602 140.951 84.7585C141.056 85.0568 141.211 85.2926 141.415 85.4659C141.623 85.6364 141.879 85.7216 142.183 85.7216ZM150.773 84.2131V80.4545H152.589V87H150.846V85.8111H150.778C150.63 86.1946 150.384 86.5028 150.04 86.7358C149.7 86.9687 149.283 87.0852 148.792 87.0852C148.354 87.0852 147.969 86.9858 147.637 86.7869C147.305 86.5881 147.045 86.3054 146.857 85.9389C146.673 85.5724 146.579 85.1335 146.576 84.6222V80.4545H148.391V84.2983C148.394 84.6847 148.498 84.9901 148.702 85.2145C148.907 85.4389 149.181 85.5511 149.525 85.5511C149.744 85.5511 149.948 85.5014 150.138 85.402C150.329 85.2997 150.482 85.1491 150.599 84.9503C150.718 84.7514 150.776 84.5057 150.773 84.2131ZM154.041 87V80.4545H155.801V81.5966H155.869C155.988 81.1903 156.189 80.8835 156.47 80.6761C156.751 80.4659 157.075 80.3608 157.441 80.3608C157.532 80.3608 157.63 80.3665 157.735 80.3778C157.841 80.3892 157.933 80.4048 158.012 80.4247V82.0355C157.927 82.0099 157.809 81.9872 157.659 81.9673C157.508 81.9474 157.37 81.9375 157.245 81.9375C156.978 81.9375 156.74 81.9957 156.529 82.1122C156.322 82.2259 156.157 82.3849 156.035 82.5895C155.916 82.794 155.856 83.0298 155.856 83.2969V87H154.041ZM160.009 87H158.032L161.044 78.2727H163.422L166.431 87H164.453L162.267 80.267H162.199L160.009 87ZM159.885 83.5696H164.556V85.0099H159.885V83.5696ZM167.447 89.4545V80.4545H169.237V81.554H169.318C169.397 81.3778 169.512 81.1989 169.663 81.017C169.816 80.8324 170.015 80.679 170.26 80.5568C170.507 80.4318 170.814 80.3693 171.18 80.3693C171.657 80.3693 172.098 80.4943 172.501 80.7443C172.904 80.9915 173.227 81.3651 173.468 81.8651C173.71 82.3622 173.831 82.9858 173.831 83.7358C173.831 84.4659 173.713 85.0824 173.477 85.5852C173.244 86.0852 172.926 86.4645 172.522 86.723C172.122 86.9787 171.673 87.1065 171.176 87.1065C170.824 87.1065 170.524 87.0483 170.277 86.9318C170.032 86.8153 169.832 86.669 169.676 86.4929C169.52 86.3139 169.4 86.1335 169.318 85.9517H169.262V89.4545H167.447ZM169.224 83.7273C169.224 84.1165 169.278 84.456 169.386 84.7457C169.494 85.0355 169.65 85.2614 169.855 85.4233C170.059 85.5824 170.308 85.6619 170.6 85.6619C170.896 85.6619 171.146 85.581 171.35 85.419C171.555 85.2543 171.71 85.027 171.815 84.7372C171.923 84.4446 171.977 84.108 171.977 83.7273C171.977 83.3494 171.924 83.017 171.819 82.7301C171.714 82.4432 171.559 82.2187 171.355 82.0568C171.15 81.8949 170.899 81.8139 170.6 81.8139C170.305 81.8139 170.055 81.892 169.85 82.0483C169.649 82.2045 169.494 82.4261 169.386 82.7131C169.278 83 169.224 83.3381 169.224 83.7273ZM175.041 89.4545V80.4545H176.831V81.554H176.912C176.991 81.3778 177.106 81.1989 177.257 81.017C177.41 80.8324 177.609 80.679 177.853 80.5568C178.1 80.4318 178.407 80.3693 178.774 80.3693C179.251 80.3693 179.691 80.4943 180.095 80.7443C180.498 80.9915 180.821 81.3651 181.062 81.8651C181.304 82.3622 181.424 82.9858 181.424 83.7358C181.424 84.4659 181.306 85.0824 181.071 85.5852C180.838 86.0852 180.52 86.4645 180.116 86.723C179.716 86.9787 179.267 87.1065 178.77 87.1065C178.417 87.1065 178.118 87.0483 177.87 86.9318C177.626 86.8153 177.426 86.669 177.27 86.4929C177.113 86.3139 176.994 86.1335 176.912 85.9517H176.856V89.4545H175.041ZM176.818 83.7273C176.818 84.1165 176.872 84.456 176.98 84.7457C177.088 85.0355 177.244 85.2614 177.449 85.4233C177.653 85.5824 177.902 85.6619 178.194 85.6619C178.49 85.6619 178.74 85.581 178.944 85.419C179.149 85.2543 179.304 85.027 179.409 84.7372C179.517 84.4446 179.571 84.108 179.571 83.7273C179.571 83.3494 179.518 83.017 179.413 82.7301C179.308 82.4432 179.153 82.2187 178.949 82.0568C178.744 81.8949 178.493 81.8139 178.194 81.8139C177.899 81.8139 177.649 81.892 177.444 82.0483C177.243 82.2045 177.088 82.4261 176.98 82.7131C176.872 83 176.818 83.3381 176.818 83.7273ZM183.696 87.1108C183.414 87.1108 183.173 87.0114 182.971 86.8125C182.772 86.6108 182.673 86.3693 182.673 86.0881C182.673 85.8097 182.772 85.571 182.971 85.3722C183.173 85.1733 183.414 85.0739 183.696 85.0739C183.968 85.0739 184.207 85.1733 184.412 85.3722C184.616 85.571 184.718 85.8097 184.718 86.0881C184.718 86.2756 184.67 86.4474 184.574 86.6037C184.48 86.7571 184.356 86.8807 184.203 86.9744C184.049 87.0653 183.88 87.1108 183.696 87.1108ZM189.166 87.1278C188.496 87.1278 187.919 86.9858 187.436 86.7017C186.956 86.4148 186.587 86.017 186.328 85.5085C186.072 85 185.945 84.4148 185.945 83.7528C185.945 83.0824 186.074 82.4943 186.332 81.9886C186.594 81.4801 186.964 81.0838 187.445 80.7997C187.925 80.5128 188.496 80.3693 189.158 80.3693C189.729 80.3693 190.229 80.473 190.658 80.6804C191.087 80.8878 191.426 81.179 191.676 81.554C191.926 81.929 192.064 82.3693 192.089 82.875H190.376C190.328 82.5483 190.2 82.2855 189.993 82.0866C189.788 81.8849 189.52 81.7841 189.188 81.7841C188.906 81.7841 188.661 81.8608 188.45 82.0142C188.243 82.1648 188.081 82.3849 187.964 82.6747C187.848 82.9645 187.79 83.3153 187.79 83.7273C187.79 84.1449 187.847 84.5 187.96 84.7926C188.077 85.0852 188.24 85.3082 188.45 85.4616C188.661 85.6151 188.906 85.6918 189.188 85.6918C189.395 85.6918 189.581 85.6491 189.746 85.5639C189.913 85.4787 190.051 85.3551 190.159 85.1932C190.27 85.0284 190.342 84.831 190.376 84.6009H192.089C192.061 85.1009 191.925 85.5412 191.68 85.9219C191.439 86.2997 191.105 86.5952 190.679 86.8082C190.253 87.0213 189.749 87.1278 189.166 87.1278ZM196.209 87.1278C195.547 87.1278 194.975 86.9872 194.492 86.706C194.012 86.4219 193.641 86.027 193.38 85.5213C193.118 85.0128 192.988 84.4233 192.988 83.7528C192.988 83.0767 193.118 82.4858 193.38 81.9801C193.641 81.4716 194.012 81.0767 194.492 80.7955C194.975 80.5114 195.547 80.3693 196.209 80.3693C196.871 80.3693 197.442 80.5114 197.922 80.7955C198.405 81.0767 198.777 81.4716 199.039 81.9801C199.3 82.4858 199.431 83.0767 199.431 83.7528C199.431 84.4233 199.3 85.0128 199.039 85.5213C198.777 86.027 198.405 86.4219 197.922 86.706C197.442 86.9872 196.871 87.1278 196.209 87.1278ZM196.218 85.7216C196.519 85.7216 196.77 85.6364 196.972 85.4659C197.174 85.2926 197.326 85.0568 197.428 84.7585C197.533 84.4602 197.586 84.1207 197.586 83.7401C197.586 83.3594 197.533 83.0199 197.428 82.7216C197.326 82.4233 197.174 82.1875 196.972 82.0142C196.77 81.8409 196.519 81.7543 196.218 81.7543C195.914 81.7543 195.658 81.8409 195.451 82.0142C195.246 82.1875 195.091 82.4233 194.986 82.7216C194.884 83.0199 194.833 83.3594 194.833 83.7401C194.833 84.1207 194.884 84.4602 194.986 84.7585C195.091 85.0568 195.246 85.2926 195.451 85.4659C195.658 85.6364 195.914 85.7216 196.218 85.7216ZM200.611 87V80.4545H202.341V81.6094H202.418C202.554 81.2259 202.782 80.9233 203.1 80.7017C203.418 80.4801 203.799 80.3693 204.242 80.3693C204.691 80.3693 205.073 80.4815 205.388 80.706C205.703 80.9276 205.914 81.2287 206.019 81.6094H206.087C206.221 81.2344 206.462 80.9347 206.811 80.7102C207.164 80.483 207.58 80.3693 208.06 80.3693C208.671 80.3693 209.167 80.5639 209.547 80.9531C209.931 81.3395 210.123 81.8878 210.123 82.598V87H208.311V82.956C208.311 82.5923 208.215 82.3196 208.022 82.1378C207.828 81.956 207.587 81.8651 207.297 81.8651C206.968 81.8651 206.711 81.9702 206.526 82.1804C206.341 82.3878 206.249 82.6619 206.249 83.0028V87H204.489V82.9176C204.489 82.5966 204.397 82.3409 204.212 82.1506C204.03 81.9602 203.79 81.8651 203.492 81.8651C203.29 81.8651 203.108 81.9162 202.946 82.0185C202.787 82.1179 202.661 82.2585 202.567 82.4403C202.473 82.6193 202.426 82.8295 202.426 83.071V87H200.611Z" fill="#1F2024"/>
        <path d="M155 55H187V57C187 59.2091 185.209 61 183 61H159C156.791 61 155 59.2091 155 57V55Z" fill="#1F2024"/>
        <path d="M161 135H181" stroke="#1F2024" stroke-width="1.5" stroke-linecap="round"/>
    </g>
    <g filter="url(#filter1_b_51_424)">
        <rect x="216" y="62" width="71" height="71" rx="8" fill="#1F2024" fill-opacity="0.05"/>
        <rect x="216" y="62" width="71" height="71" rx="8" stroke="#1F2024" stroke-width="1.5" stroke-linecap="round" stroke-linejoin="round"/>
        <path d="M235.471 94.5V85.7727H237.317V89.3736H241.062V85.7727H242.903V94.5H241.062V90.8949H237.317V94.5H235.471ZM245.929 94.5H243.952L246.964 85.7727H249.342L252.351 94.5H250.373L248.187 87.767H248.119L245.929 94.5ZM245.805 91.0696H250.476V92.5099H245.805V91.0696ZM253.401 94.5V85.7727H256.844C257.503 85.7727 258.066 85.8906 258.532 86.1264C259.001 86.3594 259.357 86.6903 259.601 87.1193C259.849 87.5455 259.972 88.0469 259.972 88.6236C259.972 89.2031 259.847 89.7017 259.597 90.1193C259.347 90.5341 258.985 90.8523 258.51 91.0739C258.039 91.2955 257.468 91.4062 256.797 91.4062H254.492V89.9233H256.499C256.851 89.9233 257.144 89.875 257.377 89.7784C257.61 89.6818 257.783 89.5369 257.897 89.3438C258.013 89.1506 258.072 88.9105 258.072 88.6236C258.072 88.3338 258.013 88.0895 257.897 87.8906C257.783 87.6918 257.608 87.5412 257.373 87.4389C257.14 87.3338 256.846 87.2812 256.491 87.2812H255.246V94.5H253.401ZM258.114 90.5284L260.283 94.5H258.246L256.124 90.5284H258.114ZM261.276 94.5V85.7727H264.719C265.381 85.7727 265.945 85.8991 266.411 86.152C266.877 86.402 267.232 86.75 267.476 87.196C267.724 87.6392 267.847 88.1506 267.847 88.7301C267.847 89.3097 267.722 89.821 267.472 90.2642C267.222 90.7074 266.86 91.0526 266.385 91.2997C265.914 91.5469 265.343 91.6705 264.672 91.6705H262.478V90.1918H264.374C264.729 90.1918 265.022 90.1307 265.252 90.0085C265.485 89.8835 265.658 89.7116 265.772 89.4929C265.888 89.2713 265.947 89.017 265.947 88.7301C265.947 88.4403 265.888 88.1875 265.772 87.9716C265.658 87.7528 265.485 87.5838 265.252 87.4645C265.019 87.3423 264.724 87.2812 264.366 87.2812H263.121V94.5H261.276ZM235.548 109.5V100.773H238.991C239.653 100.773 240.217 100.899 240.683 101.152C241.148 101.402 241.504 101.75 241.748 102.196C241.995 102.639 242.119 103.151 242.119 103.73C242.119 104.31 241.994 104.821 241.744 105.264C241.494 105.707 241.131 106.053 240.657 106.3C240.185 106.547 239.614 106.67 238.944 106.67H236.749V105.192H238.646C239.001 105.192 239.293 105.131 239.523 105.009C239.756 104.884 239.93 104.712 240.043 104.493C240.16 104.271 240.218 104.017 240.218 103.73C240.218 103.44 240.16 103.187 240.043 102.972C239.93 102.753 239.756 102.584 239.523 102.464C239.29 102.342 238.995 102.281 238.637 102.281H237.393V109.5H235.548ZM243.283 109.5V102.955H245.043V104.097H245.111C245.23 103.69 245.431 103.384 245.712 103.176C245.993 102.966 246.317 102.861 246.684 102.861C246.775 102.861 246.873 102.866 246.978 102.878C247.083 102.889 247.175 102.905 247.255 102.925V104.536C247.169 104.51 247.051 104.487 246.901 104.467C246.75 104.447 246.613 104.438 246.488 104.438C246.221 104.438 245.982 104.496 245.772 104.612C245.564 104.726 245.4 104.885 245.277 105.089C245.158 105.294 245.098 105.53 245.098 105.797V109.5H243.283ZM250.846 109.628C250.184 109.628 249.612 109.487 249.129 109.206C248.648 108.922 248.278 108.527 248.016 108.021C247.755 107.513 247.624 106.923 247.624 106.253C247.624 105.577 247.755 104.986 248.016 104.48C248.278 103.972 248.648 103.577 249.129 103.295C249.612 103.011 250.184 102.869 250.846 102.869C251.508 102.869 252.079 103.011 252.559 103.295C253.042 103.577 253.414 103.972 253.675 104.48C253.937 104.986 254.067 105.577 254.067 106.253C254.067 106.923 253.937 107.513 253.675 108.021C253.414 108.527 253.042 108.922 252.559 109.206C252.079 109.487 251.508 109.628 250.846 109.628ZM250.854 108.222C251.156 108.222 251.407 108.136 251.609 107.966C251.81 107.793 251.962 107.557 252.065 107.259C252.17 106.96 252.222 106.621 252.222 106.24C252.222 105.859 252.17 105.52 252.065 105.222C251.962 104.923 251.81 104.687 251.609 104.514C251.407 104.341 251.156 104.254 250.854 104.254C250.55 104.254 250.295 104.341 250.087 104.514C249.883 104.687 249.728 104.923 249.623 105.222C249.521 105.52 249.469 105.859 249.469 106.24C249.469 106.621 249.521 106.96 249.623 107.259C249.728 107.557 249.883 107.793 250.087 107.966C250.295 108.136 250.55 108.222 250.854 108.222ZM256.531 102.955L257.732 105.243L258.964 102.955H260.826L258.93 106.227L260.877 109.5H259.023L257.732 107.237L256.462 109.5H254.587L256.531 106.227L254.656 102.955H256.531ZM263.025 111.955C262.795 111.955 262.579 111.936 262.377 111.899C262.178 111.865 262.013 111.821 261.883 111.767L262.292 110.412C262.505 110.477 262.697 110.513 262.867 110.518C263.04 110.524 263.19 110.484 263.315 110.399C263.442 110.314 263.546 110.169 263.626 109.964L263.732 109.688L261.384 102.955H263.293L264.648 107.761H264.717L266.085 102.955H268.006L265.462 110.207C265.34 110.56 265.174 110.866 264.964 111.128C264.756 111.392 264.494 111.595 264.175 111.737C263.857 111.882 263.474 111.955 263.025 111.955Z" fill="#1F2024"/>
    </g>
    <g filter="url(#filter2_b_51_424)">
        <rect x="342" y="1" width="71" height="39" rx="8" fill="#1F2024" fill-opacity="0.05"/>
        <rect x="342" y="1" width="71" height="39" rx="8" stroke="#1F2024" stroke-width="1.5" stroke-linecap="round" stroke-linejoin="round"/>
        <path d="M366.762 25V16.2727H372.643V17.794H368.608V19.8736H372.341V21.3949H368.608V23.4787H372.66V25H366.762ZM374.11 25V16.2727H377.553C378.212 16.2727 378.775 16.3906 379.241 16.6264C379.71 16.8594 380.066 17.1903 380.31 17.6193C380.558 18.0455 380.681 18.5469 380.681 19.1236C380.681 19.7031 380.556 20.2017 380.306 20.6193C380.056 21.0341 379.694 21.3523 379.219 21.5739C378.748 21.7955 378.177 21.9062 377.506 21.9062H375.201V20.4233H377.208C377.56 20.4233 377.853 20.375 378.086 20.2784C378.319 20.1818 378.492 20.0369 378.606 19.8438C378.722 19.6506 378.781 19.4105 378.781 19.1236C378.781 18.8338 378.722 18.5895 378.606 18.3906C378.492 18.1918 378.317 18.0412 378.082 17.9389C377.849 17.8338 377.555 17.7812 377.2 17.7812H375.955V25H374.11ZM378.823 21.0284L380.992 25H378.955L376.833 21.0284H378.823ZM381.985 25V16.2727H385.428C386.09 16.2727 386.654 16.3991 387.12 16.652C387.586 16.902 387.941 17.25 388.185 17.696C388.433 18.1392 388.556 18.6506 388.556 19.2301C388.556 19.8097 388.431 20.321 388.181 20.7642C387.931 21.2074 387.569 21.5526 387.094 21.7997C386.623 22.0469 386.052 22.1705 385.381 22.1705H383.187V20.6918H385.083C385.438 20.6918 385.731 20.6307 385.961 20.5085C386.194 20.3835 386.367 20.2116 386.481 19.9929C386.597 19.7713 386.656 19.517 386.656 19.2301C386.656 18.9403 386.597 18.6875 386.481 18.4716C386.367 18.2528 386.194 18.0838 385.961 17.9645C385.728 17.8423 385.433 17.7812 385.075 17.7812H383.83V25H381.985Z" fill="#1F2024"/>
    </g>
    <g filter="url(#filter3_b_51_424)">
        <rect x="342" y="52" width="107" height="39" rx="8" fill="#1F2024" fill-opacity="0.05"/>
        <rect x="342" y="52" width="107" height="39" rx="8" stroke="#1F2024" stroke-width="1.5" stroke-linecap="round" stroke-linejoin="round"/>
        <path d="M367.132 76V67.2727H370.575C371.237 67.2727 371.801 67.3991 372.267 67.652C372.732 67.902 373.088 68.25 373.332 68.696C373.579 69.1392 373.703 69.6506 373.703 70.2301C373.703 70.8097 373.578 71.321 373.328 71.7642C373.078 72.2074 372.715 72.5526 372.241 72.7997C371.769 73.0469 371.198 73.1705 370.528 73.1705H368.333V71.6918H370.23C370.585 71.6918 370.877 71.6307 371.107 71.5085C371.34 71.3835 371.514 71.2116 371.627 70.9929C371.744 70.7713 371.802 70.517 371.802 70.2301C371.802 69.9403 371.744 69.6875 371.627 69.4716C371.514 69.2528 371.34 69.0838 371.107 68.9645C370.874 68.8423 370.579 68.7812 370.221 68.7812H368.977V76H367.132ZM376.558 76.1236C376.14 76.1236 375.768 76.0511 375.441 75.9062C375.115 75.7585 374.856 75.5412 374.666 75.2543C374.478 74.9645 374.384 74.6037 374.384 74.1719C374.384 73.8082 374.451 73.5028 374.585 73.2557C374.718 73.0085 374.9 72.8097 375.13 72.6591C375.36 72.5085 375.622 72.3949 375.914 72.3182C376.21 72.2415 376.519 72.1875 376.843 72.1562C377.224 72.1165 377.531 72.0795 377.764 72.0455C377.997 72.0085 378.166 71.9545 378.271 71.8835C378.376 71.8125 378.428 71.7074 378.428 71.5682V71.5426C378.428 71.2727 378.343 71.0639 378.173 70.9162C378.005 70.7685 377.767 70.6946 377.457 70.6946C377.13 70.6946 376.87 70.767 376.677 70.9119C376.484 71.054 376.356 71.233 376.294 71.4489L374.615 71.3125C374.7 70.9148 374.867 70.571 375.117 70.2812C375.367 69.9886 375.69 69.7642 376.085 69.608C376.482 69.4489 376.943 69.3693 377.465 69.3693C377.829 69.3693 378.177 69.4119 378.509 69.4972C378.845 69.5824 379.142 69.7145 379.4 69.8935C379.661 70.0724 379.867 70.3026 380.018 70.5838C380.169 70.8622 380.244 71.196 380.244 71.5852V76H378.522V75.0923H378.471C378.366 75.2969 378.225 75.4773 378.049 75.6335C377.873 75.7869 377.661 75.9077 377.414 75.9957C377.167 76.081 376.882 76.1236 376.558 76.1236ZM377.078 74.8707C377.345 74.8707 377.58 74.8182 377.785 74.7131C377.99 74.6051 378.15 74.4602 378.267 74.2784C378.383 74.0966 378.441 73.8906 378.441 73.6605V72.9659C378.384 73.0028 378.306 73.0369 378.207 73.0682C378.11 73.0966 378.001 73.1236 377.879 73.1491C377.757 73.1719 377.634 73.1932 377.512 73.2131C377.39 73.2301 377.279 73.2457 377.18 73.2599C376.967 73.2912 376.781 73.3409 376.622 73.4091C376.463 73.4773 376.339 73.5696 376.251 73.6861C376.163 73.7997 376.119 73.9418 376.119 74.1122C376.119 74.3594 376.208 74.5483 376.387 74.679C376.569 74.8068 376.799 74.8707 377.078 74.8707ZM382.539 78.4545C382.308 78.4545 382.093 78.4361 381.891 78.3991C381.692 78.3651 381.527 78.321 381.396 78.267L381.806 76.9119C382.019 76.9773 382.21 77.0128 382.381 77.0185C382.554 77.0241 382.703 76.9844 382.828 76.8991C382.956 76.8139 383.06 76.669 383.139 76.4645L383.246 76.1875L380.898 69.4545H382.807L384.162 74.2614H384.23L385.598 69.4545H387.52L384.976 76.7074C384.854 77.0597 384.688 77.3665 384.477 77.6278C384.27 77.892 384.007 78.0952 383.689 78.2372C383.371 78.3821 382.987 78.4545 382.539 78.4545ZM388.449 76V69.4545H390.179V70.6094H390.256C390.392 70.2259 390.619 69.9233 390.938 69.7017C391.256 69.4801 391.637 69.3693 392.08 69.3693C392.529 69.3693 392.911 69.4815 393.226 69.706C393.541 69.9276 393.752 70.2287 393.857 70.6094H393.925C394.058 70.2344 394.3 69.9347 394.649 69.7102C395.002 69.483 395.418 69.3693 395.898 69.3693C396.509 69.3693 397.004 69.5639 397.385 69.9531C397.769 70.3395 397.96 70.8878 397.96 71.598V76H396.149V71.956C396.149 71.5923 396.053 71.3196 395.86 71.1378C395.666 70.956 395.425 70.8651 395.135 70.8651C394.806 70.8651 394.548 70.9702 394.364 71.1804C394.179 71.3878 394.087 71.6619 394.087 72.0028V76H392.327V71.9176C392.327 71.5966 392.235 71.3409 392.05 71.1506C391.868 70.9602 391.628 70.8651 391.33 70.8651C391.128 70.8651 390.946 70.9162 390.784 71.0185C390.625 71.1179 390.499 71.2585 390.405 71.4403C390.311 71.6193 390.264 71.8295 390.264 72.071V76H388.449ZM402.377 76.1278C401.704 76.1278 401.124 75.9915 400.639 75.7188C400.156 75.4432 399.784 75.054 399.522 74.5511C399.261 74.0455 399.13 73.4474 399.13 72.7571C399.13 72.0838 399.261 71.4929 399.522 70.9844C399.784 70.4759 400.151 70.0795 400.626 69.7955C401.103 69.5114 401.663 69.3693 402.305 69.3693C402.737 69.3693 403.139 69.4389 403.511 69.5781C403.886 69.7145 404.213 69.9205 404.491 70.196C404.772 70.4716 404.991 70.8182 405.147 71.2358C405.303 71.6506 405.382 72.1364 405.382 72.6932V73.1918H399.855V72.0668H403.673C403.673 71.8054 403.616 71.5739 403.502 71.3722C403.389 71.1705 403.231 71.0128 403.029 70.8991C402.83 70.7827 402.599 70.7244 402.335 70.7244C402.059 70.7244 401.815 70.7884 401.602 70.9162C401.392 71.0412 401.227 71.2102 401.107 71.4233C400.988 71.6335 400.927 71.8679 400.924 72.1264V73.196C400.924 73.5199 400.984 73.7997 401.103 74.0355C401.225 74.2713 401.397 74.4531 401.619 74.581C401.84 74.7088 402.103 74.7727 402.407 74.7727C402.609 74.7727 402.794 74.7443 402.961 74.6875C403.129 74.6307 403.272 74.5455 403.392 74.4318C403.511 74.3182 403.602 74.179 403.664 74.0142L405.343 74.125C405.258 74.5284 405.083 74.8807 404.819 75.1818C404.558 75.4801 404.22 75.7131 403.805 75.8807C403.393 76.0455 402.917 76.1278 402.377 76.1278ZM408.382 72.2159V76H406.566V69.4545H408.296V70.6094H408.373C408.518 70.2287 408.761 69.9276 409.102 69.706C409.443 69.4815 409.856 69.3693 410.342 69.3693C410.796 69.3693 411.193 69.4688 411.531 69.6676C411.869 69.8665 412.132 70.1506 412.319 70.5199C412.507 70.8864 412.6 71.3239 412.6 71.8324V76H410.785V72.1562C410.788 71.7557 410.686 71.4432 410.478 71.2188C410.271 70.9915 409.985 70.8778 409.622 70.8778C409.377 70.8778 409.161 70.9304 408.974 71.0355C408.789 71.1406 408.644 71.294 408.539 71.4957C408.437 71.6946 408.384 71.9347 408.382 72.2159ZM417.513 69.4545V70.8182H413.571V69.4545H417.513ZM414.466 67.8864H416.281V73.9886C416.281 74.1562 416.307 74.2869 416.358 74.3807C416.409 74.4716 416.48 74.5355 416.571 74.5724C416.665 74.6094 416.773 74.6278 416.895 74.6278C416.98 74.6278 417.065 74.6207 417.15 74.6065C417.236 74.5895 417.301 74.5767 417.346 74.5682L417.632 75.919C417.541 75.9474 417.413 75.9801 417.248 76.017C417.084 76.0568 416.883 76.081 416.648 76.0895C416.21 76.1065 415.827 76.0483 415.497 75.9148C415.17 75.7812 414.916 75.5739 414.734 75.2926C414.552 75.0114 414.463 74.6562 414.466 74.2273V67.8864ZM424.059 71.321L422.397 71.4233C422.369 71.2812 422.308 71.1534 422.214 71.0398C422.12 70.9233 421.997 70.831 421.843 70.7628C421.693 70.6918 421.512 70.6562 421.302 70.6562C421.021 70.6562 420.784 70.7159 420.59 70.8352C420.397 70.9517 420.301 71.108 420.301 71.304C420.301 71.4602 420.363 71.5923 420.488 71.7003C420.613 71.8082 420.828 71.8949 421.132 71.9602L422.316 72.1989C422.953 72.3295 423.427 72.5398 423.74 72.8295C424.052 73.1193 424.208 73.5 424.208 73.9716C424.208 74.4006 424.082 74.777 423.829 75.1009C423.579 75.4247 423.235 75.6776 422.798 75.8594C422.363 76.0384 421.862 76.1278 421.294 76.1278C420.427 76.1278 419.737 75.9474 419.222 75.5866C418.711 75.223 418.411 74.7287 418.323 74.1037L420.109 74.0099C420.163 74.2741 420.294 74.4759 420.501 74.6151C420.708 74.7514 420.974 74.8196 421.298 74.8196C421.616 74.8196 421.872 74.7585 422.065 74.6364C422.261 74.5114 422.36 74.3509 422.363 74.1548C422.36 73.9901 422.291 73.8551 422.154 73.75C422.018 73.642 421.808 73.5597 421.524 73.5028L420.39 73.277C419.751 73.1491 419.275 72.9276 418.963 72.6122C418.653 72.2969 418.498 71.8949 418.498 71.4062C418.498 70.9858 418.612 70.6236 418.839 70.3196C419.069 70.0156 419.392 69.7812 419.806 69.6165C420.224 69.4517 420.713 69.3693 421.272 69.3693C422.099 69.3693 422.749 69.544 423.224 69.8935C423.701 70.2429 423.98 70.7187 424.059 71.321Z" fill="#1F2024"/>
    </g>
    <g filter="url(#filter4_b_51_424)">
        <rect x="342" y="103" width="113" height="39" rx="8" fill="#1F2024" fill-opacity="0.05"/>
        <rect x="342" y="103" width="113" height="39" rx="8" stroke="#1F2024" stroke-width="1.5" stroke-linecap="round" stroke-linejoin="round"/>
        <path d="M373.036 121.094C372.976 120.886 372.892 120.703 372.784 120.544C372.676 120.382 372.544 120.246 372.388 120.135C372.235 120.021 372.058 119.935 371.86 119.875C371.664 119.815 371.446 119.786 371.208 119.786C370.762 119.786 370.369 119.896 370.031 120.118C369.696 120.339 369.435 120.662 369.247 121.085C369.06 121.506 368.966 122.02 368.966 122.628C368.966 123.236 369.058 123.753 369.243 124.179C369.428 124.605 369.689 124.93 370.027 125.155C370.365 125.376 370.764 125.487 371.225 125.487C371.642 125.487 371.999 125.413 372.294 125.266C372.593 125.115 372.82 124.903 372.976 124.631C373.135 124.358 373.215 124.036 373.215 123.663L373.59 123.719H371.34V122.33H374.992V123.429C374.992 124.196 374.83 124.855 374.506 125.406C374.182 125.955 373.736 126.378 373.168 126.676C372.6 126.972 371.949 127.119 371.216 127.119C370.398 127.119 369.679 126.939 369.06 126.578C368.441 126.214 367.958 125.699 367.611 125.031C367.267 124.361 367.095 123.565 367.095 122.645C367.095 121.937 367.198 121.307 367.402 120.753C367.61 120.196 367.899 119.724 368.271 119.338C368.644 118.952 369.077 118.658 369.571 118.456C370.066 118.254 370.601 118.153 371.178 118.153C371.672 118.153 372.132 118.226 372.558 118.371C372.985 118.513 373.362 118.714 373.692 118.976C374.024 119.237 374.296 119.548 374.506 119.909C374.716 120.267 374.851 120.662 374.911 121.094H373.036ZM379.327 127.128C378.653 127.128 378.074 126.991 377.588 126.719C377.105 126.443 376.733 126.054 376.471 125.551C376.21 125.045 376.079 124.447 376.079 123.757C376.079 123.084 376.21 122.493 376.471 121.984C376.733 121.476 377.101 121.08 377.575 120.795C378.052 120.511 378.612 120.369 379.254 120.369C379.686 120.369 380.088 120.439 380.46 120.578C380.835 120.714 381.162 120.92 381.44 121.196C381.721 121.472 381.94 121.818 382.096 122.236C382.253 122.651 382.331 123.136 382.331 123.693V124.192H376.804V123.067H380.622C380.622 122.805 380.565 122.574 380.452 122.372C380.338 122.17 380.18 122.013 379.979 121.899C379.78 121.783 379.548 121.724 379.284 121.724C379.008 121.724 378.764 121.788 378.551 121.916C378.341 122.041 378.176 122.21 378.057 122.423C377.937 122.634 377.876 122.868 377.873 123.126V124.196C377.873 124.52 377.933 124.8 378.052 125.036C378.175 125.271 378.346 125.453 378.568 125.581C378.79 125.709 379.052 125.773 379.356 125.773C379.558 125.773 379.743 125.744 379.91 125.688C380.078 125.631 380.221 125.545 380.341 125.432C380.46 125.318 380.551 125.179 380.613 125.014L382.292 125.125C382.207 125.528 382.032 125.881 381.768 126.182C381.507 126.48 381.169 126.713 380.754 126.881C380.342 127.045 379.866 127.128 379.327 127.128ZM386.473 127.128C385.811 127.128 385.238 126.987 384.756 126.706C384.275 126.422 383.905 126.027 383.643 125.521C383.382 125.013 383.251 124.423 383.251 123.753C383.251 123.077 383.382 122.486 383.643 121.98C383.905 121.472 384.275 121.077 384.756 120.795C385.238 120.511 385.811 120.369 386.473 120.369C387.135 120.369 387.706 120.511 388.186 120.795C388.669 121.077 389.041 121.472 389.302 121.98C389.564 122.486 389.694 123.077 389.694 123.753C389.694 124.423 389.564 125.013 389.302 125.521C389.041 126.027 388.669 126.422 388.186 126.706C387.706 126.987 387.135 127.128 386.473 127.128ZM386.481 125.722C386.782 125.722 387.034 125.636 387.236 125.466C387.437 125.293 387.589 125.057 387.692 124.759C387.797 124.46 387.849 124.121 387.849 123.74C387.849 123.359 387.797 123.02 387.692 122.722C387.589 122.423 387.437 122.187 387.236 122.014C387.034 121.841 386.782 121.754 386.481 121.754C386.177 121.754 385.922 121.841 385.714 122.014C385.51 122.187 385.355 122.423 385.25 122.722C385.148 123.02 385.096 123.359 385.096 123.74C385.096 124.121 385.148 124.46 385.25 124.759C385.355 125.057 385.51 125.293 385.714 125.466C385.922 125.636 386.177 125.722 386.481 125.722ZM393.832 127.128C393.162 127.128 392.585 126.986 392.102 126.702C391.622 126.415 391.253 126.017 390.994 125.509C390.738 125 390.611 124.415 390.611 123.753C390.611 123.082 390.74 122.494 390.998 121.989C391.26 121.48 391.631 121.084 392.111 120.8C392.591 120.513 393.162 120.369 393.824 120.369C394.395 120.369 394.895 120.473 395.324 120.68C395.753 120.888 396.092 121.179 396.342 121.554C396.592 121.929 396.73 122.369 396.756 122.875H395.042C394.994 122.548 394.866 122.286 394.659 122.087C394.454 121.885 394.186 121.784 393.854 121.784C393.572 121.784 393.327 121.861 393.116 122.014C392.909 122.165 392.747 122.385 392.631 122.675C392.514 122.964 392.456 123.315 392.456 123.727C392.456 124.145 392.513 124.5 392.626 124.793C392.743 125.085 392.906 125.308 393.116 125.462C393.327 125.615 393.572 125.692 393.854 125.692C394.061 125.692 394.247 125.649 394.412 125.564C394.579 125.479 394.717 125.355 394.825 125.193C394.936 125.028 395.008 124.831 395.042 124.601H396.756C396.727 125.101 396.591 125.541 396.346 125.922C396.105 126.3 395.771 126.595 395.345 126.808C394.919 127.021 394.415 127.128 393.832 127.128ZM400.875 127.128C400.213 127.128 399.641 126.987 399.158 126.706C398.678 126.422 398.307 126.027 398.046 125.521C397.784 125.013 397.654 124.423 397.654 123.753C397.654 123.077 397.784 122.486 398.046 121.98C398.307 121.472 398.678 121.077 399.158 120.795C399.641 120.511 400.213 120.369 400.875 120.369C401.537 120.369 402.108 120.511 402.588 120.795C403.071 121.077 403.443 121.472 403.705 121.98C403.966 122.486 404.097 123.077 404.097 123.753C404.097 124.423 403.966 125.013 403.705 125.521C403.443 126.027 403.071 126.422 402.588 126.706C402.108 126.987 401.537 127.128 400.875 127.128ZM400.884 125.722C401.185 125.722 401.436 125.636 401.638 125.466C401.84 125.293 401.992 125.057 402.094 124.759C402.199 124.46 402.252 124.121 402.252 123.74C402.252 123.359 402.199 123.02 402.094 122.722C401.992 122.423 401.84 122.187 401.638 122.014C401.436 121.841 401.185 121.754 400.884 121.754C400.58 121.754 400.324 121.841 400.117 122.014C399.912 122.187 399.757 122.423 399.652 122.722C399.55 123.02 399.499 123.359 399.499 123.74C399.499 124.121 399.55 124.46 399.652 124.759C399.757 125.057 399.912 125.293 400.117 125.466C400.324 125.636 400.58 125.722 400.884 125.722ZM407.689 127.107C407.192 127.107 406.742 126.979 406.338 126.723C405.938 126.464 405.619 126.085 405.384 125.585C405.151 125.082 405.034 124.466 405.034 123.736C405.034 122.986 405.155 122.362 405.396 121.865C405.638 121.365 405.959 120.991 406.36 120.744C406.763 120.494 407.205 120.369 407.685 120.369C408.051 120.369 408.357 120.432 408.601 120.557C408.848 120.679 409.047 120.832 409.198 121.017C409.351 121.199 409.468 121.378 409.547 121.554H409.602V118.273H411.414V127H409.624V125.952H409.547C409.462 126.134 409.341 126.314 409.185 126.493C409.031 126.669 408.831 126.815 408.584 126.932C408.34 127.048 408.041 127.107 407.689 127.107ZM408.264 125.662C408.557 125.662 408.804 125.582 409.006 125.423C409.21 125.261 409.367 125.036 409.475 124.746C409.585 124.456 409.641 124.116 409.641 123.727C409.641 123.338 409.587 123 409.479 122.713C409.371 122.426 409.215 122.205 409.01 122.048C408.806 121.892 408.557 121.814 408.264 121.814C407.966 121.814 407.715 121.895 407.51 122.057C407.306 122.219 407.151 122.443 407.046 122.73C406.941 123.017 406.888 123.349 406.888 123.727C406.888 124.108 406.941 124.445 407.046 124.737C407.154 125.027 407.308 125.254 407.51 125.419C407.715 125.581 407.966 125.662 408.264 125.662ZM412.906 127V120.455H414.721V127H412.906ZM413.818 119.611C413.548 119.611 413.317 119.521 413.123 119.342C412.933 119.161 412.838 118.943 412.838 118.69C412.838 118.44 412.933 118.226 413.123 118.047C413.317 117.865 413.548 117.774 413.818 117.774C414.088 117.774 414.318 117.865 414.508 118.047C414.702 118.226 414.798 118.44 414.798 118.69C414.798 118.943 414.702 119.161 414.508 119.342C414.318 119.521 414.088 119.611 413.818 119.611ZM417.991 123.216V127H416.176V120.455H417.906V121.609H417.982C418.127 121.229 418.37 120.928 418.711 120.706C419.052 120.482 419.465 120.369 419.951 120.369C420.406 120.369 420.802 120.469 421.14 120.668C421.478 120.866 421.741 121.151 421.928 121.52C422.116 121.886 422.21 122.324 422.21 122.832V127H420.394V123.156C420.397 122.756 420.295 122.443 420.088 122.219C419.88 121.991 419.595 121.878 419.231 121.878C418.987 121.878 418.771 121.93 418.583 122.036C418.399 122.141 418.254 122.294 418.149 122.496C418.046 122.695 417.994 122.935 417.991 123.216ZM426.589 129.591C426.001 129.591 425.497 129.51 425.077 129.348C424.659 129.189 424.327 128.972 424.079 128.696C423.832 128.42 423.672 128.111 423.598 127.767L425.277 127.541C425.328 127.672 425.409 127.794 425.52 127.908C425.631 128.021 425.777 128.112 425.959 128.18C426.143 128.251 426.368 128.287 426.632 128.287C427.027 128.287 427.352 128.19 427.608 127.997C427.866 127.807 427.996 127.487 427.996 127.038V125.841H427.919C427.839 126.023 427.72 126.195 427.561 126.357C427.402 126.518 427.197 126.651 426.947 126.753C426.697 126.855 426.399 126.906 426.052 126.906C425.561 126.906 425.113 126.793 424.71 126.565C424.309 126.335 423.99 125.984 423.751 125.513C423.515 125.038 423.398 124.439 423.398 123.714C423.398 122.973 423.518 122.354 423.76 121.857C424.001 121.359 424.322 120.987 424.723 120.74C425.126 120.493 425.568 120.369 426.048 120.369C426.415 120.369 426.721 120.432 426.969 120.557C427.216 120.679 427.415 120.832 427.565 121.017C427.719 121.199 427.836 121.378 427.919 121.554H427.987V120.455H429.79V127.064C429.79 127.621 429.653 128.087 429.381 128.462C429.108 128.837 428.73 129.118 428.247 129.305C427.767 129.496 427.214 129.591 426.589 129.591ZM426.628 125.543C426.92 125.543 427.167 125.47 427.369 125.325C427.574 125.178 427.73 124.967 427.838 124.695C427.949 124.419 428.004 124.089 428.004 123.706C428.004 123.322 427.95 122.99 427.842 122.709C427.734 122.425 427.578 122.205 427.373 122.048C427.169 121.892 426.92 121.814 426.628 121.814C426.329 121.814 426.078 121.895 425.873 122.057C425.669 122.216 425.514 122.437 425.409 122.722C425.304 123.006 425.251 123.334 425.251 123.706C425.251 124.084 425.304 124.411 425.409 124.686C425.517 124.959 425.672 125.17 425.873 125.321C426.078 125.469 426.329 125.543 426.628 125.543Z" fill="#1F2024"/>
    </g>
    <g filter="url(#filter5_b_51_424)">
        <rect x="342" y="154" width="59" height="39" rx="8" fill="#1F2024" fill-opacity="0.05"/>
        <rect x="342" y="154" width="59" height="39" rx="8" stroke="#1F2024" stroke-width="1.5" stroke-linecap="round" stroke-linejoin="round"/>
        <path d="M367.924 178.111C367.643 178.111 367.401 178.011 367.2 177.812C367.001 177.611 366.901 177.369 366.901 177.088C366.901 176.81 367.001 176.571 367.2 176.372C367.401 176.173 367.643 176.074 367.924 176.074C368.197 176.074 368.436 176.173 368.64 176.372C368.845 176.571 368.947 176.81 368.947 177.088C368.947 177.276 368.899 177.447 368.802 177.604C368.708 177.757 368.585 177.881 368.431 177.974C368.278 178.065 368.109 178.111 367.924 178.111ZM371.498 178.111C371.217 178.111 370.976 178.011 370.774 177.812C370.575 177.611 370.476 177.369 370.476 177.088C370.476 176.81 370.575 176.571 370.774 176.372C370.976 176.173 371.217 176.074 371.498 176.074C371.771 176.074 372.01 176.173 372.214 176.372C372.419 176.571 372.521 176.81 372.521 177.088C372.521 177.276 372.473 177.447 372.376 177.604C372.282 177.757 372.159 177.881 372.006 177.974C371.852 178.065 371.683 178.111 371.498 178.111ZM375.073 178.111C374.791 178.111 374.55 178.011 374.348 177.812C374.149 177.611 374.05 177.369 374.05 177.088C374.05 176.81 374.149 176.571 374.348 176.372C374.55 176.173 374.791 176.074 375.073 176.074C375.345 176.074 375.584 176.173 375.789 176.372C375.993 176.571 376.095 176.81 376.095 177.088C376.095 177.276 376.047 177.447 375.95 177.604C375.857 177.757 375.733 177.881 375.58 177.974C375.426 178.065 375.257 178.111 375.073 178.111Z" fill="#1F2024"/>
    </g>
    <path d="M59.3233 97L97.5 97" stroke="#1F2024" stroke-width="1.5" stroke-linecap="round"/>
    <path d="M99.5475 96.2803L94.5157 93.1526C93.9129 92.7778 93.1357 93.1339 93.0158 93.7806C92.9947 93.8943 93.0201 94.0102 93.0593 94.119L94.0979 97L93.0593 99.8811C93.0201 99.9899 92.9947 100.106 93.0158 100.219C93.1342 100.857 93.8925 101.215 94.4954 100.86L99.5272 97.8966C100.149 97.5306 100.16 96.6608 99.5475 96.2803Z" fill="#1F2024"/>
    <path d="M54.5 97C54.5 95.6193 55.6193 94.5 57 94.5C58.3807 94.5 59.5 95.6193 59.5 97C59.5 98.3807 58.3807 99.5 57 99.5C55.6193 99.5 54.5 98.3807 54.5 97Z" fill="white" stroke="#1F2024" stroke-width="3"/>
    <path d="M295.969 97V97C304.736 97 311.844 89.8922 311.844 81.1243V37.8757C311.844 29.1078 318.952 22 327.72 22V22" stroke="#1F2024" stroke-width="1.5" stroke-linecap="round"/>
    <path d="M328.253 21.2803L323.221 18.1526C322.618 17.7778 321.841 18.1339 321.721 18.7806C321.7 18.8943 321.725 19.0102 321.765 19.119L322.803 22L321.765 24.8811C321.725 24.9899 321.7 25.1058 321.721 25.2195C321.839 25.8571 322.598 26.2148 323.201 25.8598L328.232 22.8966C328.854 22.5306 328.865 21.6608 328.253 21.2803Z" fill="#1F2024"/>
    <path d="M291.5 97C291.5 95.6193 292.619 94.5 294 94.5C295.381 94.5 296.5 95.6193 296.5 97C296.5 98.3807 295.381 99.5 294 99.5C292.619 99.5 291.5 98.3807 291.5 97Z" fill="white" stroke="#1F2024" stroke-width="3"/>
    <path d="M295.969 97H301.344C308.524 97 314.344 91.1797 314.344 84V84C314.344 76.8203 320.164 71 327.344 71H332.72" stroke="#1F2024" stroke-width="1.5" stroke-linecap="round"/>
    <path d="M333.253 70.2803L328.221 67.1526C327.618 66.7778 326.841 67.1339 326.721 67.7806C326.7 67.8943 326.725 68.0102 326.765 68.119L327.803 71L326.765 73.8811C326.725 73.9899 326.7 74.1058 326.721 74.2195C326.839 74.8571 327.598 75.2148 328.201 74.8598L333.232 71.8966C333.854 71.5306 333.865 70.6608 333.253 70.2803Z" fill="#1F2024"/>
    <path d="M291.5 97C291.5 95.6193 292.619 94.5 294 94.5C295.381 94.5 296.5 95.6193 296.5 97C296.5 98.3807 295.381 99.5 294 99.5C292.619 99.5 291.5 98.3807 291.5 97Z" fill="white" stroke="#1F2024" stroke-width="3"/>
    <path d="M295.969 97H301.344C308.524 97 314.344 102.82 314.344 110V110C314.344 117.18 320.164 123 327.344 123H332.72" stroke="#1F2024" stroke-width="1.5" stroke-linecap="round"/>
    <path d="M333.253 123.72L328.221 126.847C327.618 127.222 326.841 126.866 326.721 126.219C326.7 126.106 326.725 125.99 326.765 125.881L327.803 123L326.765 120.119C326.725 120.01 326.7 119.894 326.721 119.781C326.839 119.143 327.598 118.785 328.201 119.14L333.232 122.103C333.854 122.469 333.865 123.339 333.253 123.72Z" fill="#1F2024"/>
    <path d="M291.5 97C291.5 98.3807 292.619 99.5 294 99.5C295.381 99.5 296.5 98.3807 296.5 97C296.5 95.6193 295.381 94.5 294 94.5C292.619 94.5 291.5 95.6193 291.5 97Z" fill="white" stroke="#1F2024" stroke-width="3"/>
    <path d="M295.969 97V97C304.736 97 311.844 104.108 311.844 112.876V161.124C311.844 169.892 318.952 177 327.72 177V177" stroke="#1F2024" stroke-width="1.5" stroke-linecap="round"/>
    <path d="M328.253 177.72L323.221 180.847C322.618 181.222 321.841 180.866 321.721 180.219C321.7 180.106 321.725 179.99 321.765 179.881L322.803 177L321.765 174.119C321.725 174.01 321.7 173.894 321.721 173.781C321.839 173.143 322.598 172.785 323.201 173.14L328.232 176.103C328.854 176.469 328.865 177.339 328.253 177.72Z" fill="#1F2024"/>
    <path d="M291.5 97C291.5 98.3807 292.619 99.5 294 99.5C295.381 99.5 296.5 98.3807 296.5 97C296.5 95.6193 295.381 94.5 294 94.5C292.619 94.5 291.5 95.6193 291.5 97Z" fill="white" stroke="#1F2024" stroke-width="3"/>
    <defs>
        <filter id="filter0_b_51_424" x="91.25" y="39.25" width="159.5" height="115.5" filterUnits="userSpaceOnUse" color-interpolation-filters="sRGB">
            <feFlood flood-opacity="0" result="BackgroundImageFix"/>
            <feGaussianBlur in="BackgroundImageFix" stdDeviation="7.5"/>
            <feComposite in2="SourceAlpha" operator="in" result="effect1_backgroundBlur_51_424"/>
            <feBlend mode="normal" in="SourceGraphic" in2="effect1_backgroundBlur_51_424" result="shape"/>
        </filter>
        <filter id="filter1_b_51_424" x="200.25" y="46.25" width="102.5" height="102.5" filterUnits="userSpaceOnUse" color-interpolation-filters="sRGB">
            <feFlood flood-opacity="0" result="BackgroundImageFix"/>
            <feGaussianBlur in="BackgroundImageFix" stdDeviation="7.5"/>
            <feComposite in2="SourceAlpha" operator="in" result="effect1_backgroundBlur_51_424"/>
            <feBlend mode="normal" in="SourceGraphic" in2="effect1_backgroundBlur_51_424" result="shape"/>
        </filter>
        <filter id="filter2_b_51_424" x="326.25" y="-14.75" width="102.5" height="70.5" filterUnits="userSpaceOnUse" color-interpolation-filters="sRGB">
            <feFlood flood-opacity="0" result="BackgroundImageFix"/>
            <feGaussianBlur in="BackgroundImageFix" stdDeviation="7.5"/>
            <feComposite in2="SourceAlpha" operator="in" result="effect1_backgroundBlur_51_424"/>
            <feBlend mode="normal" in="SourceGraphic" in2="effect1_backgroundBlur_51_424" result="shape"/>
        </filter>
        <filter id="filter3_b_51_424" x="326.25" y="36.25" width="138.5" height="70.5" filterUnits="userSpaceOnUse" color-interpolation-filters="sRGB">
            <feFlood flood-opacity="0" result="BackgroundImageFix"/>
            <feGaussianBlur in="BackgroundImageFix" stdDeviation="7.5"/>
            <feComposite in2="SourceAlpha" operator="in" result="effect1_backgroundBlur_51_424"/>
            <feBlend mode="normal" in="SourceGraphic" in2="effect1_backgroundBlur_51_424" result="shape"/>
        </filter>
        <filter id="filter4_b_51_424" x="326.25" y="87.25" width="144.5" height="70.5" filterUnits="userSpaceOnUse" color-interpolation-filters="sRGB">
            <feFlood flood-opacity="0" result="BackgroundImageFix"/>
            <feGaussianBlur in="BackgroundImageFix" stdDeviation="7.5"/>
            <feComposite in2="SourceAlpha" operator="in" result="effect1_backgroundBlur_51_424"/>
            <feBlend mode="normal" in="SourceGraphic" in2="effect1_backgroundBlur_51_424" result="shape"/>
        </filter>
        <filter id="filter5_b_51_424" x="326.25" y="138.25" width="90.5" height="70.5" filterUnits="userSpaceOnUse" color-interpolation-filters="sRGB">
            <feFlood flood-opacity="0" result="BackgroundImageFix"/>
            <feGaussianBlur in="BackgroundImageFix" stdDeviation="7.5"/>
            <feComposite in2="SourceAlpha" operator="in" result="effect1_backgroundBlur_51_424"/>
            <feBlend mode="normal" in="SourceGraphic" in2="effect1_backgroundBlur_51_424" result="shape"/>
        </filter>
    </defs>
</svg>
