<svg width="474" height="194" viewBox="0 0 474 194" fill="none" xmlns="http://www.w3.org/2000/svg">
    <path d="M24.1946 84.8201C17.6252 84.8201 12.2788 79.4776 12.2788 72.9119C12.2788 66.3426 17.6213 61 24.1946 61C30.7639 61 36.1065 66.3425 36.1065 72.9119C36.1028 79.4776 30.7603 84.8201 24.1946 84.8201ZM24.1946 62.8864C18.6678 62.8864 14.1653 67.3851 14.1653 72.9119C14.1653 78.4387 18.664 82.9337 24.1946 82.9337C29.7213 82.9337 34.2201 78.435 34.2201 72.9119C34.2164 67.3852 29.7214 62.8864 24.1946 62.8864Z"
          fill="black"/>
    <path d="M24.1946 62.8865C18.6679 62.8865 14.1653 67.3852 14.1653 72.912C14.1653 78.4387 18.664 82.9337 24.1946 82.9337C29.7213 82.9337 34.2201 78.435 34.2201 72.912C34.2164 67.3853 29.7214 62.8865 24.1946 62.8865Z"
          fill="white"/>
    <path d="M47.4657 110.778H47.4473H0.945541C0.683948 110.778 0.429712 110.667 0.252858 110.476C0.0760036 110.284 -0.0161108 110.022 0.00231979 109.761C0.960255 97.2074 11.586 87.378 24.1941 87.378C36.7361 87.378 47.3181 97.1121 48.3717 109.573C48.3938 109.658 48.4085 109.746 48.4085 109.835C48.4085 110.354 47.9889 110.778 47.4657 110.778ZM1.98453 108.891H46.4046C45.045 97.8046 35.4802 89.2636 24.1946 89.2636C12.9089 89.2636 3.34748 97.8043 1.98453 108.891Z"
          fill="black"/>
    <path d="M1.98451 108.891H46.4046C45.045 97.8047 35.4802 89.2637 24.1945 89.2637C12.9089 89.2637 3.34747 97.8044 1.98451 108.891Z"
          fill="white"/>
    <path d="M78.1205 84.8201C71.5511 84.8201 66.2048 79.4776 66.2048 72.9119C66.2048 66.3426 71.5473 61 78.1205 61C84.6898 61 90.0324 66.3425 90.0324 72.9119C90.0287 79.4776 84.6863 84.8201 78.1205 84.8201ZM78.1205 62.8864C72.5938 62.8864 68.0912 67.3851 68.0912 72.9119C68.0912 78.4387 72.5899 82.9337 78.1205 82.9337C83.6472 82.9337 88.146 78.435 88.146 72.9119C88.1423 67.3852 83.6473 62.8864 78.1205 62.8864Z"
          fill="black"/>
    <path d="M78.1205 62.8865C72.5938 62.8865 68.0912 67.3852 68.0912 72.912C68.0912 78.4387 72.5899 82.9337 78.1205 82.9337C83.6472 82.9337 88.146 78.435 88.146 72.912C88.1423 67.3853 83.6473 62.8865 78.1205 62.8865Z"
          fill="white"/>
    <path d="M101.392 110.778H101.373H54.8715C54.6099 110.778 54.3556 110.667 54.1788 110.476C54.0019 110.284 53.9098 110.022 53.9283 109.761C54.8862 97.2074 65.512 87.378 78.12 87.378C90.662 87.378 101.244 97.1121 102.298 109.573C102.32 109.658 102.334 109.746 102.334 109.835C102.334 110.354 101.915 110.778 101.392 110.778ZM55.9105 108.891H100.331C98.971 97.8046 89.4061 89.2636 78.1205 89.2636C66.8349 89.2636 57.2734 97.8043 55.9105 108.891Z"
          fill="black"/>
    <path d="M55.9104 108.891H100.331C98.971 97.8047 89.4061 89.2637 78.1205 89.2637C66.8348 89.2637 57.2734 97.8044 55.9104 108.891Z"
          fill="white"/>
    <path d="M51.1575 91.0423C44.5882 91.0423 39.2418 85.6998 39.2418 79.1342C39.2418 72.5648 44.5843 67.2222 51.1575 67.2222C57.7269 67.2222 63.0695 72.5647 63.0695 79.1342C63.0658 85.6998 57.7233 91.0423 51.1575 91.0423ZM51.1575 69.1087C45.6308 69.1087 41.1282 73.6074 41.1282 79.1342C41.1282 84.6609 45.6269 89.1559 51.1575 89.1559C56.6842 89.1559 61.183 84.6572 61.183 79.1342C61.1793 73.6075 56.6843 69.1087 51.1575 69.1087Z"
          fill="black"/>
    <path d="M51.1575 69.1087C45.6308 69.1087 41.1283 73.6074 41.1283 79.1342C41.1283 84.6609 45.627 89.1559 51.1575 89.1559C56.6842 89.1559 61.183 84.6572 61.183 79.1342C61.1794 73.6075 56.6843 69.1087 51.1575 69.1087Z"
          fill="white"/>
    <path d="M74.4287 117H74.4103H27.9085C27.6469 117 27.3927 116.889 27.2158 116.698C27.039 116.506 26.9469 116.245 26.9653 115.983C27.9232 103.43 38.549 93.6002 51.157 93.6002C63.699 93.6002 74.281 103.334 75.3346 115.795C75.3567 115.88 75.3715 115.969 75.3715 116.057C75.3715 116.576 74.9519 117 74.4287 117ZM28.9475 115.114H73.3676C72.008 104.027 62.4432 95.4858 51.1575 95.4858C39.8719 95.4858 30.3105 104.027 28.9475 115.114Z"
          fill="black"/>
    <path d="M28.9475 115.114H73.3676C72.008 104.027 62.4432 95.4859 51.1575 95.4859C39.8719 95.4859 30.3104 104.027 28.9475 115.114Z"
          fill="white"/>
    <g filter="url(#filter0_b_51_424)">
        <rect x="169" y="10" width="133" height="157" rx="8" fill="#1F2024" fill-opacity="0.05"/>
        <rect x="169" y="10" width="133" height="157" rx="8" stroke="#1F2024" stroke-width="1.5"/>
        <path d="M193.415 33.2727H195.482L197.472 37.0312H197.557L199.547 33.2727H201.614L198.431 38.9148V42H196.598V38.9148L193.415 33.2727ZM204.174 42.1278C203.512 42.1278 202.94 41.9872 202.457 41.706C201.977 41.4219 201.606 41.027 201.344 40.5213C201.083 40.0128 200.952 39.4233 200.952 38.7528C200.952 38.0767 201.083 37.4858 201.344 36.9801C201.606 36.4716 201.977 36.0767 202.457 35.7955C202.94 35.5114 203.512 35.3693 204.174 35.3693C204.836 35.3693 205.407 35.5114 205.887 35.7955C206.37 36.0767 206.742 36.4716 207.004 36.9801C207.265 37.4858 207.396 38.0767 207.396 38.7528C207.396 39.4233 207.265 40.0128 207.004 40.5213C206.742 41.027 206.37 41.4219 205.887 41.706C205.407 41.9872 204.836 42.1278 204.174 42.1278ZM204.183 40.7216C204.484 40.7216 204.735 40.6364 204.937 40.4659C205.138 40.2926 205.29 40.0568 205.393 39.7585C205.498 39.4602 205.55 39.1207 205.55 38.7401C205.55 38.3594 205.498 38.0199 205.393 37.7216C205.29 37.4233 205.138 37.1875 204.937 37.0142C204.735 36.8409 204.484 36.7543 204.183 36.7543C203.879 36.7543 203.623 36.8409 203.415 37.0142C203.211 37.1875 203.056 37.4233 202.951 37.7216C202.849 38.0199 202.798 38.3594 202.798 38.7401C202.798 39.1207 202.849 39.4602 202.951 39.7585C203.056 40.0568 203.211 40.2926 203.415 40.4659C203.623 40.6364 203.879 40.7216 204.183 40.7216ZM212.773 39.2131V35.4545H214.589V42H212.846V40.8111H212.778C212.63 41.1946 212.384 41.5028 212.04 41.7358C211.7 41.9687 211.283 42.0852 210.792 42.0852C210.354 42.0852 209.969 41.9858 209.637 41.7869C209.305 41.5881 209.045 41.3054 208.857 40.9389C208.673 40.5724 208.579 40.1335 208.576 39.6222V35.4545H210.391V39.2983C210.394 39.6847 210.498 39.9901 210.702 40.2145C210.907 40.4389 211.181 40.5511 211.525 40.5511C211.744 40.5511 211.948 40.5014 212.138 40.402C212.329 40.2997 212.482 40.1491 212.599 39.9503C212.718 39.7514 212.776 39.5057 212.773 39.2131ZM216.041 42V35.4545H217.801V36.5966H217.869C217.988 36.1903 218.189 35.8835 218.47 35.6761C218.751 35.4659 219.075 35.3608 219.441 35.3608C219.532 35.3608 219.63 35.3665 219.735 35.3778C219.841 35.3892 219.933 35.4048 220.012 35.4247V37.0355C219.927 37.0099 219.809 36.9872 219.659 36.9673C219.508 36.9474 219.37 36.9375 219.245 36.9375C218.978 36.9375 218.74 36.9957 218.529 37.1122C218.322 37.2259 218.157 37.3849 218.035 37.5895C217.916 37.794 217.856 38.0298 217.856 38.2969V42H216.041ZM222.009 42H220.032L223.044 33.2727H225.422L228.431 42H226.453L224.267 35.267H224.199L222.009 42ZM221.885 38.5696H226.556V40.0099H221.885V38.5696ZM229.447 44.4545V35.4545H231.237V36.554H231.318C231.397 36.3778 231.512 36.1989 231.663 36.017C231.816 35.8324 232.015 35.679 232.26 35.5568C232.507 35.4318 232.814 35.3693 233.18 35.3693C233.657 35.3693 234.098 35.4943 234.501 35.7443C234.904 35.9915 235.227 36.3651 235.468 36.8651C235.71 37.3622 235.831 37.9858 235.831 38.7358C235.831 39.4659 235.713 40.0824 235.477 40.5852C235.244 41.0852 234.926 41.4645 234.522 41.723C234.122 41.9787 233.673 42.1065 233.176 42.1065C232.824 42.1065 232.524 42.0483 232.277 41.9318C232.032 41.8153 231.832 41.669 231.676 41.4929C231.52 41.3139 231.4 41.1335 231.318 40.9517H231.262V44.4545H229.447ZM231.224 38.7273C231.224 39.1165 231.278 39.456 231.386 39.7457C231.494 40.0355 231.65 40.2614 231.855 40.4233C232.059 40.5824 232.308 40.6619 232.6 40.6619C232.896 40.6619 233.146 40.581 233.35 40.419C233.555 40.2543 233.71 40.027 233.815 39.7372C233.923 39.4446 233.977 39.108 233.977 38.7273C233.977 38.3494 233.924 38.017 233.819 37.7301C233.714 37.4432 233.559 37.2187 233.355 37.0568C233.15 36.8949 232.899 36.8139 232.6 36.8139C232.305 36.8139 232.055 36.892 231.85 37.0483C231.649 37.2045 231.494 37.4261 231.386 37.7131C231.278 38 231.224 38.3381 231.224 38.7273ZM237.041 44.4545V35.4545H238.831V36.554H238.912C238.991 36.3778 239.106 36.1989 239.257 36.017C239.41 35.8324 239.609 35.679 239.853 35.5568C240.1 35.4318 240.407 35.3693 240.774 35.3693C241.251 35.3693 241.691 35.4943 242.095 35.7443C242.498 35.9915 242.821 36.3651 243.062 36.8651C243.304 37.3622 243.424 37.9858 243.424 38.7358C243.424 39.4659 243.306 40.0824 243.071 40.5852C242.838 41.0852 242.52 41.4645 242.116 41.723C241.716 41.9787 241.267 42.1065 240.77 42.1065C240.417 42.1065 240.118 42.0483 239.87 41.9318C239.626 41.8153 239.426 41.669 239.27 41.4929C239.113 41.3139 238.994 41.1335 238.912 40.9517H238.856V44.4545H237.041ZM238.818 38.7273C238.818 39.1165 238.872 39.456 238.98 39.7457C239.088 40.0355 239.244 40.2614 239.449 40.4233C239.653 40.5824 239.902 40.6619 240.194 40.6619C240.49 40.6619 240.74 40.581 240.944 40.419C241.149 40.2543 241.304 40.027 241.409 39.7372C241.517 39.4446 241.571 39.108 241.571 38.7273C241.571 38.3494 241.518 38.017 241.413 37.7301C241.308 37.4432 241.153 37.2187 240.949 37.0568C240.744 36.8949 240.493 36.8139 240.194 36.8139C239.899 36.8139 239.649 36.892 239.444 37.0483C239.243 37.2045 239.088 37.4261 238.98 37.7131C238.872 38 238.818 38.3381 238.818 38.7273ZM245.696 42.1108C245.414 42.1108 245.173 42.0114 244.971 41.8125C244.772 41.6108 244.673 41.3693 244.673 41.0881C244.673 40.8097 244.772 40.571 244.971 40.3722C245.173 40.1733 245.414 40.0739 245.696 40.0739C245.968 40.0739 246.207 40.1733 246.412 40.3722C246.616 40.571 246.718 40.8097 246.718 41.0881C246.718 41.2756 246.67 41.4474 246.574 41.6037C246.48 41.7571 246.356 41.8807 246.203 41.9744C246.049 42.0653 245.88 42.1108 245.696 42.1108ZM251.166 42.1278C250.496 42.1278 249.919 41.9858 249.436 41.7017C248.956 41.4148 248.587 41.017 248.328 40.5085C248.072 40 247.945 39.4148 247.945 38.7528C247.945 38.0824 248.074 37.4943 248.332 36.9886C248.594 36.4801 248.964 36.0838 249.445 35.7997C249.925 35.5128 250.496 35.3693 251.158 35.3693C251.729 35.3693 252.229 35.473 252.658 35.6804C253.087 35.8878 253.426 36.179 253.676 36.554C253.926 36.929 254.064 37.3693 254.089 37.875H252.376C252.328 37.5483 252.2 37.2855 251.993 37.0866C251.788 36.8849 251.52 36.7841 251.188 36.7841C250.906 36.7841 250.661 36.8608 250.45 37.0142C250.243 37.1648 250.081 37.3849 249.964 37.6747C249.848 37.9645 249.79 38.3153 249.79 38.7273C249.79 39.1449 249.847 39.5 249.96 39.7926C250.077 40.0852 250.24 40.3082 250.45 40.4616C250.661 40.6151 250.906 40.6918 251.188 40.6918C251.395 40.6918 251.581 40.6491 251.746 40.5639C251.913 40.4787 252.051 40.3551 252.159 40.1932C252.27 40.0284 252.342 39.831 252.376 39.6009H254.089C254.061 40.1009 253.925 40.5412 253.68 40.9219C253.439 41.2997 253.105 41.5952 252.679 41.8082C252.253 42.0213 251.749 42.1278 251.166 42.1278ZM258.209 42.1278C257.547 42.1278 256.975 41.9872 256.492 41.706C256.012 41.4219 255.641 41.027 255.38 40.5213C255.118 40.0128 254.988 39.4233 254.988 38.7528C254.988 38.0767 255.118 37.4858 255.38 36.9801C255.641 36.4716 256.012 36.0767 256.492 35.7955C256.975 35.5114 257.547 35.3693 258.209 35.3693C258.871 35.3693 259.442 35.5114 259.922 35.7955C260.405 36.0767 260.777 36.4716 261.039 36.9801C261.3 37.4858 261.431 38.0767 261.431 38.7528C261.431 39.4233 261.3 40.0128 261.039 40.5213C260.777 41.027 260.405 41.4219 259.922 41.706C259.442 41.9872 258.871 42.1278 258.209 42.1278ZM258.218 40.7216C258.519 40.7216 258.77 40.6364 258.972 40.4659C259.174 40.2926 259.326 40.0568 259.428 39.7585C259.533 39.4602 259.586 39.1207 259.586 38.7401C259.586 38.3594 259.533 38.0199 259.428 37.7216C259.326 37.4233 259.174 37.1875 258.972 37.0142C258.77 36.8409 258.519 36.7543 258.218 36.7543C257.914 36.7543 257.658 36.8409 257.451 37.0142C257.246 37.1875 257.091 37.4233 256.986 37.7216C256.884 38.0199 256.833 38.3594 256.833 38.7401C256.833 39.1207 256.884 39.4602 256.986 39.7585C257.091 40.0568 257.246 40.2926 257.451 40.4659C257.658 40.6364 257.914 40.7216 258.218 40.7216ZM262.611 42V35.4545H264.341V36.6094H264.418C264.554 36.2259 264.782 35.9233 265.1 35.7017C265.418 35.4801 265.799 35.3693 266.242 35.3693C266.691 35.3693 267.073 35.4815 267.388 35.706C267.703 35.9276 267.914 36.2287 268.019 36.6094H268.087C268.221 36.2344 268.462 35.9347 268.811 35.7102C269.164 35.483 269.58 35.3693 270.06 35.3693C270.671 35.3693 271.167 35.5639 271.547 35.9531C271.931 36.3395 272.123 36.8878 272.123 37.598V42H270.311V37.956C270.311 37.5923 270.215 37.3196 270.022 37.1378C269.828 36.956 269.587 36.8651 269.297 36.8651C268.968 36.8651 268.711 36.9702 268.526 37.1804C268.341 37.3878 268.249 37.6619 268.249 38.0028V42H266.489V37.9176C266.489 37.5966 266.397 37.3409 266.212 37.1506C266.03 36.9602 265.79 36.8651 265.492 36.8651C265.29 36.8651 265.108 36.9162 264.946 37.0185C264.787 37.1179 264.661 37.2585 264.567 37.4403C264.473 37.6193 264.426 37.8295 264.426 38.071V42H262.611Z"
              fill="#1F2024"/>
        <path d="M220 10H252V12C252 14.2091 250.209 16 248 16H224C221.791 16 220 14.2091 220 12V10Z" fill="#1F2024"/>
        <path d="M226 163H246" stroke="#1F2024" stroke-width="1.5" stroke-linecap="round"/>
    </g>
    <g filter="url(#filter1_b_51_424)">
        <rect x="211" y="78" width="71" height="71" rx="8" fill="#1F2024" fill-opacity="0.05"/>
        <rect x="211" y="78" width="71" height="71" rx="8" stroke="#1F2024" stroke-width="1.5" stroke-linecap="round"
              stroke-linejoin="round"/>
        <path d="M230.471 110.5V101.773H232.317V105.374H236.062V101.773H237.903V110.5H236.062V106.895H232.317V110.5H230.471ZM240.929 110.5H238.952L241.964 101.773H244.342L247.351 110.5H245.373L243.187 103.767H243.119L240.929 110.5ZM240.805 107.07H245.476V108.51H240.805V107.07ZM248.401 110.5V101.773H251.844C252.503 101.773 253.066 101.891 253.532 102.126C254.001 102.359 254.357 102.69 254.601 103.119C254.849 103.545 254.972 104.047 254.972 104.624C254.972 105.203 254.847 105.702 254.597 106.119C254.347 106.534 253.985 106.852 253.51 107.074C253.039 107.295 252.468 107.406 251.797 107.406H249.492V105.923H251.499C251.851 105.923 252.144 105.875 252.377 105.778C252.61 105.682 252.783 105.537 252.897 105.344C253.013 105.151 253.072 104.911 253.072 104.624C253.072 104.334 253.013 104.089 252.897 103.891C252.783 103.692 252.608 103.541 252.373 103.439C252.14 103.334 251.846 103.281 251.491 103.281H250.246V110.5H248.401ZM253.114 106.528L255.283 110.5H253.246L251.124 106.528H253.114ZM256.276 110.5V101.773H259.719C260.381 101.773 260.945 101.899 261.411 102.152C261.877 102.402 262.232 102.75 262.476 103.196C262.724 103.639 262.847 104.151 262.847 104.73C262.847 105.31 262.722 105.821 262.472 106.264C262.222 106.707 261.86 107.053 261.385 107.3C260.914 107.547 260.343 107.67 259.672 107.67H257.478V106.192H259.374C259.729 106.192 260.022 106.131 260.252 106.009C260.485 105.884 260.658 105.712 260.772 105.493C260.888 105.271 260.947 105.017 260.947 104.73C260.947 104.44 260.888 104.187 260.772 103.972C260.658 103.753 260.485 103.584 260.252 103.464C260.019 103.342 259.724 103.281 259.366 103.281H258.121V110.5H256.276ZM230.548 125.5V116.773H233.991C234.653 116.773 235.217 116.899 235.683 117.152C236.148 117.402 236.504 117.75 236.748 118.196C236.995 118.639 237.119 119.151 237.119 119.73C237.119 120.31 236.994 120.821 236.744 121.264C236.494 121.707 236.131 122.053 235.657 122.3C235.185 122.547 234.614 122.67 233.944 122.67H231.749V121.192H233.646C234.001 121.192 234.293 121.131 234.523 121.009C234.756 120.884 234.93 120.712 235.043 120.493C235.16 120.271 235.218 120.017 235.218 119.73C235.218 119.44 235.16 119.187 235.043 118.972C234.93 118.753 234.756 118.584 234.523 118.464C234.29 118.342 233.995 118.281 233.637 118.281H232.393V125.5H230.548ZM238.283 125.5V118.955H240.043V120.097H240.111C240.23 119.69 240.431 119.384 240.712 119.176C240.993 118.966 241.317 118.861 241.684 118.861C241.775 118.861 241.873 118.866 241.978 118.878C242.083 118.889 242.175 118.905 242.255 118.925V120.536C242.169 120.51 242.051 120.487 241.901 120.467C241.75 120.447 241.613 120.438 241.488 120.438C241.221 120.438 240.982 120.496 240.772 120.612C240.564 120.726 240.4 120.885 240.277 121.089C240.158 121.294 240.098 121.53 240.098 121.797V125.5H238.283ZM245.846 125.628C245.184 125.628 244.612 125.487 244.129 125.206C243.648 124.922 243.278 124.527 243.016 124.021C242.755 123.513 242.624 122.923 242.624 122.253C242.624 121.577 242.755 120.986 243.016 120.48C243.278 119.972 243.648 119.577 244.129 119.295C244.612 119.011 245.184 118.869 245.846 118.869C246.508 118.869 247.079 119.011 247.559 119.295C248.042 119.577 248.414 119.972 248.675 120.48C248.937 120.986 249.067 121.577 249.067 122.253C249.067 122.923 248.937 123.513 248.675 124.021C248.414 124.527 248.042 124.922 247.559 125.206C247.079 125.487 246.508 125.628 245.846 125.628ZM245.854 124.222C246.156 124.222 246.407 124.136 246.609 123.966C246.81 123.793 246.962 123.557 247.065 123.259C247.17 122.96 247.222 122.621 247.222 122.24C247.222 121.859 247.17 121.52 247.065 121.222C246.962 120.923 246.81 120.687 246.609 120.514C246.407 120.341 246.156 120.254 245.854 120.254C245.55 120.254 245.295 120.341 245.087 120.514C244.883 120.687 244.728 120.923 244.623 121.222C244.521 121.52 244.469 121.859 244.469 122.24C244.469 122.621 244.521 122.96 244.623 123.259C244.728 123.557 244.883 123.793 245.087 123.966C245.295 124.136 245.55 124.222 245.854 124.222ZM251.531 118.955L252.732 121.243L253.964 118.955H255.826L253.93 122.227L255.877 125.5H254.023L252.732 123.237L251.462 125.5H249.587L251.531 122.227L249.656 118.955H251.531ZM258.025 127.955C257.795 127.955 257.579 127.936 257.377 127.899C257.178 127.865 257.013 127.821 256.883 127.767L257.292 126.412C257.505 126.477 257.697 126.513 257.867 126.518C258.04 126.524 258.19 126.484 258.315 126.399C258.442 126.314 258.546 126.169 258.626 125.964L258.732 125.688L256.384 118.955H258.293L259.648 123.761H259.717L261.085 118.955H263.006L260.462 126.207C260.34 126.56 260.174 126.866 259.964 127.128C259.756 127.392 259.494 127.595 259.175 127.737C258.857 127.882 258.474 127.955 258.025 127.955Z"
              fill="#1F2024"/>
    </g>
    <g filter="url(#filter2_b_51_424)">
        <rect x="360" y="1" width="71" height="39" rx="8" fill="#1F2024" fill-opacity="0.05"/>
        <rect x="360" y="1" width="71" height="39" rx="8" stroke="#1F2024" stroke-width="1.5" stroke-linecap="round"
              stroke-linejoin="round"/>
        <path d="M384.762 25V16.2727H390.643V17.794H386.608V19.8736H390.341V21.3949H386.608V23.4787H390.66V25H384.762ZM392.11 25V16.2727H395.553C396.212 16.2727 396.775 16.3906 397.241 16.6264C397.71 16.8594 398.066 17.1903 398.31 17.6193C398.558 18.0455 398.681 18.5469 398.681 19.1236C398.681 19.7031 398.556 20.2017 398.306 20.6193C398.056 21.0341 397.694 21.3523 397.219 21.5739C396.748 21.7955 396.177 21.9062 395.506 21.9062H393.201V20.4233H395.208C395.56 20.4233 395.853 20.375 396.086 20.2784C396.319 20.1818 396.492 20.0369 396.606 19.8438C396.722 19.6506 396.781 19.4105 396.781 19.1236C396.781 18.8338 396.722 18.5895 396.606 18.3906C396.492 18.1918 396.317 18.0412 396.082 17.9389C395.849 17.8338 395.555 17.7812 395.2 17.7812H393.955V25H392.11ZM396.823 21.0284L398.992 25H396.955L394.833 21.0284H396.823ZM399.985 25V16.2727H403.428C404.09 16.2727 404.654 16.3991 405.12 16.652C405.586 16.902 405.941 17.25 406.185 17.696C406.433 18.1392 406.556 18.6506 406.556 19.2301C406.556 19.8097 406.431 20.321 406.181 20.7642C405.931 21.2074 405.569 21.5526 405.094 21.7997C404.623 22.0469 404.052 22.1705 403.381 22.1705H401.187V20.6918H403.083C403.438 20.6918 403.731 20.6307 403.961 20.5085C404.194 20.3835 404.367 20.2116 404.481 19.9929C404.597 19.7713 404.656 19.517 404.656 19.2301C404.656 18.9403 404.597 18.6875 404.481 18.4716C404.367 18.2528 404.194 18.0838 403.961 17.9645C403.728 17.8423 403.433 17.7812 403.075 17.7812H401.83V25H399.985Z"
              fill="#1F2024"/>
    </g>
    <g filter="url(#filter3_b_51_424)">
        <rect x="360" y="52" width="107" height="39" rx="8" fill="#1F2024" fill-opacity="0.05"/>
        <rect x="360" y="52" width="107" height="39" rx="8" stroke="#1F2024" stroke-width="1.5" stroke-linecap="round"
              stroke-linejoin="round"/>
        <path d="M385.132 76V67.2727H388.575C389.237 67.2727 389.801 67.3991 390.267 67.652C390.732 67.902 391.088 68.25 391.332 68.696C391.579 69.1392 391.703 69.6506 391.703 70.2301C391.703 70.8097 391.578 71.321 391.328 71.7642C391.078 72.2074 390.715 72.5526 390.241 72.7997C389.769 73.0469 389.198 73.1705 388.528 73.1705H386.333V71.6918H388.23C388.585 71.6918 388.877 71.6307 389.107 71.5085C389.34 71.3835 389.514 71.2116 389.627 70.9929C389.744 70.7713 389.802 70.517 389.802 70.2301C389.802 69.9403 389.744 69.6875 389.627 69.4716C389.514 69.2528 389.34 69.0838 389.107 68.9645C388.874 68.8423 388.579 68.7812 388.221 68.7812H386.977V76H385.132ZM394.558 76.1236C394.14 76.1236 393.768 76.0511 393.441 75.9062C393.115 75.7585 392.856 75.5412 392.666 75.2543C392.478 74.9645 392.384 74.6037 392.384 74.1719C392.384 73.8082 392.451 73.5028 392.585 73.2557C392.718 73.0085 392.9 72.8097 393.13 72.6591C393.36 72.5085 393.622 72.3949 393.914 72.3182C394.21 72.2415 394.519 72.1875 394.843 72.1562C395.224 72.1165 395.531 72.0795 395.764 72.0455C395.997 72.0085 396.166 71.9545 396.271 71.8835C396.376 71.8125 396.428 71.7074 396.428 71.5682V71.5426C396.428 71.2727 396.343 71.0639 396.173 70.9162C396.005 70.7685 395.767 70.6946 395.457 70.6946C395.13 70.6946 394.87 70.767 394.677 70.9119C394.484 71.054 394.356 71.233 394.294 71.4489L392.615 71.3125C392.7 70.9148 392.867 70.571 393.117 70.2812C393.367 69.9886 393.69 69.7642 394.085 69.608C394.482 69.4489 394.943 69.3693 395.465 69.3693C395.829 69.3693 396.177 69.4119 396.509 69.4972C396.845 69.5824 397.142 69.7145 397.4 69.8935C397.661 70.0724 397.867 70.3026 398.018 70.5838C398.169 70.8622 398.244 71.196 398.244 71.5852V76H396.522V75.0923H396.471C396.366 75.2969 396.225 75.4773 396.049 75.6335C395.873 75.7869 395.661 75.9077 395.414 75.9957C395.167 76.081 394.882 76.1236 394.558 76.1236ZM395.078 74.8707C395.345 74.8707 395.58 74.8182 395.785 74.7131C395.99 74.6051 396.15 74.4602 396.267 74.2784C396.383 74.0966 396.441 73.8906 396.441 73.6605V72.9659C396.384 73.0028 396.306 73.0369 396.207 73.0682C396.11 73.0966 396.001 73.1236 395.879 73.1491C395.757 73.1719 395.634 73.1932 395.512 73.2131C395.39 73.2301 395.279 73.2457 395.18 73.2599C394.967 73.2912 394.781 73.3409 394.622 73.4091C394.463 73.4773 394.339 73.5696 394.251 73.6861C394.163 73.7997 394.119 73.9418 394.119 74.1122C394.119 74.3594 394.208 74.5483 394.387 74.679C394.569 74.8068 394.799 74.8707 395.078 74.8707ZM400.539 78.4545C400.308 78.4545 400.093 78.4361 399.891 78.3991C399.692 78.3651 399.527 78.321 399.396 78.267L399.806 76.9119C400.019 76.9773 400.21 77.0128 400.381 77.0185C400.554 77.0241 400.703 76.9844 400.828 76.8991C400.956 76.8139 401.06 76.669 401.139 76.4645L401.246 76.1875L398.898 69.4545H400.807L402.162 74.2614H402.23L403.598 69.4545H405.52L402.976 76.7074C402.854 77.0597 402.688 77.3665 402.477 77.6278C402.27 77.892 402.007 78.0952 401.689 78.2372C401.371 78.3821 400.987 78.4545 400.539 78.4545ZM406.449 76V69.4545H408.179V70.6094H408.256C408.392 70.2259 408.619 69.9233 408.938 69.7017C409.256 69.4801 409.637 69.3693 410.08 69.3693C410.529 69.3693 410.911 69.4815 411.226 69.706C411.541 69.9276 411.752 70.2287 411.857 70.6094H411.925C412.058 70.2344 412.3 69.9347 412.649 69.7102C413.002 69.483 413.418 69.3693 413.898 69.3693C414.509 69.3693 415.004 69.5639 415.385 69.9531C415.769 70.3395 415.96 70.8878 415.96 71.598V76H414.149V71.956C414.149 71.5923 414.053 71.3196 413.86 71.1378C413.666 70.956 413.425 70.8651 413.135 70.8651C412.806 70.8651 412.548 70.9702 412.364 71.1804C412.179 71.3878 412.087 71.6619 412.087 72.0028V76H410.327V71.9176C410.327 71.5966 410.235 71.3409 410.05 71.1506C409.868 70.9602 409.628 70.8651 409.33 70.8651C409.128 70.8651 408.946 70.9162 408.784 71.0185C408.625 71.1179 408.499 71.2585 408.405 71.4403C408.311 71.6193 408.264 71.8295 408.264 72.071V76H406.449ZM420.377 76.1278C419.704 76.1278 419.124 75.9915 418.639 75.7188C418.156 75.4432 417.784 75.054 417.522 74.5511C417.261 74.0455 417.13 73.4474 417.13 72.7571C417.13 72.0838 417.261 71.4929 417.522 70.9844C417.784 70.4759 418.151 70.0795 418.626 69.7955C419.103 69.5114 419.663 69.3693 420.305 69.3693C420.737 69.3693 421.139 69.4389 421.511 69.5781C421.886 69.7145 422.213 69.9205 422.491 70.196C422.772 70.4716 422.991 70.8182 423.147 71.2358C423.303 71.6506 423.382 72.1364 423.382 72.6932V73.1918H417.855V72.0668H421.673C421.673 71.8054 421.616 71.5739 421.502 71.3722C421.389 71.1705 421.231 71.0128 421.029 70.8991C420.83 70.7827 420.599 70.7244 420.335 70.7244C420.059 70.7244 419.815 70.7884 419.602 70.9162C419.392 71.0412 419.227 71.2102 419.107 71.4233C418.988 71.6335 418.927 71.8679 418.924 72.1264V73.196C418.924 73.5199 418.984 73.7997 419.103 74.0355C419.225 74.2713 419.397 74.4531 419.619 74.581C419.84 74.7088 420.103 74.7727 420.407 74.7727C420.609 74.7727 420.794 74.7443 420.961 74.6875C421.129 74.6307 421.272 74.5455 421.392 74.4318C421.511 74.3182 421.602 74.179 421.664 74.0142L423.343 74.125C423.258 74.5284 423.083 74.8807 422.819 75.1818C422.558 75.4801 422.22 75.7131 421.805 75.8807C421.393 76.0455 420.917 76.1278 420.377 76.1278ZM426.382 72.2159V76H424.566V69.4545H426.296V70.6094H426.373C426.518 70.2287 426.761 69.9276 427.102 69.706C427.443 69.4815 427.856 69.3693 428.342 69.3693C428.796 69.3693 429.193 69.4688 429.531 69.6676C429.869 69.8665 430.132 70.1506 430.319 70.5199C430.507 70.8864 430.6 71.3239 430.6 71.8324V76H428.785V72.1562C428.788 71.7557 428.686 71.4432 428.478 71.2188C428.271 70.9915 427.985 70.8778 427.622 70.8778C427.377 70.8778 427.161 70.9304 426.974 71.0355C426.789 71.1406 426.644 71.294 426.539 71.4957C426.437 71.6946 426.384 71.9347 426.382 72.2159ZM435.513 69.4545V70.8182H431.571V69.4545H435.513ZM432.466 67.8864H434.281V73.9886C434.281 74.1562 434.307 74.2869 434.358 74.3807C434.409 74.4716 434.48 74.5355 434.571 74.5724C434.665 74.6094 434.773 74.6278 434.895 74.6278C434.98 74.6278 435.065 74.6207 435.15 74.6065C435.236 74.5895 435.301 74.5767 435.346 74.5682L435.632 75.919C435.541 75.9474 435.413 75.9801 435.248 76.017C435.084 76.0568 434.883 76.081 434.648 76.0895C434.21 76.1065 433.827 76.0483 433.497 75.9148C433.17 75.7812 432.916 75.5739 432.734 75.2926C432.552 75.0114 432.463 74.6562 432.466 74.2273V67.8864ZM442.059 71.321L440.397 71.4233C440.369 71.2812 440.308 71.1534 440.214 71.0398C440.12 70.9233 439.997 70.831 439.843 70.7628C439.693 70.6918 439.512 70.6562 439.302 70.6562C439.021 70.6562 438.784 70.7159 438.59 70.8352C438.397 70.9517 438.301 71.108 438.301 71.304C438.301 71.4602 438.363 71.5923 438.488 71.7003C438.613 71.8082 438.828 71.8949 439.132 71.9602L440.316 72.1989C440.953 72.3295 441.427 72.5398 441.74 72.8295C442.052 73.1193 442.208 73.5 442.208 73.9716C442.208 74.4006 442.082 74.777 441.829 75.1009C441.579 75.4247 441.235 75.6776 440.798 75.8594C440.363 76.0384 439.862 76.1278 439.294 76.1278C438.427 76.1278 437.737 75.9474 437.222 75.5866C436.711 75.223 436.411 74.7287 436.323 74.1037L438.109 74.0099C438.163 74.2741 438.294 74.4759 438.501 74.6151C438.708 74.7514 438.974 74.8196 439.298 74.8196C439.616 74.8196 439.872 74.7585 440.065 74.6364C440.261 74.5114 440.36 74.3509 440.363 74.1548C440.36 73.9901 440.291 73.8551 440.154 73.75C440.018 73.642 439.808 73.5597 439.524 73.5028L438.39 73.277C437.751 73.1491 437.275 72.9276 436.963 72.6122C436.653 72.2969 436.498 71.8949 436.498 71.4062C436.498 70.9858 436.612 70.6236 436.839 70.3196C437.069 70.0156 437.392 69.7812 437.806 69.6165C438.224 69.4517 438.713 69.3693 439.272 69.3693C440.099 69.3693 440.749 69.544 441.224 69.8935C441.701 70.2429 441.98 70.7187 442.059 71.321Z"
              fill="#1F2024"/>
    </g>
    <g filter="url(#filter4_b_51_424)">
        <rect x="360" y="103" width="113" height="39" rx="8" fill="#1F2024" fill-opacity="0.05"/>
        <rect x="360" y="103" width="113" height="39" rx="8" stroke="#1F2024" stroke-width="1.5" stroke-linecap="round"
              stroke-linejoin="round"/>
        <path d="M391.036 121.094C390.976 120.886 390.892 120.703 390.784 120.544C390.676 120.382 390.544 120.246 390.388 120.135C390.235 120.021 390.058 119.935 389.86 119.875C389.664 119.815 389.446 119.786 389.208 119.786C388.762 119.786 388.369 119.896 388.031 120.118C387.696 120.339 387.435 120.662 387.247 121.085C387.06 121.506 386.966 122.02 386.966 122.628C386.966 123.236 387.058 123.753 387.243 124.179C387.428 124.605 387.689 124.93 388.027 125.155C388.365 125.376 388.764 125.487 389.225 125.487C389.642 125.487 389.999 125.413 390.294 125.266C390.593 125.115 390.82 124.903 390.976 124.631C391.135 124.358 391.215 124.036 391.215 123.663L391.59 123.719H389.34V122.33H392.992V123.429C392.992 124.196 392.83 124.855 392.506 125.406C392.182 125.955 391.736 126.378 391.168 126.676C390.6 126.972 389.949 127.119 389.216 127.119C388.398 127.119 387.679 126.939 387.06 126.578C386.441 126.214 385.958 125.699 385.611 125.031C385.267 124.361 385.095 123.565 385.095 122.645C385.095 121.937 385.198 121.307 385.402 120.753C385.61 120.196 385.899 119.724 386.271 119.338C386.644 118.952 387.077 118.658 387.571 118.456C388.066 118.254 388.601 118.153 389.178 118.153C389.672 118.153 390.132 118.226 390.558 118.371C390.985 118.513 391.362 118.714 391.692 118.976C392.024 119.237 392.296 119.548 392.506 119.909C392.716 120.267 392.851 120.662 392.911 121.094H391.036ZM397.327 127.128C396.653 127.128 396.074 126.991 395.588 126.719C395.105 126.443 394.733 126.054 394.471 125.551C394.21 125.045 394.079 124.447 394.079 123.757C394.079 123.084 394.21 122.493 394.471 121.984C394.733 121.476 395.101 121.08 395.575 120.795C396.052 120.511 396.612 120.369 397.254 120.369C397.686 120.369 398.088 120.439 398.46 120.578C398.835 120.714 399.162 120.92 399.44 121.196C399.721 121.472 399.94 121.818 400.096 122.236C400.253 122.651 400.331 123.136 400.331 123.693V124.192H394.804V123.067H398.622C398.622 122.805 398.565 122.574 398.452 122.372C398.338 122.17 398.18 122.013 397.979 121.899C397.78 121.783 397.548 121.724 397.284 121.724C397.008 121.724 396.764 121.788 396.551 121.916C396.341 122.041 396.176 122.21 396.057 122.423C395.937 122.634 395.876 122.868 395.873 123.126V124.196C395.873 124.52 395.933 124.8 396.052 125.036C396.175 125.271 396.346 125.453 396.568 125.581C396.79 125.709 397.052 125.773 397.356 125.773C397.558 125.773 397.743 125.744 397.91 125.688C398.078 125.631 398.221 125.545 398.341 125.432C398.46 125.318 398.551 125.179 398.613 125.014L400.292 125.125C400.207 125.528 400.032 125.881 399.768 126.182C399.507 126.48 399.169 126.713 398.754 126.881C398.342 127.045 397.866 127.128 397.327 127.128ZM404.473 127.128C403.811 127.128 403.238 126.987 402.756 126.706C402.275 126.422 401.905 126.027 401.643 125.521C401.382 125.013 401.251 124.423 401.251 123.753C401.251 123.077 401.382 122.486 401.643 121.98C401.905 121.472 402.275 121.077 402.756 120.795C403.238 120.511 403.811 120.369 404.473 120.369C405.135 120.369 405.706 120.511 406.186 120.795C406.669 121.077 407.041 121.472 407.302 121.98C407.564 122.486 407.694 123.077 407.694 123.753C407.694 124.423 407.564 125.013 407.302 125.521C407.041 126.027 406.669 126.422 406.186 126.706C405.706 126.987 405.135 127.128 404.473 127.128ZM404.481 125.722C404.782 125.722 405.034 125.636 405.236 125.466C405.437 125.293 405.589 125.057 405.692 124.759C405.797 124.46 405.849 124.121 405.849 123.74C405.849 123.359 405.797 123.02 405.692 122.722C405.589 122.423 405.437 122.187 405.236 122.014C405.034 121.841 404.782 121.754 404.481 121.754C404.177 121.754 403.922 121.841 403.714 122.014C403.51 122.187 403.355 122.423 403.25 122.722C403.148 123.02 403.096 123.359 403.096 123.74C403.096 124.121 403.148 124.46 403.25 124.759C403.355 125.057 403.51 125.293 403.714 125.466C403.922 125.636 404.177 125.722 404.481 125.722ZM411.832 127.128C411.162 127.128 410.585 126.986 410.102 126.702C409.622 126.415 409.253 126.017 408.994 125.509C408.738 125 408.611 124.415 408.611 123.753C408.611 123.082 408.74 122.494 408.998 121.989C409.26 121.48 409.631 121.084 410.111 120.8C410.591 120.513 411.162 120.369 411.824 120.369C412.395 120.369 412.895 120.473 413.324 120.68C413.753 120.888 414.092 121.179 414.342 121.554C414.592 121.929 414.73 122.369 414.756 122.875H413.042C412.994 122.548 412.866 122.286 412.659 122.087C412.454 121.885 412.186 121.784 411.854 121.784C411.572 121.784 411.327 121.861 411.116 122.014C410.909 122.165 410.747 122.385 410.631 122.675C410.514 122.964 410.456 123.315 410.456 123.727C410.456 124.145 410.513 124.5 410.626 124.793C410.743 125.085 410.906 125.308 411.116 125.462C411.327 125.615 411.572 125.692 411.854 125.692C412.061 125.692 412.247 125.649 412.412 125.564C412.579 125.479 412.717 125.355 412.825 125.193C412.936 125.028 413.008 124.831 413.042 124.601H414.756C414.727 125.101 414.591 125.541 414.346 125.922C414.105 126.3 413.771 126.595 413.345 126.808C412.919 127.021 412.415 127.128 411.832 127.128ZM418.875 127.128C418.213 127.128 417.641 126.987 417.158 126.706C416.678 126.422 416.307 126.027 416.046 125.521C415.784 125.013 415.654 124.423 415.654 123.753C415.654 123.077 415.784 122.486 416.046 121.98C416.307 121.472 416.678 121.077 417.158 120.795C417.641 120.511 418.213 120.369 418.875 120.369C419.537 120.369 420.108 120.511 420.588 120.795C421.071 121.077 421.443 121.472 421.705 121.98C421.966 122.486 422.097 123.077 422.097 123.753C422.097 124.423 421.966 125.013 421.705 125.521C421.443 126.027 421.071 126.422 420.588 126.706C420.108 126.987 419.537 127.128 418.875 127.128ZM418.884 125.722C419.185 125.722 419.436 125.636 419.638 125.466C419.84 125.293 419.992 125.057 420.094 124.759C420.199 124.46 420.252 124.121 420.252 123.74C420.252 123.359 420.199 123.02 420.094 122.722C419.992 122.423 419.84 122.187 419.638 122.014C419.436 121.841 419.185 121.754 418.884 121.754C418.58 121.754 418.324 121.841 418.117 122.014C417.912 122.187 417.757 122.423 417.652 122.722C417.55 123.02 417.499 123.359 417.499 123.74C417.499 124.121 417.55 124.46 417.652 124.759C417.757 125.057 417.912 125.293 418.117 125.466C418.324 125.636 418.58 125.722 418.884 125.722ZM425.689 127.107C425.192 127.107 424.742 126.979 424.338 126.723C423.938 126.464 423.619 126.085 423.384 125.585C423.151 125.082 423.034 124.466 423.034 123.736C423.034 122.986 423.155 122.362 423.396 121.865C423.638 121.365 423.959 120.991 424.36 120.744C424.763 120.494 425.205 120.369 425.685 120.369C426.051 120.369 426.357 120.432 426.601 120.557C426.848 120.679 427.047 120.832 427.198 121.017C427.351 121.199 427.468 121.378 427.547 121.554H427.602V118.273H429.414V127H427.624V125.952H427.547C427.462 126.134 427.341 126.314 427.185 126.493C427.031 126.669 426.831 126.815 426.584 126.932C426.34 127.048 426.041 127.107 425.689 127.107ZM426.264 125.662C426.557 125.662 426.804 125.582 427.006 125.423C427.21 125.261 427.367 125.036 427.475 124.746C427.585 124.456 427.641 124.116 427.641 123.727C427.641 123.338 427.587 123 427.479 122.713C427.371 122.426 427.215 122.205 427.01 122.048C426.806 121.892 426.557 121.814 426.264 121.814C425.966 121.814 425.715 121.895 425.51 122.057C425.306 122.219 425.151 122.443 425.046 122.73C424.941 123.017 424.888 123.349 424.888 123.727C424.888 124.108 424.941 124.445 425.046 124.737C425.154 125.027 425.308 125.254 425.51 125.419C425.715 125.581 425.966 125.662 426.264 125.662ZM430.906 127V120.455H432.721V127H430.906ZM431.818 119.611C431.548 119.611 431.317 119.521 431.123 119.342C430.933 119.161 430.838 118.943 430.838 118.69C430.838 118.44 430.933 118.226 431.123 118.047C431.317 117.865 431.548 117.774 431.818 117.774C432.088 117.774 432.318 117.865 432.508 118.047C432.702 118.226 432.798 118.44 432.798 118.69C432.798 118.943 432.702 119.161 432.508 119.342C432.318 119.521 432.088 119.611 431.818 119.611ZM435.991 123.216V127H434.176V120.455H435.906V121.609H435.982C436.127 121.229 436.37 120.928 436.711 120.706C437.052 120.482 437.465 120.369 437.951 120.369C438.406 120.369 438.802 120.469 439.14 120.668C439.478 120.866 439.741 121.151 439.928 121.52C440.116 121.886 440.21 122.324 440.21 122.832V127H438.394V123.156C438.397 122.756 438.295 122.443 438.088 122.219C437.88 121.991 437.595 121.878 437.231 121.878C436.987 121.878 436.771 121.93 436.583 122.036C436.399 122.141 436.254 122.294 436.149 122.496C436.046 122.695 435.994 122.935 435.991 123.216ZM444.589 129.591C444.001 129.591 443.497 129.51 443.077 129.348C442.659 129.189 442.327 128.972 442.079 128.696C441.832 128.42 441.672 128.111 441.598 127.767L443.277 127.541C443.328 127.672 443.409 127.794 443.52 127.908C443.631 128.021 443.777 128.112 443.959 128.18C444.143 128.251 444.368 128.287 444.632 128.287C445.027 128.287 445.352 128.19 445.608 127.997C445.866 127.807 445.996 127.487 445.996 127.038V125.841H445.919C445.839 126.023 445.72 126.195 445.561 126.357C445.402 126.518 445.197 126.651 444.947 126.753C444.697 126.855 444.399 126.906 444.052 126.906C443.561 126.906 443.113 126.793 442.71 126.565C442.309 126.335 441.99 125.984 441.751 125.513C441.515 125.038 441.398 124.439 441.398 123.714C441.398 122.973 441.518 122.354 441.76 121.857C442.001 121.359 442.322 120.987 442.723 120.74C443.126 120.493 443.568 120.369 444.048 120.369C444.415 120.369 444.721 120.432 444.969 120.557C445.216 120.679 445.415 120.832 445.565 121.017C445.719 121.199 445.836 121.378 445.919 121.554H445.987V120.455H447.79V127.064C447.79 127.621 447.653 128.087 447.381 128.462C447.108 128.837 446.73 129.118 446.247 129.305C445.767 129.496 445.214 129.591 444.589 129.591ZM444.628 125.543C444.92 125.543 445.167 125.47 445.369 125.325C445.574 125.178 445.73 124.967 445.838 124.695C445.949 124.419 446.004 124.089 446.004 123.706C446.004 123.322 445.95 122.99 445.842 122.709C445.734 122.425 445.578 122.205 445.373 122.048C445.169 121.892 444.92 121.814 444.628 121.814C444.329 121.814 444.078 121.895 443.873 122.057C443.669 122.216 443.514 122.437 443.409 122.722C443.304 123.006 443.251 123.334 443.251 123.706C443.251 124.084 443.304 124.411 443.409 124.686C443.517 124.959 443.672 125.17 443.873 125.321C444.078 125.469 444.329 125.543 444.628 125.543Z"
              fill="#1F2024"/>
    </g>
    <g filter="url(#filter5_b_51_424)">
        <rect x="360" y="154" width="59" height="39" rx="8" fill="#1F2024" fill-opacity="0.05"/>
        <rect x="360" y="154" width="59" height="39" rx="8" stroke="#1F2024" stroke-width="1.5" stroke-linecap="round"
              stroke-linejoin="round"/>
        <path d="M385.924 178.111C385.643 178.111 385.401 178.011 385.2 177.812C385.001 177.611 384.901 177.369 384.901 177.088C384.901 176.81 385.001 176.571 385.2 176.372C385.401 176.173 385.643 176.074 385.924 176.074C386.197 176.074 386.436 176.173 386.64 176.372C386.845 176.571 386.947 176.81 386.947 177.088C386.947 177.276 386.899 177.447 386.802 177.604C386.708 177.757 386.585 177.881 386.431 177.974C386.278 178.065 386.109 178.111 385.924 178.111ZM389.498 178.111C389.217 178.111 388.976 178.011 388.774 177.812C388.575 177.611 388.476 177.369 388.476 177.088C388.476 176.81 388.575 176.571 388.774 176.372C388.976 176.173 389.217 176.074 389.498 176.074C389.771 176.074 390.01 176.173 390.214 176.372C390.419 176.571 390.521 176.81 390.521 177.088C390.521 177.276 390.473 177.447 390.376 177.604C390.282 177.757 390.159 177.881 390.006 177.974C389.852 178.065 389.683 178.111 389.498 178.111ZM393.073 178.111C392.791 178.111 392.55 178.011 392.348 177.812C392.149 177.611 392.05 177.369 392.05 177.088C392.05 176.81 392.149 176.571 392.348 176.372C392.55 176.173 392.791 176.074 393.073 176.074C393.345 176.074 393.584 176.173 393.789 176.372C393.993 176.571 394.095 176.81 394.095 177.088C394.095 177.276 394.047 177.447 393.95 177.604C393.857 177.757 393.733 177.881 393.58 177.974C393.426 178.065 393.257 178.111 393.073 178.111Z"
              fill="#1F2024"/>
    </g>
    <path d="M119.323 96L157.5 96" stroke="#1F2024" stroke-width="1.5" stroke-linecap="round"/>
    <path d="M159.547 95.2803L154.516 92.1526C153.913 91.7778 153.136 92.1339 153.016 92.7806C152.995 92.8943 153.02 93.0102 153.059 93.119L154.098 96L153.059 98.8811C153.02 98.9899 152.995 99.1058 153.016 99.2195C153.134 99.8571 153.893 100.215 154.495 99.8598L159.527 96.8966C160.149 96.5306 160.16 95.6608 159.547 95.2803Z"
          fill="#1F2024"/>
    <path d="M114.5 96C114.5 94.6193 115.619 93.5 117 93.5C118.381 93.5 119.5 94.6193 119.5 96C119.5 97.3807 118.381 98.5 117 98.5C115.619 98.5 114.5 97.3807 114.5 96Z"
          fill="white" stroke="#1F2024" stroke-width="3"/>
    <path d="M283.969 90H303.844C312.681 90 319.844 82.8366 319.844 74V37C319.844 28.1634 327.008 21 335.844 21H355.72"
          stroke="#1F2024" stroke-width="1.5" stroke-linecap="round"/>
    <path d="M356.253 20.2803L351.221 17.1526C350.618 16.7778 349.841 17.1339 349.721 17.7806C349.7 17.8943 349.725 18.0102 349.765 18.119L350.803 21L349.765 23.8811C349.725 23.9899 349.7 24.1058 349.721 24.2195C349.839 24.8571 350.598 25.2148 351.201 24.8598L356.232 21.8966C356.854 21.5306 356.865 20.6608 356.253 20.2803Z"
          fill="#1F2024"/>
    <path d="M279.5 90C279.5 88.6193 280.619 87.5 282 87.5C283.381 87.5 284.5 88.6193 284.5 90C284.5 91.3807 283.381 92.5 282 92.5C280.619 92.5 279.5 91.3807 279.5 90Z"
          fill="white" stroke="#1F2024" stroke-width="3"/>
    <path d="M283.969 106H303.844C312.681 106 319.844 98.8366 319.844 90V88C319.844 79.1634 327.008 72 335.844 72H355.72"
          stroke="#1F2024" stroke-width="1.5" stroke-linecap="round"/>
    <path d="M356.253 71.2803L351.221 68.1526C350.618 67.7778 349.841 68.1339 349.721 68.7806C349.7 68.8943 349.725 69.0102 349.765 69.119L350.803 72L349.765 74.8811C349.725 74.9899 349.7 75.1058 349.721 75.2195C349.839 75.8571 350.598 76.2148 351.201 75.8598L356.232 72.8966C356.854 72.5306 356.865 71.6608 356.253 71.2803Z"
          fill="#1F2024"/>
    <path d="M279.5 106C279.5 104.619 280.619 103.5 282 103.5C283.381 103.5 284.5 104.619 284.5 106C284.5 107.381 283.381 108.5 282 108.5C280.619 108.5 279.5 107.381 279.5 106Z"
          fill="white" stroke="#1F2024" stroke-width="3"/>
    <path d="M283.969 139H303.844C312.681 139 319.844 146.163 319.844 155V157C319.844 165.837 327.008 173 335.844 173H355.72"
          stroke="#1F2024" stroke-width="1.5" stroke-linecap="round"/>
    <path d="M356.253 173.72L351.221 176.847C350.618 177.222 349.841 176.866 349.721 176.219C349.7 176.106 349.725 175.99 349.765 175.881L350.803 173L349.765 170.119C349.725 170.01 349.7 169.894 349.721 169.781C349.839 169.143 350.598 168.785 351.201 169.14L356.232 172.103C356.854 172.469 356.865 173.339 356.253 173.72Z"
          fill="#1F2024"/>
    <path d="M279.5 139C279.5 140.381 280.619 141.5 282 141.5C283.381 141.5 284.5 140.381 284.5 139C284.5 137.619 283.381 136.5 282 136.5C280.619 136.5 279.5 137.619 279.5 139Z"
          fill="white" stroke="#1F2024" stroke-width="3"/>
    <path d="M284.323 122L354.5 122" stroke="#1F2024" stroke-width="1.5" stroke-linecap="round"/>
    <path d="M356.547 121.28L351.516 118.153C350.913 117.778 350.136 118.134 350.016 118.781C349.995 118.894 350.02 119.01 350.059 119.119L351.098 122L350.059 124.881C350.02 124.99 349.995 125.106 350.016 125.219C350.134 125.857 350.893 126.215 351.495 125.86L356.527 122.897C357.149 122.531 357.16 121.661 356.547 121.28Z"
          fill="#1F2024"/>
    <path d="M279.5 122C279.5 120.619 280.619 119.5 282 119.5C283.381 119.5 284.5 120.619 284.5 122C284.5 123.381 283.381 124.5 282 124.5C280.619 124.5 279.5 123.381 279.5 122Z"
          fill="white" stroke="#1F2024" stroke-width="3"/>
    <defs>
        <filter id="filter0_b_51_424" x="153.25" y="-5.75" width="164.5" height="188.5" filterUnits="userSpaceOnUse"
                color-interpolation-filters="sRGB">
            <feFlood flood-opacity="0" result="BackgroundImageFix"/>
            <feGaussianBlur in="BackgroundImageFix" stdDeviation="7.5"/>
            <feComposite in2="SourceAlpha" operator="in" result="effect1_backgroundBlur_51_424"/>
            <feBlend mode="normal" in="SourceGraphic" in2="effect1_backgroundBlur_51_424" result="shape"/>
        </filter>
        <filter id="filter1_b_51_424" x="195.25" y="62.25" width="102.5" height="102.5" filterUnits="userSpaceOnUse"
                color-interpolation-filters="sRGB">
            <feFlood flood-opacity="0" result="BackgroundImageFix"/>
            <feGaussianBlur in="BackgroundImageFix" stdDeviation="7.5"/>
            <feComposite in2="SourceAlpha" operator="in" result="effect1_backgroundBlur_51_424"/>
            <feBlend mode="normal" in="SourceGraphic" in2="effect1_backgroundBlur_51_424" result="shape"/>
        </filter>
        <filter id="filter2_b_51_424" x="344.25" y="-14.75" width="102.5" height="70.5" filterUnits="userSpaceOnUse"
                color-interpolation-filters="sRGB">
            <feFlood flood-opacity="0" result="BackgroundImageFix"/>
            <feGaussianBlur in="BackgroundImageFix" stdDeviation="7.5"/>
            <feComposite in2="SourceAlpha" operator="in" result="effect1_backgroundBlur_51_424"/>
            <feBlend mode="normal" in="SourceGraphic" in2="effect1_backgroundBlur_51_424" result="shape"/>
        </filter>
        <filter id="filter3_b_51_424" x="344.25" y="36.25" width="138.5" height="70.5" filterUnits="userSpaceOnUse"
                color-interpolation-filters="sRGB">
            <feFlood flood-opacity="0" result="BackgroundImageFix"/>
            <feGaussianBlur in="BackgroundImageFix" stdDeviation="7.5"/>
            <feComposite in2="SourceAlpha" operator="in" result="effect1_backgroundBlur_51_424"/>
            <feBlend mode="normal" in="SourceGraphic" in2="effect1_backgroundBlur_51_424" result="shape"/>
        </filter>
        <filter id="filter4_b_51_424" x="344.25" y="87.25" width="144.5" height="70.5" filterUnits="userSpaceOnUse"
                color-interpolation-filters="sRGB">
            <feFlood flood-opacity="0" result="BackgroundImageFix"/>
            <feGaussianBlur in="BackgroundImageFix" stdDeviation="7.5"/>
            <feComposite in2="SourceAlpha" operator="in" result="effect1_backgroundBlur_51_424"/>
            <feBlend mode="normal" in="SourceGraphic" in2="effect1_backgroundBlur_51_424" result="shape"/>
        </filter>
        <filter id="filter5_b_51_424" x="344.25" y="138.25" width="90.5" height="70.5" filterUnits="userSpaceOnUse"
                color-interpolation-filters="sRGB">
            <feFlood flood-opacity="0" result="BackgroundImageFix"/>
            <feGaussianBlur in="BackgroundImageFix" stdDeviation="7.5"/>
            <feComposite in2="SourceAlpha" operator="in" result="effect1_backgroundBlur_51_424"/>
            <feBlend mode="normal" in="SourceGraphic" in2="effect1_backgroundBlur_51_424" result="shape"/>
        </filter>
    </defs>
</svg>
