<svg version="1.1" xmlns="http://www.w3.org/2000/svg" xmlns:xlink="http://www.w3.org/1999/xlink" width="773" height="356"><defs/><g><g><rect fill="#C0C0C0" stroke="none" x="327" y="375" width="300.79999999999995" height="15" transform="matrix(1 0 0 1 -310 -358)" fill-opacity="0.2"/></g><g><rect fill="#C0C0C0" stroke="none" x="327" y="389" width="752" height="178" transform="matrix(1 0 0 1 -310 -358)" fill-opacity="0.2"/></g><g><rect fill="#ffffff" stroke="none" x="320" y="383" width="752" height="177" transform="matrix(1 0 0 1 -310 -358)"/></g><g><path fill="none" stroke="#000000" paint-order="fill stroke markers" d=" M 10 25 L 762 25 L 762 202 L 10 202 L 10 25 Z Z" stroke-miterlimit="10" stroke-dasharray=""/></g><g><rect fill="#ffffff" stroke="none" x="320" y="368" width="300.79999999999995" height="15" transform="matrix(1 0 0 1 -310 -358)"/></g><g><path fill="none" stroke="#000000" paint-order="fill stroke markers" d=" M 10 10 L 310.79999999999995 10 L 310.79999999999995 25 L 10 25 L 10 10 Z Z" stroke-miterlimit="10" stroke-dasharray=""/></g><g><rect fill="#ffffff" stroke="none" x="320" y="382" width="752" height="178" transform="matrix(1 0 0 1 -310 -358)"/></g><g><path fill="none" stroke="#000000" paint-order="fill stroke markers" d=" M 10 24 L 762 24 L 762 202 L 10 202 L 10 24 Z Z" stroke-miterlimit="10" stroke-dasharray=""/></g><g><g><path fill="none" stroke="none"/><text fill="#000000" stroke="none" font-family="Lato" font-size="14px" font-style="normal" font-weight="bold" text-decoration="undefined" x="696.5" y="397" text-anchor="middle" dominant-baseline="central" transform="matrix(1 0 0 1 -310 -358)">harp</text></g></g><g><rect fill="#C0C0C0" stroke="none" x="327" y="583" width="300.79999999999995" height="15" transform="matrix(1 0 0 1 -310 -358)" fill-opacity="0.2"/></g><g><rect fill="#C0C0C0" stroke="none" x="327" y="597" width="752" height="114" transform="matrix(1 0 0 1 -310 -358)" fill-opacity="0.2"/></g><g><rect fill="#ffffff" stroke="none" x="320" y="591" width="752" height="113" transform="matrix(1 0 0 1 -310 -358)"/></g><g><path fill="none" stroke="#000000" paint-order="fill stroke markers" d=" M 10 233 L 762 233 L 762 346 L 10 346 L 10 233 Z Z" stroke-miterlimit="10" stroke-dasharray=""/></g><g><rect fill="#ffffff" stroke="none" x="320" y="576" width="300.79999999999995" height="15" transform="matrix(1 0 0 1 -310 -358)"/></g><g><path fill="none" stroke="#000000" paint-order="fill stroke markers" d=" M 10 218 L 310.79999999999995 218 L 310.79999999999995 233 L 10 233 L 10 218 Z Z" stroke-miterlimit="10" stroke-dasharray=""/></g><g><rect fill="#ffffff" stroke="none" x="320" y="590" width="752" height="114" transform="matrix(1 0 0 1 -310 -358)"/></g><g><path fill="none" stroke="#000000" paint-order="fill stroke markers" d=" M 10 232 L 762 232 L 762 346 L 10 346 L 10 232 Z Z" stroke-miterlimit="10" stroke-dasharray=""/></g><g><g><path fill="none" stroke="none"/><text fill="#000000" stroke="none" font-family="Lato" font-size="14px" font-style="normal" font-weight="bold" text-decoration="undefined" x="696.5" y="605" text-anchor="middle" dominant-baseline="central" transform="matrix(1 0 0 1 -310 -358)">harp_apps</text></g></g><g><rect fill="#C0C0C0" stroke="none" x="357" y="646.5" width="30.54118652343749" height="15" transform="matrix(1 0 0 1 -310 -358)" fill-opacity="0.2"/></g><g><rect fill="#C0C0C0" stroke="none" x="357" y="660.5" width="76.35296630859375" height="27" transform="matrix(1 0 0 1 -310 -358)" fill-opacity="0.2"/></g><g><rect fill="#ffffff" stroke="none" x="350" y="654.5" width="76.35296630859375" height="26" transform="matrix(1 0 0 1 -310 -358)"/></g><g><path fill="none" stroke="#000000" paint-order="fill stroke markers" d=" M 40 296.5 L 116.35296630859375 296.5 L 116.35296630859375 322.5 L 40 322.5 L 40 296.5 Z Z" stroke-miterlimit="10" stroke-dasharray=""/></g><g><rect fill="#ffffff" stroke="none" x="350" y="639.5" width="30.54118652343749" height="15" transform="matrix(1 0 0 1 -310 -358)"/></g><g><path fill="none" stroke="#000000" paint-order="fill stroke markers" d=" M 40 281.5 L 70.54118652343749 281.5 L 70.54118652343749 296.5 L 40 296.5 L 40 281.5 Z Z" stroke-miterlimit="10" stroke-dasharray=""/></g><g><rect fill="#ffffff" stroke="none" x="350" y="653.5" width="76.35296630859375" height="27" transform="matrix(1 0 0 1 -310 -358)"/></g><g><path fill="none" stroke="#000000" paint-order="fill stroke markers" d=" M 40 295.5 L 116.35296630859375 295.5 L 116.35296630859375 322.5 L 40 322.5 L 40 295.5 Z Z" stroke-miterlimit="10" stroke-dasharray=""/></g><g><g><path fill="none" stroke="none"/><text fill="#000000" stroke="none" font-family="Lato" font-size="14px" font-style="normal" font-weight="bold" text-decoration="undefined" x="388.6764831542969" y="668.5" text-anchor="middle" dominant-baseline="central" transform="matrix(1 0 0 1 -310 -358)">dashboard</text></g></g><g><rect fill="#C0C0C0" stroke="none" x="463.35296630859375" y="646.5" width="30.94157714843749" height="15" transform="matrix(1 0 0 1 -310 -358)" fill-opacity="0.2"/></g><g><rect fill="#C0C0C0" stroke="none" x="463.35296630859375" y="660.5" width="77.35394287109375" height="27" transform="matrix(1 0 0 1 -310 -358)" fill-opacity="0.2"/></g><g><rect fill="#ffffff" stroke="none" x="456.35296630859375" y="654.5" width="77.35394287109375" height="26" transform="matrix(1 0 0 1 -310 -358)"/></g><g><path fill="none" stroke="#000000" paint-order="fill stroke markers" d=" M 146.35296630859375 296.5 L 223.7069091796875 296.5 L 223.7069091796875 322.5 L 146.35296630859375 322.5 L 146.35296630859375 296.5 Z Z" stroke-miterlimit="10" stroke-dasharray=""/></g><g><rect fill="#ffffff" stroke="none" x="456.35296630859375" y="639.5" width="30.94157714843749" height="15" transform="matrix(1 0 0 1 -310 -358)"/></g><g><path fill="none" stroke="#000000" paint-order="fill stroke markers" d=" M 146.35296630859375 281.5 L 177.29454345703124 281.5 L 177.29454345703124 296.5 L 146.35296630859375 296.5 L 146.35296630859375 281.5 Z Z" stroke-miterlimit="10" stroke-dasharray=""/></g><g><rect fill="#ffffff" stroke="none" x="456.35296630859375" y="653.5" width="77.35394287109375" height="27" transform="matrix(1 0 0 1 -310 -358)"/></g><g><path fill="none" stroke="#000000" paint-order="fill stroke markers" d=" M 146.35296630859375 295.5 L 223.7069091796875 295.5 L 223.7069091796875 322.5 L 146.35296630859375 322.5 L 146.35296630859375 295.5 Z Z" stroke-miterlimit="10" stroke-dasharray=""/></g><g><g><path fill="none" stroke="none"/><text fill="#000000" stroke="none" font-family="Lato" font-size="14px" font-style="normal" font-weight="bold" text-decoration="undefined" x="495.5299377441406" y="668.5" text-anchor="middle" dominant-baseline="central" transform="matrix(1 0 0 1 -310 -358)">http_client</text></g></g><g><rect fill="#C0C0C0" stroke="none" x="570.7069091796875" y="646.5" width="28.121978759765625" height="15" transform="matrix(1 0 0 1 -310 -358)" fill-opacity="0.2"/></g><g><rect fill="#C0C0C0" stroke="none" x="570.7069091796875" y="660.5" width="70.30494689941406" height="27" transform="matrix(1 0 0 1 -310 -358)" fill-opacity="0.2"/></g><g><rect fill="#ffffff" stroke="none" x="563.7069091796875" y="654.5" width="70.30494689941406" height="26" transform="matrix(1 0 0 1 -310 -358)"/></g><g><path fill="none" stroke="#000000" paint-order="fill stroke markers" d=" M 253.7069091796875 296.5 L 324.01185607910156 296.5 L 324.01185607910156 322.5 L 253.7069091796875 322.5 L 253.7069091796875 296.5 Z Z" stroke-miterlimit="10" stroke-dasharray=""/></g><g><rect fill="#ffffff" stroke="none" x="563.7069091796875" y="639.5" width="28.121978759765625" height="15" transform="matrix(1 0 0 1 -310 -358)"/></g><g><path fill="none" stroke="#000000" paint-order="fill stroke markers" d=" M 253.7069091796875 281.5 L 281.8288879394531 281.5 L 281.8288879394531 296.5 L 253.7069091796875 296.5 L 253.7069091796875 281.5 Z Z" stroke-miterlimit="10" stroke-dasharray=""/></g><g><rect fill="#ffffff" stroke="none" x="563.7069091796875" y="653.5" width="70.30494689941406" height="27" transform="matrix(1 0 0 1 -310 -358)"/></g><g><path fill="none" stroke="#000000" paint-order="fill stroke markers" d=" M 253.7069091796875 295.5 L 324.01185607910156 295.5 L 324.01185607910156 322.5 L 253.7069091796875 322.5 L 253.7069091796875 295.5 Z Z" stroke-miterlimit="10" stroke-dasharray=""/></g><g><g><path fill="none" stroke="none"/><text fill="#000000" stroke="none" font-family="Lato" font-size="14px" font-style="normal" font-weight="bold" text-decoration="undefined" x="599.3593826293945" y="668.5" text-anchor="middle" dominant-baseline="central" transform="matrix(1 0 0 1 -310 -358)">janitor</text></g></g><g><rect fill="#C0C0C0" stroke="none" x="671.0118560791016" y="646.5" width="28.121978759765625" height="15" transform="matrix(1 0 0 1 -310 -358)" fill-opacity="0.2"/></g><g><rect fill="#C0C0C0" stroke="none" x="671.0118560791016" y="660.5" width="70.30494689941406" height="27" transform="matrix(1 0 0 1 -310 -358)" fill-opacity="0.2"/></g><g><rect fill="#ffffff" stroke="none" x="664.0118560791016" y="654.5" width="70.30494689941406" height="26" transform="matrix(1 0 0 1 -310 -358)"/></g><g><path fill="none" stroke="#000000" paint-order="fill stroke markers" d=" M 354.01185607910156 296.5 L 424.3168029785156 296.5 L 424.3168029785156 322.5 L 354.01185607910156 322.5 L 354.01185607910156 296.5 Z Z" stroke-miterlimit="10" stroke-dasharray=""/></g><g><rect fill="#ffffff" stroke="none" x="664.0118560791016" y="639.5" width="28.121978759765625" height="15" transform="matrix(1 0 0 1 -310 -358)"/></g><g><path fill="none" stroke="#000000" paint-order="fill stroke markers" d=" M 354.01185607910156 281.5 L 382.1338348388672 281.5 L 382.1338348388672 296.5 L 354.01185607910156 296.5 L 354.01185607910156 281.5 Z Z" stroke-miterlimit="10" stroke-dasharray=""/></g><g><rect fill="#ffffff" stroke="none" x="664.0118560791016" y="653.5" width="70.30494689941406" height="27" transform="matrix(1 0 0 1 -310 -358)"/></g><g><path fill="none" stroke="#000000" paint-order="fill stroke markers" d=" M 354.01185607910156 295.5 L 424.3168029785156 295.5 L 424.3168029785156 322.5 L 354.01185607910156 322.5 L 354.01185607910156 295.5 Z Z" stroke-miterlimit="10" stroke-dasharray=""/></g><g><g><path fill="none" stroke="none"/><text fill="#000000" stroke="none" font-family="Lato" font-size="14px" font-style="normal" font-weight="bold" text-decoration="undefined" x="699.6643295288086" y="668.5" text-anchor="middle" dominant-baseline="central" transform="matrix(1 0 0 1 -310 -358)">proxy</text></g></g><g><rect fill="#C0C0C0" stroke="none" x="771.3168029785156" y="646.5" width="28.121978759765625" height="15" transform="matrix(1 0 0 1 -310 -358)" fill-opacity="0.2"/></g><g><rect fill="#C0C0C0" stroke="none" x="771.3168029785156" y="660.5" width="70.30494689941406" height="27" transform="matrix(1 0 0 1 -310 -358)" fill-opacity="0.2"/></g><g><rect fill="#ffffff" stroke="none" x="764.3168029785156" y="654.5" width="70.30494689941406" height="26" transform="matrix(1 0 0 1 -310 -358)"/></g><g><path fill="none" stroke="#000000" paint-order="fill stroke markers" d=" M 454.3168029785156 296.5 L 524.6217498779297 296.5 L 524.6217498779297 322.5 L 454.3168029785156 322.5 L 454.3168029785156 296.5 Z Z" stroke-miterlimit="10" stroke-dasharray=""/></g><g><rect fill="#ffffff" stroke="none" x="764.3168029785156" y="639.5" width="28.121978759765625" height="15" transform="matrix(1 0 0 1 -310 -358)"/></g><g><path fill="none" stroke="#000000" paint-order="fill stroke markers" d=" M 454.3168029785156 281.5 L 482.43878173828125 281.5 L 482.43878173828125 296.5 L 454.3168029785156 296.5 L 454.3168029785156 281.5 Z Z" stroke-miterlimit="10" stroke-dasharray=""/></g><g><rect fill="#ffffff" stroke="none" x="764.3168029785156" y="653.5" width="70.30494689941406" height="27" transform="matrix(1 0 0 1 -310 -358)"/></g><g><path fill="none" stroke="#000000" paint-order="fill stroke markers" d=" M 454.3168029785156 295.5 L 524.6217498779297 295.5 L 524.6217498779297 322.5 L 454.3168029785156 322.5 L 454.3168029785156 295.5 Z Z" stroke-miterlimit="10" stroke-dasharray=""/></g><g><g><path fill="none" stroke="none"/><text fill="#000000" stroke="none" font-family="Lato" font-size="14px" font-style="normal" font-weight="bold" text-decoration="undefined" x="799.9692764282227" y="668.5" text-anchor="middle" dominant-baseline="central" transform="matrix(1 0 0 1 -310 -358)">rules</text></g></g><g><rect fill="#C0C0C0" stroke="none" x="871.6217498779297" y="646.5" width="28.121978759765625" height="15" transform="matrix(1 0 0 1 -310 -358)" fill-opacity="0.2"/></g><g><rect fill="#C0C0C0" stroke="none" x="871.6217498779297" y="660.5" width="70.30494689941406" height="27" transform="matrix(1 0 0 1 -310 -358)" fill-opacity="0.2"/></g><g><rect fill="#ffffff" stroke="none" x="864.6217498779297" y="654.5" width="70.30494689941406" height="26" transform="matrix(1 0 0 1 -310 -358)"/></g><g><path fill="none" stroke="#000000" paint-order="fill stroke markers" d=" M 554.6217498779297 296.5 L 624.9266967773438 296.5 L 624.9266967773438 322.5 L 554.6217498779297 322.5 L 554.6217498779297 296.5 Z Z" stroke-miterlimit="10" stroke-dasharray=""/></g><g><rect fill="#ffffff" stroke="none" x="864.6217498779297" y="639.5" width="28.121978759765625" height="15" transform="matrix(1 0 0 1 -310 -358)"/></g><g><path fill="none" stroke="#000000" paint-order="fill stroke markers" d=" M 554.6217498779297 281.5 L 582.7437286376953 281.5 L 582.7437286376953 296.5 L 554.6217498779297 296.5 L 554.6217498779297 281.5 Z Z" stroke-miterlimit="10" stroke-dasharray=""/></g><g><rect fill="#ffffff" stroke="none" x="864.6217498779297" y="653.5" width="70.30494689941406" height="27" transform="matrix(1 0 0 1 -310 -358)"/></g><g><path fill="none" stroke="#000000" paint-order="fill stroke markers" d=" M 554.6217498779297 295.5 L 624.9266967773438 295.5 L 624.9266967773438 322.5 L 554.6217498779297 322.5 L 554.6217498779297 295.5 Z Z" stroke-miterlimit="10" stroke-dasharray=""/></g><g><g><path fill="none" stroke="none"/><text fill="#000000" stroke="none" font-family="Lato" font-size="14px" font-style="normal" font-weight="bold" text-decoration="undefined" x="900.2742233276367" y="668.5" text-anchor="middle" dominant-baseline="central" transform="matrix(1 0 0 1 -310 -358)">storage</text></g></g><g><rect fill="#C0C0C0" stroke="none" x="971.9266967773438" y="646.5" width="28.821972656249955" height="15" transform="matrix(1 0 0 1 -310 -358)" fill-opacity="0.2"/></g><g><rect fill="#C0C0C0" stroke="none" x="971.9266967773438" y="660.5" width="72.054931640625" height="27" transform="matrix(1 0 0 1 -310 -358)" fill-opacity="0.2"/></g><g><rect fill="#ffffff" stroke="none" x="964.9266967773438" y="654.5" width="72.054931640625" height="26" transform="matrix(1 0 0 1 -310 -358)"/></g><g><path fill="none" stroke="#000000" paint-order="fill stroke markers" d=" M 654.9266967773438 296.5 L 726.9816284179688 296.5 L 726.9816284179688 322.5 L 654.9266967773438 322.5 L 654.9266967773438 296.5 Z Z" stroke-miterlimit="10" stroke-dasharray=""/></g><g><rect fill="#ffffff" stroke="none" x="964.9266967773438" y="639.5" width="28.821972656249955" height="15" transform="matrix(1 0 0 1 -310 -358)"/></g><g><path fill="none" stroke="#000000" paint-order="fill stroke markers" d=" M 654.9266967773438 281.5 L 683.7486694335937 281.5 L 683.7486694335937 296.5 L 654.9266967773438 296.5 L 654.9266967773438 281.5 Z Z" stroke-miterlimit="10" stroke-dasharray=""/></g><g><rect fill="#ffffff" stroke="none" x="964.9266967773438" y="653.5" width="72.054931640625" height="27" transform="matrix(1 0 0 1 -310 -358)"/></g><g><path fill="none" stroke="#000000" paint-order="fill stroke markers" d=" M 654.9266967773438 295.5 L 726.9816284179688 295.5 L 726.9816284179688 322.5 L 654.9266967773438 322.5 L 654.9266967773438 295.5 Z Z" stroke-miterlimit="10" stroke-dasharray=""/></g><g><g><path fill="none" stroke="none"/><text fill="#000000" stroke="none" font-family="Lato" font-size="14px" font-style="normal" font-weight="bold" text-decoration="undefined" x="1001.4541625976562" y="668.5" text-anchor="middle" dominant-baseline="central" transform="matrix(1 0 0 1 -310 -358)">telemetry</text></g></g><g><rect fill="#C0C0C0" stroke="none" x="351" y="439" width="28.121978759765625" height="15" transform="matrix(1 0 0 1 -310 -358)" fill-opacity="0.2"/></g><g><rect fill="#C0C0C0" stroke="none" x="351" y="453" width="70.30494689941406" height="27" transform="matrix(1 0 0 1 -310 -358)" fill-opacity="0.2"/></g><g><rect fill="#ffffff" stroke="none" x="344" y="447" width="70.30494689941406" height="26" transform="matrix(1 0 0 1 -310 -358)"/></g><g><path fill="none" stroke="#000000" paint-order="fill stroke markers" d=" M 34 89 L 104.30494689941406 89 L 104.30494689941406 115 L 34 115 L 34 89 Z Z" stroke-miterlimit="10" stroke-dasharray=""/></g><g><rect fill="#ffffff" stroke="none" x="344" y="432" width="28.121978759765625" height="15" transform="matrix(1 0 0 1 -310 -358)"/></g><g><path fill="none" stroke="#000000" paint-order="fill stroke markers" d=" M 34 74 L 62.121978759765625 74 L 62.121978759765625 89 L 34 89 L 34 74 Z Z" stroke-miterlimit="10" stroke-dasharray=""/></g><g><rect fill="#ffffff" stroke="none" x="344" y="446" width="70.30494689941406" height="27" transform="matrix(1 0 0 1 -310 -358)"/></g><g><path fill="none" stroke="#000000" paint-order="fill stroke markers" d=" M 34 88 L 104.30494689941406 88 L 104.30494689941406 115 L 34 115 L 34 88 Z Z" stroke-miterlimit="10" stroke-dasharray=""/></g><g><g><path fill="none" stroke="none"/><text fill="#000000" stroke="none" font-family="Lato" font-size="14px" font-style="normal" font-weight="bold" text-decoration="undefined" x="379.65247344970703" y="461" text-anchor="middle" dominant-baseline="central" transform="matrix(1 0 0 1 -310 -358)">asgi</text></g></g><g><rect fill="#C0C0C0" stroke="none" x="458" y="439" width="37.80437622070315" height="15" transform="matrix(1 0 0 1 -310 -358)" fill-opacity="0.2"/></g><g><rect fill="#C0C0C0" stroke="none" x="458" y="453" width="94.51094055175781" height="27" transform="matrix(1 0 0 1 -310 -358)" fill-opacity="0.2"/></g><g><rect fill="#ffffff" stroke="none" x="451" y="447" width="94.51094055175781" height="26" transform="matrix(1 0 0 1 -310 -358)"/></g><g><path fill="none" stroke="#000000" paint-order="fill stroke markers" d=" M 141 89 L 235.5109405517578 89 L 235.5109405517578 115 L 141 115 L 141 89 Z Z" stroke-miterlimit="10" stroke-dasharray=""/></g><g><rect fill="#ffffff" stroke="none" x="451" y="432" width="37.80437622070315" height="15" transform="matrix(1 0 0 1 -310 -358)"/></g><g><path fill="none" stroke="#000000" paint-order="fill stroke markers" d=" M 141 74 L 178.80437622070315 74 L 178.80437622070315 89 L 141 89 L 141 74 Z Z" stroke-miterlimit="10" stroke-dasharray=""/></g><g><rect fill="#ffffff" stroke="none" x="451" y="446" width="94.51094055175781" height="27" transform="matrix(1 0 0 1 -310 -358)"/></g><g><path fill="none" stroke="#000000" paint-order="fill stroke markers" d=" M 141 88 L 235.5109405517578 88 L 235.5109405517578 115 L 141 115 L 141 88 Z Z" stroke-miterlimit="10" stroke-dasharray=""/></g><g><g><path fill="none" stroke="none"/><text fill="#000000" stroke="none" font-family="Lato" font-size="14px" font-style="normal" font-weight="bold" text-decoration="undefined" x="498.7554702758789" y="461" text-anchor="middle" dominant-baseline="central" transform="matrix(1 0 0 1 -310 -358)">commandline</text></g></g><g><rect fill="#C0C0C0" stroke="none" x="696" y="439" width="31.439978027343727" height="15" transform="matrix(1 0 0 1 -310 -358)" fill-opacity="0.2"/></g><g><rect fill="#C0C0C0" stroke="none" x="696" y="453" width="78.59994506835938" height="27" transform="matrix(1 0 0 1 -310 -358)" fill-opacity="0.2"/></g><g><rect fill="#ffffff" stroke="none" x="689" y="447" width="78.59994506835938" height="26" transform="matrix(1 0 0 1 -310 -358)"/></g><g><path fill="none" stroke="#000000" paint-order="fill stroke markers" d=" M 379 89 L 457.5999450683594 89 L 457.5999450683594 115 L 379 115 L 379 89 Z Z" stroke-miterlimit="10" stroke-dasharray=""/></g><g><rect fill="#ffffff" stroke="none" x="689" y="432" width="31.439978027343727" height="15" transform="matrix(1 0 0 1 -310 -358)"/></g><g><path fill="none" stroke="#000000" paint-order="fill stroke markers" d=" M 379 74 L 410.4399780273437 74 L 410.4399780273437 89 L 379 89 L 379 74 Z Z" stroke-miterlimit="10" stroke-dasharray=""/></g><g><rect fill="#ffffff" stroke="none" x="689" y="446" width="78.59994506835938" height="27" transform="matrix(1 0 0 1 -310 -358)"/></g><g><path fill="none" stroke="#000000" paint-order="fill stroke markers" d=" M 379 88 L 457.5999450683594 88 L 457.5999450683594 115 L 379 115 L 379 88 Z Z" stroke-miterlimit="10" stroke-dasharray=""/></g><g><g><path fill="none" stroke="none"/><text fill="#000000" stroke="none" font-family="Lato" font-size="14px" font-style="normal" font-weight="bold" text-decoration="undefined" x="728.7999725341797" y="461" text-anchor="middle" dominant-baseline="central" transform="matrix(1 0 0 1 -310 -358)">controllers</text></g></g><g><rect fill="#C0C0C0" stroke="none" x="351" y="503" width="28.121978759765625" height="15" transform="matrix(1 0 0 1 -310 -358)" fill-opacity="0.2"/></g><g><rect fill="#C0C0C0" stroke="none" x="351" y="517" width="70.30494689941406" height="27" transform="matrix(1 0 0 1 -310 -358)" fill-opacity="0.2"/></g><g><rect fill="#ffffff" stroke="none" x="344" y="511" width="70.30494689941406" height="26" transform="matrix(1 0 0 1 -310 -358)"/></g><g><path fill="none" stroke="#000000" paint-order="fill stroke markers" d=" M 34 153 L 104.30494689941406 153 L 104.30494689941406 179 L 34 179 L 34 153 Z Z" stroke-miterlimit="10" stroke-dasharray=""/></g><g><rect fill="#ffffff" stroke="none" x="344" y="496" width="28.121978759765625" height="15" transform="matrix(1 0 0 1 -310 -358)"/></g><g><path fill="none" stroke="#000000" paint-order="fill stroke markers" d=" M 34 138 L 62.121978759765625 138 L 62.121978759765625 153 L 34 153 L 34 138 Z Z" stroke-miterlimit="10" stroke-dasharray=""/></g><g><rect fill="#ffffff" stroke="none" x="344" y="510" width="70.30494689941406" height="27" transform="matrix(1 0 0 1 -310 -358)"/></g><g><path fill="none" stroke="#000000" paint-order="fill stroke markers" d=" M 34 152 L 104.30494689941406 152 L 104.30494689941406 179 L 34 179 L 34 152 Z Z" stroke-miterlimit="10" stroke-dasharray=""/></g><g><g><path fill="none" stroke="none"/><text fill="#000000" stroke="none" font-family="Lato" font-size="14px" font-style="normal" font-weight="bold" text-decoration="undefined" x="379.65247344970703" y="525" text-anchor="middle" dominant-baseline="central" transform="matrix(1 0 0 1 -310 -358)">http</text></g></g><g><rect fill="#C0C0C0" stroke="none" x="589" y="439" width="28.121978759765625" height="15" transform="matrix(1 0 0 1 -310 -358)" fill-opacity="0.2"/></g><g><rect fill="#C0C0C0" stroke="none" x="589" y="453" width="70.30494689941406" height="27" transform="matrix(1 0 0 1 -310 -358)" fill-opacity="0.2"/></g><g><rect fill="#ffffff" stroke="none" x="582" y="447" width="70.30494689941406" height="26" transform="matrix(1 0 0 1 -310 -358)"/></g><g><path fill="none" stroke="#000000" paint-order="fill stroke markers" d=" M 272 89 L 342.30494689941406 89 L 342.30494689941406 115 L 272 115 L 272 89 Z Z" stroke-miterlimit="10" stroke-dasharray=""/></g><g><rect fill="#ffffff" stroke="none" x="582" y="432" width="28.121978759765625" height="15" transform="matrix(1 0 0 1 -310 -358)"/></g><g><path fill="none" stroke="#000000" paint-order="fill stroke markers" d=" M 272 74 L 300.1219787597656 74 L 300.1219787597656 89 L 272 89 L 272 74 Z Z" stroke-miterlimit="10" stroke-dasharray=""/></g><g><rect fill="#ffffff" stroke="none" x="582" y="446" width="70.30494689941406" height="27" transform="matrix(1 0 0 1 -310 -358)"/></g><g><path fill="none" stroke="#000000" paint-order="fill stroke markers" d=" M 272 88 L 342.30494689941406 88 L 342.30494689941406 115 L 272 115 L 272 88 Z Z" stroke-miterlimit="10" stroke-dasharray=""/></g><g><g><path fill="none" stroke="none"/><text fill="#000000" stroke="none" font-family="Lato" font-size="14px" font-style="normal" font-weight="bold" text-decoration="undefined" x="617.652473449707" y="461" text-anchor="middle" dominant-baseline="central" transform="matrix(1 0 0 1 -310 -358)">config</text></g></g><g><rect fill="#C0C0C0" stroke="none" x="452" y="503" width="28.121978759765625" height="15" transform="matrix(1 0 0 1 -310 -358)" fill-opacity="0.2"/></g><g><rect fill="#C0C0C0" stroke="none" x="452" y="517" width="70.30494689941406" height="27" transform="matrix(1 0 0 1 -310 -358)" fill-opacity="0.2"/></g><g><rect fill="#ffffff" stroke="none" x="445" y="511" width="70.30494689941406" height="26" transform="matrix(1 0 0 1 -310 -358)"/></g><g><path fill="none" stroke="#000000" paint-order="fill stroke markers" d=" M 135 153 L 205.30494689941406 153 L 205.30494689941406 179 L 135 179 L 135 153 Z Z" stroke-miterlimit="10" stroke-dasharray=""/></g><g><rect fill="#ffffff" stroke="none" x="445" y="496" width="28.121978759765625" height="15" transform="matrix(1 0 0 1 -310 -358)"/></g><g><path fill="none" stroke="#000000" paint-order="fill stroke markers" d=" M 135 138 L 163.12197875976562 138 L 163.12197875976562 153 L 135 153 L 135 138 Z Z" stroke-miterlimit="10" stroke-dasharray=""/></g><g><rect fill="#ffffff" stroke="none" x="445" y="510" width="70.30494689941406" height="27" transform="matrix(1 0 0 1 -310 -358)"/></g><g><path fill="none" stroke="#000000" paint-order="fill stroke markers" d=" M 135 152 L 205.30494689941406 152 L 205.30494689941406 179 L 135 179 L 135 152 Z Z" stroke-miterlimit="10" stroke-dasharray=""/></g><g><g><path fill="none" stroke="none"/><text fill="#000000" stroke="none" font-family="Lato" font-size="14px" font-style="normal" font-weight="bold" text-decoration="undefined" x="480.65247344970703" y="525" text-anchor="middle" dominant-baseline="central" transform="matrix(1 0 0 1 -310 -358)">meta</text></g></g><g><rect fill="#C0C0C0" stroke="none" x="553" y="503" width="28.121978759765625" height="15" transform="matrix(1 0 0 1 -310 -358)" fill-opacity="0.2"/></g><g><rect fill="#C0C0C0" stroke="none" x="553" y="517" width="70.30494689941406" height="27" transform="matrix(1 0 0 1 -310 -358)" fill-opacity="0.2"/></g><g><rect fill="#ffffff" stroke="none" x="546" y="511" width="70.30494689941406" height="26" transform="matrix(1 0 0 1 -310 -358)"/></g><g><path fill="none" stroke="#000000" paint-order="fill stroke markers" d=" M 236 153 L 306.30494689941406 153 L 306.30494689941406 179 L 236 179 L 236 153 Z Z" stroke-miterlimit="10" stroke-dasharray=""/></g><g><rect fill="#ffffff" stroke="none" x="546" y="496" width="28.121978759765625" height="15" transform="matrix(1 0 0 1 -310 -358)"/></g><g><path fill="none" stroke="#000000" paint-order="fill stroke markers" d=" M 236 138 L 264.1219787597656 138 L 264.1219787597656 153 L 236 153 L 236 138 Z Z" stroke-miterlimit="10" stroke-dasharray=""/></g><g><rect fill="#ffffff" stroke="none" x="546" y="510" width="70.30494689941406" height="27" transform="matrix(1 0 0 1 -310 -358)"/></g><g><path fill="none" stroke="#000000" paint-order="fill stroke markers" d=" M 236 152 L 306.30494689941406 152 L 306.30494689941406 179 L 236 179 L 236 152 Z Z" stroke-miterlimit="10" stroke-dasharray=""/></g><g><g><path fill="none" stroke="none"/><text fill="#000000" stroke="none" font-family="Lato" font-size="14px" font-style="normal" font-weight="bold" text-decoration="undefined" x="581.652473449707" y="525" text-anchor="middle" dominant-baseline="central" transform="matrix(1 0 0 1 -310 -358)">models</text></g></g><g><rect fill="#C0C0C0" stroke="none" x="811" y="439" width="31.36997680664058" height="15" transform="matrix(1 0 0 1 -310 -358)" fill-opacity="0.2"/></g><g><rect fill="#C0C0C0" stroke="none" x="811" y="453" width="78.42494201660156" height="27" transform="matrix(1 0 0 1 -310 -358)" fill-opacity="0.2"/></g><g><rect fill="#ffffff" stroke="none" x="804" y="447" width="78.42494201660156" height="26" transform="matrix(1 0 0 1 -310 -358)"/></g><g><path fill="none" stroke="#000000" paint-order="fill stroke markers" d=" M 494 89 L 572.4249420166016 89 L 572.4249420166016 115 L 494 115 L 494 89 Z Z" stroke-miterlimit="10" stroke-dasharray=""/></g><g><rect fill="#ffffff" stroke="none" x="804" y="432" width="31.36997680664058" height="15" transform="matrix(1 0 0 1 -310 -358)"/></g><g><path fill="none" stroke="#000000" paint-order="fill stroke markers" d=" M 494 74 L 525.3699768066406 74 L 525.3699768066406 89 L 494 89 L 494 74 Z Z" stroke-miterlimit="10" stroke-dasharray=""/></g><g><rect fill="#ffffff" stroke="none" x="804" y="446" width="78.42494201660156" height="27" transform="matrix(1 0 0 1 -310 -358)"/></g><g><path fill="none" stroke="#000000" paint-order="fill stroke markers" d=" M 494 88 L 572.4249420166016 88 L 572.4249420166016 115 L 494 115 L 494 88 Z Z" stroke-miterlimit="10" stroke-dasharray=""/></g><g><g><path fill="none" stroke="none"/><text fill="#000000" stroke="none" font-family="Lato" font-size="14px" font-style="normal" font-weight="bold" text-decoration="undefined" x="843.7124710083008" y="461" text-anchor="middle" dominant-baseline="central" transform="matrix(1 0 0 1 -310 -358)">errors</text></g></g><g><rect fill="#C0C0C0" stroke="none" x="763" y="503" width="31.36997680664058" height="15" transform="matrix(1 0 0 1 -310 -358)" fill-opacity="0.2"/></g><g><rect fill="#C0C0C0" stroke="none" x="763" y="517" width="78.42494201660156" height="27" transform="matrix(1 0 0 1 -310 -358)" fill-opacity="0.2"/></g><g><rect fill="#ffffff" stroke="none" x="756" y="511" width="78.42494201660156" height="26" transform="matrix(1 0 0 1 -310 -358)"/></g><g><path fill="none" stroke="#000000" paint-order="fill stroke markers" d=" M 446 153 L 524.4249420166016 153 L 524.4249420166016 179 L 446 179 L 446 153 Z Z" stroke-miterlimit="10" stroke-dasharray=""/></g><g><rect fill="#ffffff" stroke="none" x="756" y="496" width="31.36997680664058" height="15" transform="matrix(1 0 0 1 -310 -358)"/></g><g><path fill="none" stroke="#000000" paint-order="fill stroke markers" d=" M 446 138 L 477.3699768066406 138 L 477.3699768066406 153 L 446 153 L 446 138 Z Z" stroke-miterlimit="10" stroke-dasharray=""/></g><g><rect fill="#ffffff" stroke="none" x="756" y="510" width="78.42494201660156" height="27" transform="matrix(1 0 0 1 -310 -358)"/></g><g><path fill="none" stroke="#000000" paint-order="fill stroke markers" d=" M 446 152 L 524.4249420166016 152 L 524.4249420166016 179 L 446 179 L 446 152 Z Z" stroke-miterlimit="10" stroke-dasharray=""/></g><g><g><path fill="none" stroke="none"/><text fill="#000000" stroke="none" font-family="Lato" font-size="14px" font-style="normal" font-weight="bold" text-decoration="undefined" x="795.7124710083008" y="525" text-anchor="middle" dominant-baseline="central" transform="matrix(1 0 0 1 -310 -358)">typing</text></g></g><g><rect fill="#C0C0C0" stroke="none" x="928" y="439" width="46.90435791015625" height="15" transform="matrix(1 0 0 1 -310 -358)" fill-opacity="0.2"/></g><g><rect fill="#C0C0C0" stroke="none" x="928" y="453" width="117.26089477539062" height="27" transform="matrix(1 0 0 1 -310 -358)" fill-opacity="0.2"/></g><g><rect fill="#ffffff" stroke="none" x="921" y="447" width="117.26089477539062" height="26" transform="matrix(1 0 0 1 -310 -358)"/></g><g><path fill="none" stroke="#000000" paint-order="fill stroke markers" d=" M 611 89 L 728.2608947753906 89 L 728.2608947753906 115 L 611 115 L 611 89 Z Z" stroke-miterlimit="10" stroke-dasharray=""/></g><g><rect fill="#ffffff" stroke="none" x="921" y="432" width="46.90435791015625" height="15" transform="matrix(1 0 0 1 -310 -358)"/></g><g><path fill="none" stroke="#000000" paint-order="fill stroke markers" d=" M 611 74 L 657.9043579101562 74 L 657.9043579101562 89 L 611 89 L 611 74 Z Z" stroke-miterlimit="10" stroke-dasharray=""/></g><g><rect fill="#ffffff" stroke="none" x="921" y="446" width="117.26089477539062" height="27" transform="matrix(1 0 0 1 -310 -358)"/></g><g><path fill="none" stroke="#000000" paint-order="fill stroke markers" d=" M 611 88 L 728.2608947753906 88 L 728.2608947753906 115 L 611 115 L 611 88 Z Z" stroke-miterlimit="10" stroke-dasharray=""/></g><g><g><path fill="none" stroke="none"/><text fill="#000000" stroke="none" font-family="Lato" font-size="14px" font-style="normal" font-weight="bold" text-decoration="undefined" x="980.1304473876953" y="461" text-anchor="middle" dominant-baseline="central" transform="matrix(1 0 0 1 -310 -358)">event_dispatcher</text></g></g><g><rect fill="#C0C0C0" stroke="none" x="654" y="503" width="31.36997680664058" height="15" transform="matrix(1 0 0 1 -310 -358)" fill-opacity="0.2"/></g><g><rect fill="#C0C0C0" stroke="none" x="654" y="517" width="78.42494201660156" height="27" transform="matrix(1 0 0 1 -310 -358)" fill-opacity="0.2"/></g><g><rect fill="#ffffff" stroke="none" x="647" y="511" width="78.42494201660156" height="26" transform="matrix(1 0 0 1 -310 -358)"/></g><g><path fill="none" stroke="#000000" paint-order="fill stroke markers" d=" M 337 153 L 415.42494201660156 153 L 415.42494201660156 179 L 337 179 L 337 153 Z Z" stroke-miterlimit="10" stroke-dasharray=""/></g><g><rect fill="#ffffff" stroke="none" x="647" y="496" width="31.36997680664058" height="15" transform="matrix(1 0 0 1 -310 -358)"/></g><g><path fill="none" stroke="#000000" paint-order="fill stroke markers" d=" M 337 138 L 368.3699768066406 138 L 368.3699768066406 153 L 337 153 L 337 138 Z Z" stroke-miterlimit="10" stroke-dasharray=""/></g><g><rect fill="#ffffff" stroke="none" x="647" y="510" width="78.42494201660156" height="27" transform="matrix(1 0 0 1 -310 -358)"/></g><g><path fill="none" stroke="#000000" paint-order="fill stroke markers" d=" M 337 152 L 415.42494201660156 152 L 415.42494201660156 179 L 337 179 L 337 152 Z Z" stroke-miterlimit="10" stroke-dasharray=""/></g><g><g><path fill="none" stroke="none"/><text fill="#000000" stroke="none" font-family="Lato" font-size="14px" font-style="normal" font-weight="bold" text-decoration="undefined" x="686.7124710083008" y="525" text-anchor="middle" dominant-baseline="central" transform="matrix(1 0 0 1 -310 -358)">settings</text></g></g><g><rect fill="#C0C0C0" stroke="none" x="872" y="503" width="28.121978759765625" height="15" transform="matrix(1 0 0 1 -310 -358)" fill-opacity="0.2"/></g><g><rect fill="#C0C0C0" stroke="none" x="872" y="517" width="70.30494689941406" height="27" transform="matrix(1 0 0 1 -310 -358)" fill-opacity="0.2"/></g><g><rect fill="#ffffff" stroke="none" x="865" y="511" width="70.30494689941406" height="26" transform="matrix(1 0 0 1 -310 -358)"/></g><g><path fill="none" stroke="#000000" paint-order="fill stroke markers" d=" M 555 153 L 625.3049468994141 153 L 625.3049468994141 179 L 555 179 L 555 153 Z Z" stroke-miterlimit="10" stroke-dasharray=""/></g><g><rect fill="#ffffff" stroke="none" x="865" y="496" width="28.121978759765625" height="15" transform="matrix(1 0 0 1 -310 -358)"/></g><g><path fill="none" stroke="#000000" paint-order="fill stroke markers" d=" M 555 138 L 583.1219787597656 138 L 583.1219787597656 153 L 555 153 L 555 138 Z Z" stroke-miterlimit="10" stroke-dasharray=""/></g><g><rect fill="#ffffff" stroke="none" x="865" y="510" width="70.30494689941406" height="27" transform="matrix(1 0 0 1 -310 -358)"/></g><g><path fill="none" stroke="#000000" paint-order="fill stroke markers" d=" M 555 152 L 625.3049468994141 152 L 625.3049468994141 179 L 555 179 L 555 152 Z Z" stroke-miterlimit="10" stroke-dasharray=""/></g><g><g><path fill="none" stroke="none"/><text fill="#000000" stroke="none" font-family="Lato" font-size="14px" font-style="normal" font-weight="bold" text-decoration="undefined" x="900.652473449707" y="525" text-anchor="middle" dominant-baseline="central" transform="matrix(1 0 0 1 -310 -358)">utils</text></g></g><g><rect fill="#C0C0C0" stroke="none" x="973" y="503" width="28.121978759765625" height="15" transform="matrix(1 0 0 1 -310 -358)" fill-opacity="0.2"/></g><g><rect fill="#C0C0C0" stroke="none" x="973" y="517" width="70.30494689941406" height="27" transform="matrix(1 0 0 1 -310 -358)" fill-opacity="0.2"/></g><g><rect fill="#ffffff" stroke="none" x="966" y="511" width="70.30494689941406" height="26" transform="matrix(1 0 0 1 -310 -358)"/></g><g><path fill="none" stroke="#000000" paint-order="fill stroke markers" d=" M 656 153 L 726.3049468994141 153 L 726.3049468994141 179 L 656 179 L 656 153 Z Z" stroke-miterlimit="10" stroke-dasharray=""/></g><g><rect fill="#ffffff" stroke="none" x="966" y="496" width="28.121978759765625" height="15" transform="matrix(1 0 0 1 -310 -358)"/></g><g><path fill="none" stroke="#000000" paint-order="fill stroke markers" d=" M 656 138 L 684.1219787597656 138 L 684.1219787597656 153 L 656 153 L 656 138 Z Z" stroke-miterlimit="10" stroke-dasharray=""/></g><g><rect fill="#ffffff" stroke="none" x="966" y="510" width="70.30494689941406" height="27" transform="matrix(1 0 0 1 -310 -358)"/></g><g><path fill="none" stroke="#000000" paint-order="fill stroke markers" d=" M 656 152 L 726.3049468994141 152 L 726.3049468994141 179 L 656 179 L 656 152 Z Z" stroke-miterlimit="10" stroke-dasharray=""/></g><g><g><path fill="none" stroke="none"/><text fill="#000000" stroke="none" font-family="Lato" font-size="14px" font-style="normal" font-weight="bold" text-decoration="undefined" x="1001.652473449707" y="525" text-anchor="middle" dominant-baseline="central" transform="matrix(1 0 0 1 -310 -358)">views</text></g></g></g></svg>
