<svg viewBox="0 0 16 16" fill="none" xmlns="http://www.w3.org/2000/svg">
    <circle cx="8" cy="8" r="8" transform="matrix(-1 0 0 1 16 0)" fill="#84CC16"/>
    <path fill-rule="evenodd" clip-rule="evenodd" d="M11.6915 6.11108C12.1829 6.11108 12.6539 6.30611 13.0011 6.65334C13.1979 6.85067 13.3461 7.08794 13.4375 7.34547H14.1609C14.5017 7.34547 14.7778 7.62209 14.7778 7.96295C14.7778 8.30381 14.5017 8.58043 14.1609 8.58043H13.4375C13.3461 8.83796 13.1979 9.07522 13.0011 9.27257C12.6539 9.6198 12.1829 9.81482 11.6915 9.81482C11.2002 9.81482 10.7292 9.6198 10.3819 9.27257C10.1852 9.07523 10.037 8.83796 9.94561 8.58043H6.03005C5.93862 8.83796 5.79047 9.07522 5.59371 9.27257C5.24648 9.6198 4.77543 9.81482 4.28411 9.81482C3.79279 9.81482 3.32173 9.6198 2.97451 9.27257C2.77776 9.07523 2.62961 8.83796 2.53817 8.58043H1.81479C1.47393 8.58043 1.19789 8.30381 1.19789 7.96295C1.19789 7.62209 1.47393 7.34547 1.81479 7.34547H2.53817C2.62961 7.08794 2.77776 6.85068 2.97451 6.65334C3.32174 6.30611 3.79279 6.11108 4.28411 6.11108C4.77543 6.11108 5.2465 6.30611 5.59371 6.65334C5.79047 6.85067 5.93862 7.08794 6.03005 7.34547H9.94561C10.037 7.08794 10.1852 6.85068 10.3819 6.65334C10.7292 6.30611 11.2002 6.11108 11.6915 6.11108ZM4.90162 7.96175V7.96291V7.96407C4.90104 8.12727 4.83623 8.2841 4.72048 8.39925C4.60474 8.51499 4.44792 8.58039 4.28414 8.58039C4.12036 8.58039 3.96353 8.515 3.8478 8.39925C3.73207 8.2835 3.66666 8.12669 3.66666 7.96291C3.66666 7.79913 3.73205 7.6423 3.8478 7.52657C3.96355 7.41084 4.12036 7.34543 4.28414 7.34543C4.44792 7.34543 4.60475 7.41082 4.72048 7.52657C4.83622 7.64173 4.90104 7.79855 4.90162 7.96175ZM12.1278 7.52657C12.0121 7.41082 11.8553 7.34542 11.6915 7.34542C11.5277 7.34542 11.3709 7.41082 11.2552 7.52657C11.1394 7.64231 11.074 7.79913 11.074 7.96291C11.074 8.12668 11.1394 8.28351 11.2552 8.39925C11.3709 8.51498 11.5277 8.58039 11.6915 8.58039C11.8553 8.58039 12.0121 8.51499 12.1278 8.39925C12.2436 8.2835 12.309 8.12668 12.309 7.96291C12.309 7.79913 12.2436 7.6423 12.1278 7.52657Z" fill="white"/>
</svg>
