<svg xmlns="http://www.w3.org/2000/svg" width="195" height="249">
    <g fill="#fff" fill-rule="nonzero">
        <path d="M181 179.8c0 10.2-7.1 18.6-16.5 20.9-1.8.3-3.6.3-5.1.5-27 3.3-50.6 14-71.5 32.3-3.3 3.1-6.1 6.1-8.9 9.7-.5.8-1.3 1.3-1.5 2-1.8 1.8-4.6 3.1-7.4 3.1-5.9 0-10.4-4.6-10.4-10.4 0-1 .3-2 .5-3.1.3-.3.3-.8.5-1 6.4-17 15.5-31.3 27.7-42.5 18.8-16.5 40.2-27 64.1-31.3 3.1-.5 6.1-1 9.2-1.3 10.7.8 19.3 9.9 19.3 21.1M170.1 108.3c-.3.3-.5.8-.8 1l-.3.3c-5.1 5.1-10.9 8.7-17 10.4-9.7 2.8-19.1 2.8-28.2.3-1.3-.3-2.3-.8-3.6-1-4.1-2.3-5.6-7.1-3.6-11.2 1.8-3.6 5.6-5.3 9.4-4.6.8.3 1.3.5 2 .8 10.2 3.3 20.6 3.6 31 .5 1.8-.5 3.3-1.3 4.8-1.8.3-.3.8-.3 1-.5 1-.3 2-.3 3.1.3 2.2.9 3.2 3.5 2.2 5.5m-11.5-87.5c-10.7-5.9-22.6-10.4-35.9-13.5-13.2-2.8-27.2-4.6-42-4.8-14.5-.3-29-.5-43-.5S11.5 1.2.8 0v33.8c2 37.1 13 65.1 32.8 83.7 20.9 18.3 45.3 28 73.3 29h4.6c24.7-.8 43.5-6.4 57-17 17.3-12 26-28.8 26-49.9-1.3-27-13.2-46.6-35.9-58.8"/>
    </g>
</svg>
