<?xml version="1.0" encoding="UTF-8"?>
<svg width="100pt" height="100pt" version="1.1" viewBox="0 0 100 100" xmlns="http://www.w3.org/2000/svg">
 <g>
  <path d="m6.457 23.125c3.125-5.832 7.918-7.918 14.168-6.668 7.707 4.168 10.418 9.582 8.332 16.875-0.625 4.375-2.707 8.543-4.168 12.707-2.293 6.043-5.207 13.543-3.957 20.207 2.5 12.5 12.918 17.5 25 18.75 10.207 1.043 26.043-4.375 29.375-15 2.293-7.293 2.293-14.375 0.83203-21.875-0.83203-4.793-2.918-9.375-4.168-13.957-1.043-3.543-1.043-7.082-0.20703-10.625 3.75-19.582 20.418-3.75 23.125 1.875 0.83203 1.457 2.918 0.20703 2.293-1.25-4.793-9.793-21.875-18.543-27.082-3.75-3.125 8.75-0.20703 16.457 2.5 24.793 2.707 8.332 2.918 18.125-1.043 26.25-3.75 7.707-15 10.418-22.707 11.043-7.5 0.625-15-1.875-20.832-6.875-7.707-6.457-4.793-17.707-2.082-25.625 2.5-7.5 8.543-17.918 5.832-26.043-3.9609-12.289-22.086-14.582-27.5-2.2891-0.625 1.6641 1.6641 2.9141 2.2891 1.457z"/>
  <path d="m95.832 24.582c-4.582 0.41797-11.457-6.457-16.25-3.125-4.168 2.918-2.293 7.293-0.625 11.457 4.168 11.043 9.375 19.793 8.957 32.082-0.625 18.957-16.668 30.418-34.375 31.043-12.918 0.41797-28.957-5.207-36.457-16.043-8.125-11.457-1.25-29.168 3.75-40 1.457-3.332 4.793-11.875 1.25-15.418-1.668-1.668-2.707-2.918-5.207-2.918-1.043 0-2.082 0.41797-3.125 0.83203-5.418 3.125 6.668 0.83203-8.957 2.082 1.668-0.20703 1.668-2.707 0-2.707-1.043 0-1.457 0.20703-1.875 1.25-0.20703 0.41797-0.20703 0.83203 0 1.25 1.668 2.5 7.082 5.625 10 2.707 2.5-3.543 5.207-1.668 7.707 5.418-0.625 4.168-2.918 8.125-4.793 11.668-2.082 4.168-3.957 8.543-4.168 13.125-0.625 9.168-0.625 18.125 4.793 25.832 5.207 7.5 15.207 10.832 23.543 13.332 20.207 5.832 40.832-2.082 48.543-21.875 3.75-9.582 2.082-20.418-1.043-29.793-1.875-5.418-5-10.207-7.082-15.625-4.168-10.832 11.457-2.918 12.293-2.5 0.83203 0.41797 2.082 0 3.125 0 1.6641 0.21875 1.6641-2.2812-0.003907-2.0742z"/>
  <path d="m36.668 7.5c-0.20703 25 0 50 0.625 75 0 1.668 2.707 1.668 2.707 0-0.625-25-0.83203-50-0.625-75 0-1.668-2.5-1.668-2.707 0z"/>
  <path d="m48.957 2.5c0.83203 26.25 1.875 52.5 2.707 78.75 0 1.668 2.707 1.668 2.707 0-0.83203-26.25-1.875-52.5-2.707-78.75-0.20703-1.668-2.707-1.668-2.707 0z"/>
  <path d="m60.625 8.332c-1.457 23.332-0.83203 46.668 1.457 69.793 0.20703 1.668 2.707 1.668 2.707 0-2.4961-23.125-2.9141-46.457-1.457-69.793 0-1.6641-2.5-1.6641-2.707 0z"/>
  <path d="m31.875 31.457c12.082 0 24.793 1.25 36.457-1.25 1.668-0.41797 1.043-2.918-0.625-2.5-11.457 2.5-24.168 1.25-35.832 1.25-1.668 0-1.668 2.5 0 2.5z"/>
 </g>
</svg>
