<svg version="1.1" xmlns="http://www.w3.org/2000/svg"
     width="837.0889434814453" height="444">
    <defs/>
    <g>
        <g>
            <rect fill="#C0C0C0" stroke="none" x="87" y="47" width="74.57192993164062" height="40"
                  transform="matrix(1 0 0 1 -70 -30)" fill-opacity="0.2"/>
        </g>
        <g>
            <rect fill="#ffffff" stroke="none" x="80" y="40" width="74.57192993164062" height="40"
                  transform="matrix(1 0 0 1 -70 -30)"/>
        </g>
        <g>
            <path fill="none" stroke="#000000" paint-order="fill stroke markers"
                  d=" M 10 10 L 84.57192993164062 10 L 84.57192993164062 50 L 10 50 L 10 10 Z Z" stroke-miterlimit="10"
                  stroke-dasharray=""/>
        </g>
        <g>
            <g>
                <path fill="none" stroke="none"/>
                <text fill="#000000" stroke="none" font-family="Lato" font-size="14px" font-style="normal"
                      font-weight="bold" text-decoration="undefined" x="117.78596496582031" y="54" text-anchor="middle"
                      dominant-baseline="central" transform="matrix(1 0 0 1 -70 -30)">User
                </text>
            </g>
        </g>
        <g>
            <path fill="none" stroke="#000000" paint-order="fill stroke markers" d=" M 47.5 51 L 47.5 434"
                  stroke-miterlimit="10" stroke-dasharray="3"/>
        </g>
        <g>
            <rect fill="#C0C0C0" stroke="none" x="215" y="47" width="124.929931640625" height="40"
                  transform="matrix(1 0 0 1 -70 -30)" fill-opacity="0.2"/>
        </g>
        <g>
            <rect fill="#ffffff" stroke="none" x="208" y="40" width="124.929931640625" height="40"
                  transform="matrix(1 0 0 1 -70 -30)"/>
        </g>
        <g>
            <path fill="none" stroke="#000000" paint-order="fill stroke markers"
                  d=" M 138 10 L 262.929931640625 10 L 262.929931640625 50 L 138 50 L 138 10 Z Z" stroke-miterlimit="10"
                  stroke-dasharray=""/>
        </g>
        <g>
            <g>
                <path fill="none" stroke="none"/>
                <text fill="#000000" stroke="none" font-family="Lato" font-size="14px" font-style="normal"
                      font-weight="bold" text-decoration="undefined" x="270.9649658203125" y="54" text-anchor="middle"
                      dominant-baseline="central" transform="matrix(1 0 0 1 -70 -30)">Proxy Controller
                </text>
            </g>
        </g>
        <g>
            <path fill="none" stroke="#000000" paint-order="fill stroke markers" d=" M 200.5 51 L 200.5 434"
                  stroke-miterlimit="10" stroke-dasharray="3"/>
        </g>
        <g>
            <rect fill="#C0C0C0" stroke="none" x="617" y="47" width="89.87394714355469" height="40"
                  transform="matrix(1 0 0 1 -70 -30)" fill-opacity="0.2"/>
        </g>
        <g>
            <rect fill="#ffffff" stroke="none" x="610" y="40" width="89.87394714355469" height="40"
                  transform="matrix(1 0 0 1 -70 -30)"/>
        </g>
        <g>
            <path fill="none" stroke="#000000" paint-order="fill stroke markers"
                  d=" M 540 10 L 629.8739471435547 10 L 629.8739471435547 50 L 540 50 L 540 10 Z Z"
                  stroke-miterlimit="10" stroke-dasharray=""/>
        </g>
        <g>
            <g>
                <path fill="none" stroke="none"/>
                <text fill="#000000" stroke="none" font-family="Lato" font-size="14px" font-style="normal"
                      font-weight="bold" text-decoration="undefined" x="655.4369735717773" y="54" text-anchor="middle"
                      dominant-baseline="central" transform="matrix(1 0 0 1 -70 -30)">Http Client
                </text>
            </g>
        </g>
        <g>
            <path fill="none" stroke="#000000" paint-order="fill stroke markers" d=" M 585.5 51 L 585.5 434"
                  stroke-miterlimit="10" stroke-dasharray="3"/>
        </g>
        <g>
            <rect fill="#C0C0C0" stroke="none" x="808" y="47" width="95.08894348144531" height="40"
                  transform="matrix(1 0 0 1 -70 -30)" fill-opacity="0.2"/>
        </g>
        <g>
            <rect fill="#ffffff" stroke="none" x="801" y="40" width="95.08894348144531" height="40"
                  transform="matrix(1 0 0 1 -70 -30)"/>
        </g>
        <g>
            <path fill="none" stroke="#000000" paint-order="fill stroke markers"
                  d=" M 731 10 L 826.0889434814453 10 L 826.0889434814453 50 L 731 50 L 731 10 Z Z"
                  stroke-miterlimit="10" stroke-dasharray=""/>
        </g>
        <g>
            <g>
                <path fill="none" stroke="none"/>
                <text fill="#000000" stroke="none" font-family="Lato" font-size="14px" font-style="normal"
                      font-weight="bold" text-decoration="undefined" x="849.0444717407227" y="54" text-anchor="middle"
                      dominant-baseline="central" transform="matrix(1 0 0 1 -70 -30)">Remote API
                </text>
            </g>
        </g>
        <g>
            <path fill="none" stroke="#000000" paint-order="fill stroke markers" d=" M 779.5 51 L 779.5 434"
                  stroke-miterlimit="10" stroke-dasharray="3"/>
        </g>
        <g>
            <rect fill="#C0C0C0" stroke="none" x="441" y="47" width="74.57192993164062" height="40"
                  transform="matrix(1 0 0 1 -70 -30)" fill-opacity="0.2"/>
        </g>
        <g>
            <rect fill="#ffffff" stroke="none" x="434" y="40" width="74.57192993164062" height="40"
                  transform="matrix(1 0 0 1 -70 -30)"/>
        </g>
        <g>
            <path fill="none" stroke="#000000" paint-order="fill stroke markers"
                  d=" M 364 10 L 438.5719299316406 10 L 438.5719299316406 50 L 364 50 L 364 10 Z Z"
                  stroke-miterlimit="10" stroke-dasharray=""/>
        </g>
        <g>
            <g>
                <path fill="none" stroke="none"/>
                <text fill="#000000" stroke="none" font-family="Lato" font-size="14px" font-style="normal"
                      font-weight="bold" text-decoration="undefined" x="471.7859649658203" y="54" text-anchor="middle"
                      dominant-baseline="central" transform="matrix(1 0 0 1 -70 -30)">Rules
                </text>
            </g>
        </g>
        <g>
            <path fill="none" stroke="#000000" paint-order="fill stroke markers" d=" M 401.5 51 L 401.5 434"
                  stroke-miterlimit="10" stroke-dasharray="3"/>
        </g>
        <g>
            <path fill="none" stroke="#000000" paint-order="fill stroke markers" d=" M 48 109 L 193 109"
                  stroke-miterlimit="10" stroke-dasharray=""/>
        </g>
        <g>
            <path fill="#000000" stroke="none" paint-order="stroke fill markers"
                  d=" M 182.83732514237585 113.209517756016 L 193 109 L 182.83732514237585 104.790482243984"/>
        </g>
        <g>
            <path fill="none" stroke="#000000" paint-order="fill stroke markers"
                  d=" M 182.83732514237585 113.209517756016 L 193 109 L 182.83732514237585 104.790482243984 L 182.83732514237585 113.209517756016"
                  stroke-miterlimit="10" stroke-dasharray=""/>
        </g>
        <g>
            <rect fill="#ffffff" stroke="none" x="144" y="120" width="92.93194580078125" height="14"
                  transform="matrix(1 0 0 1 -70 -30)"/>
        </g>
        <g>
            <g>
                <path fill="none" stroke="none"/>
                <text fill="#000000" stroke="none" font-family="Lato" font-size="14px" font-style="normal"
                      font-weight="normal" text-decoration="undefined" x="190.46597290039062" y="127"
                      text-anchor="middle" dominant-baseline="central" transform="matrix(1 0 0 1 -70 -30)">1 : http
                    request
                </text>
            </g>
        </g>
        <g>
            <rect fill="#ffffff" stroke="none" x="263" y="139" width="14" height="293"
                  transform="matrix(1 0 0 1 -70 -30)"/>
        </g>
        <g>
            <path fill="none" stroke="#000000" paint-order="fill stroke markers"
                  d=" M 193 109 L 207 109 L 207 402 L 193 402 L 193 109 Z Z" stroke-miterlimit="10"
                  stroke-dasharray=""/>
        </g>
        <g>
            <path fill="none" stroke="#000000" paint-order="fill stroke markers" d=" M 207 122 L 394 122"
                  stroke-miterlimit="10" stroke-dasharray=""/>
        </g>
        <g>
            <path fill="#000000" stroke="none" paint-order="stroke fill markers"
                  d=" M 383.83732514237585 126.209517756016 L 394 122 L 383.83732514237585 117.790482243984"/>
        </g>
        <g>
            <path fill="none" stroke="#000000" paint-order="fill stroke markers"
                  d=" M 383.83732514237585 126.209517756016 L 394 122 L 383.83732514237585 117.790482243984 L 383.83732514237585 126.209517756016"
                  stroke-miterlimit="10" stroke-dasharray=""/>
        </g>
        <g>
            <rect fill="#ffffff" stroke="none" x="328" y="135" width="85.35794067382812" height="14"
                  transform="matrix(1 0 0 1 -70 -30)"/>
        </g>
        <g>
            <g>
                <path fill="none" stroke="none"/>
                <a href="./on_request.html" style="text-decoration: none">
                    <text fill="#0055FF" stroke="none" font-family="Lato" font-size="14px" font-style="normal"
                          font-weight="bolder" text-decoration="undefined" x="370.67897033691406" y="142"
                          text-anchor="middle" dominant-baseline="central" transform="matrix(1 0 0 1 -70 -30)">2 :
                        on_request
                    </text>
                </a>
            </g>
        </g>
        <g>
            <rect fill="#ffffff" stroke="none" x="464" y="152" width="14" height="28"
                  transform="matrix(1 0 0 1 -70 -30)"/>
        </g>
        <g>
            <path fill="none" stroke="#000000" paint-order="fill stroke markers"
                  d=" M 394 122 L 408 122 L 408 150 L 394 150 L 394 122 Z Z" stroke-miterlimit="10"
                  stroke-dasharray=""/>
        </g>
        <g>
            <path fill="none" stroke="#000000" paint-order="fill stroke markers" d=" M 207 189 L 578 189"
                  stroke-miterlimit="10" stroke-dasharray=""/>
        </g>
        <g>
            <path fill="#000000" stroke="none" paint-order="stroke fill markers"
                  d=" M 567.8373251423759 193.209517756016 L 578 189 L 567.8373251423758 184.790482243984"/>
        </g>
        <g>
            <path fill="none" stroke="#000000" paint-order="fill stroke markers"
                  d=" M 567.8373251423759 193.209517756016 L 578 189 L 567.8373251423758 184.790482243984 L 567.8373251423759 193.209517756016"
                  stroke-miterlimit="10" stroke-dasharray=""/>
        </g>
        <g>
            <rect fill="#ffffff" stroke="none" x="415" y="202" width="95.9979248046875" height="14"
                  transform="matrix(1 0 0 1 -70 -30)"/>
        </g>
        <g>
            <g>
                <path fill="none" stroke="none"/>
                <text fill="#000000" stroke="none" font-family="Lato" font-size="14px" font-style="normal"
                      font-weight="normal" text-decoration="undefined" x="462.99896240234375" y="209"
                      text-anchor="middle" dominant-baseline="central" transform="matrix(1 0 0 1 -70 -30)">3 : request
                </text>
            </g>
        </g>
        <g>
            <rect fill="#ffffff" stroke="none" x="648" y="219" width="14" height="149"
                  transform="matrix(1 0 0 1 -70 -30)"/>
        </g>
        <g>
            <path fill="none" stroke="#000000" paint-order="fill stroke markers"
                  d=" M 578 189 L 592 189 L 592 338 L 578 338 L 578 189 Z Z" stroke-miterlimit="10"
                  stroke-dasharray=""/>
        </g>
        <g>
            <path fill="none" stroke="#000000" paint-order="fill stroke markers"
                  d=" M 592 194 L 622 194 L 622 214 L 599 214" stroke-miterlimit="10" stroke-dasharray=""/>
        </g>
        <g>
            <path fill="#000000" stroke="none" paint-order="stroke fill markers"
                  d=" M 609.1626748576241 209.790482243984 L 599 214 L 609.1626748576241 218.209517756016"/>
        </g>
        <g>
            <path fill="none" stroke="#000000" paint-order="fill stroke markers"
                  d=" M 609.1626748576241 209.790482243984 L 599 214 L 609.1626748576241 218.209517756016 L 609.1626748576241 209.790482243984"
                  stroke-miterlimit="10" stroke-dasharray=""/>
        </g>
        <g>
            <rect fill="#ffffff" stroke="none" x="657" y="224" width="89.5859375" height="14"
                  transform="matrix(1 0 0 1 -70 -30)"/>
        </g>
        <g>
            <g>
                <path fill="none" stroke="none"/>
                <text fill="#000000" stroke="none" font-family="Lato" font-size="14px" font-style="normal"
                      font-weight="normal" text-decoration="undefined" x="701.79296875" y="231" text-anchor="middle"
                      dominant-baseline="central" transform="matrix(1 0 0 1 -70 -30)">4 : notCached?
                </text>
            </g>
        </g>
        <g>
            <rect fill="#ffffff" stroke="none" x="655" y="244" width="14" height="68"
                  transform="matrix(1 0 0 1 -70 -30)"/>
        </g>
        <g>
            <path fill="none" stroke="#000000" paint-order="fill stroke markers"
                  d=" M 585 214 L 599 214 L 599 282 L 585 282 L 585 214 Z Z" stroke-miterlimit="10"
                  stroke-dasharray=""/>
        </g>
        <g>
            <path fill="none" stroke="#000000" paint-order="fill stroke markers" d=" M 585 227 L 408 227"
                  stroke-miterlimit="10" stroke-dasharray=""/>
        </g>
        <g>
            <path fill="#000000" stroke="none" paint-order="stroke fill markers"
                  d=" M 418.16267485762415 222.790482243984 L 408 227 L 418.16267485762415 231.209517756016"/>
        </g>
        <g>
            <path fill="none" stroke="#000000" paint-order="fill stroke markers"
                  d=" M 418.16267485762415 222.790482243984 L 408 227 L 418.16267485762415 231.209517756016 L 418.16267485762415 222.790482243984"
                  stroke-miterlimit="10" stroke-dasharray=""/>
        </g>
        <g>
            <rect fill="#ffffff" stroke="none" x="498" y="260" width="135.6879119873047" height="14"
                  transform="matrix(1 0 0 1 -70 -30)"/>
        </g>
        <g>
            <g>
                <path fill="none" stroke="none"/>
                <a href="./on_remote_request.html" style="text-decoration: none">
                    <text fill="#0055FF" stroke="none" font-family="Lato" font-size="14px" font-style="normal"
                          font-weight="bolder" text-decoration="undefined" x="565.8439559936523" y="267"
                          text-anchor="middle" dominant-baseline="central" transform="matrix(1 0 0 1 -70 -30)">5 :
                        on_remote_request
                    </text>
                </a>
            </g>
        </g>
        <g>
            <rect fill="#ffffff" stroke="none" x="464" y="257" width="14" height="28"
                  transform="matrix(1 0 0 1 -70 -30)"/>
        </g>
        <g>
            <path fill="none" stroke="#000000" paint-order="fill stroke markers"
                  d=" M 394 227 L 408 227 L 408 255 L 394 255 L 394 227 Z Z" stroke-miterlimit="10"
                  stroke-dasharray=""/>
        </g>
        <g>
            <path fill="none" stroke="#000000" paint-order="fill stroke markers" d=" M 599 242 L 772 242"
                  stroke-miterlimit="10" stroke-dasharray=""/>
        </g>
        <g>
            <path fill="#000000" stroke="none" paint-order="stroke fill markers"
                  d=" M 761.8373251423759 246.209517756016 L 772 242 L 761.8373251423758 237.790482243984"/>
        </g>
        <g>
            <path fill="none" stroke="#000000" paint-order="fill stroke markers"
                  d=" M 761.8373251423759 246.209517756016 L 772 242 L 761.8373251423758 237.790482243984 L 761.8373251423759 246.209517756016"
                  stroke-miterlimit="10" stroke-dasharray=""/>
        </g>
        <g>
            <rect fill="#ffffff" stroke="none" x="683" y="255" width="145.9219207763672" height="14"
                  transform="matrix(1 0 0 1 -70 -30)"/>
        </g>
        <g>
            <g>
                <path fill="none" stroke="none"/>
                <text fill="#000000" stroke="none" font-family="Lato" font-size="14px" font-style="normal"
                      font-weight="normal" text-decoration="undefined" x="755.9609603881836" y="262"
                      text-anchor="middle" dominant-baseline="central" transform="matrix(1 0 0 1 -70 -30)">6 : http
                    request(remote)
                </text>
            </g>
        </g>
        <g>
            <rect fill="#ffffff" stroke="none" x="842" y="272" width="14" height="28"
                  transform="matrix(1 0 0 1 -70 -30)"/>
        </g>
        <g>
            <path fill="none" stroke="#000000" paint-order="fill stroke markers"
                  d=" M 772 242 L 786 242 L 786 270 L 772 270 L 772 242 Z Z" stroke-miterlimit="10"
                  stroke-dasharray=""/>
        </g>
        <g>
            <path fill="none" stroke="#000000" paint-order="fill stroke markers" d=" M 772 266 L 599 266"
                  stroke-miterlimit="10" stroke-dasharray="3"/>
        </g>
        <g>
            <path fill="none" stroke="#000000" paint-order="fill stroke markers"
                  d=" M 609.1626748576241 261.790482243984 L 599 266 L 609.1626748576241 270.209517756016"
                  stroke-miterlimit="10" stroke-dasharray=""/>
        </g>
        <g>
            <rect fill="#ffffff" stroke="none" x="677" y="299" width="154.4619140625" height="14"
                  transform="matrix(1 0 0 1 -70 -30)"/>
        </g>
        <g>
            <g>
                <path fill="none" stroke="none"/>
                <text fill="#000000" stroke="none" font-family="Lato" font-size="14px" font-style="normal"
                      font-weight="normal" text-decoration="undefined" x="754.23095703125" y="306" text-anchor="middle"
                      dominant-baseline="central" transform="matrix(1 0 0 1 -70 -30)">7 : http response(remote)
                </text>
            </g>
        </g>
        <g>
            <path fill="none" stroke="#000000" paint-order="fill stroke markers" d=" M 585 274 L 408 274"
                  stroke-miterlimit="10" stroke-dasharray=""/>
        </g>
        <g>
            <path fill="#000000" stroke="none" paint-order="stroke fill markers"
                  d=" M 418.16267485762415 269.790482243984 L 408 274 L 418.16267485762415 278.209517756016"/>
        </g>
        <g>
            <path fill="none" stroke="#000000" paint-order="fill stroke markers"
                  d=" M 418.16267485762415 269.790482243984 L 408 274 L 418.16267485762415 278.209517756016 L 418.16267485762415 269.790482243984"
                  stroke-miterlimit="10" stroke-dasharray=""/>
        </g>
        <g>
            <rect fill="#ffffff" stroke="none" x="493" y="307" width="144.2279052734375" height="14"
                  transform="matrix(1 0 0 1 -70 -30)"/>
        </g>
        <g>
            <g>
                <path fill="none" stroke="none"/>
                <a href="./on_remote_response.html" style="text-decoration: none">
                    <text fill="#0055FF" stroke="none" font-family="Lato" font-size="14px" font-style="normal"
                          font-weight="bolder" text-decoration="undefined" x="565.1139526367188" y="314"
                          text-anchor="middle" dominant-baseline="central" transform="matrix(1 0 0 1 -70 -30)">8 :
                        on_remote_response
                    </text>
                </a>
            </g>
        </g>
        <g>
            <rect fill="#ffffff" stroke="none" x="464" y="304" width="14" height="28"
                  transform="matrix(1 0 0 1 -70 -30)"/>
        </g>
        <g>
            <path fill="none" stroke="#000000" paint-order="fill stroke markers"
                  d=" M 394 274 L 408 274 L 408 302 L 394 302 L 394 274 Z Z" stroke-miterlimit="10"
                  stroke-dasharray=""/>
        </g>
        <g>
            <path fill="none" stroke="#000000" paint-order="fill stroke markers" d=" M 578 330 L 207 330"
                  stroke-miterlimit="10" stroke-dasharray="3"/>
        </g>
        <g>
            <path fill="none" stroke="#000000" paint-order="fill stroke markers"
                  d=" M 217.16267485762415 325.790482243984 L 207 330 L 217.16267485762415 334.209517756016"
                  stroke-miterlimit="10" stroke-dasharray=""/>
        </g>
        <g>
            <rect fill="#ffffff" stroke="none" x="421" y="363" width="80.93394470214844" height="14"
                  transform="matrix(1 0 0 1 -70 -30)"/>
        </g>
        <g>
            <g>
                <path fill="none" stroke="none"/>
                <text fill="#000000" stroke="none" font-family="Lato" font-size="14px" font-style="normal"
                      font-weight="normal" text-decoration="undefined" x="461.4669723510742" y="370"
                      text-anchor="middle" dominant-baseline="central" transform="matrix(1 0 0 1 -70 -30)">9 : response
                </text>
            </g>
        </g>
        <g>
            <path fill="none" stroke="#000000" paint-order="fill stroke markers" d=" M 207 370 L 394 370"
                  stroke-miterlimit="10" stroke-dasharray=""/>
        </g>
        <g>
            <path fill="#000000" stroke="none" paint-order="stroke fill markers"
                  d=" M 383.83732514237585 374.209517756016 L 394 370 L 383.83732514237585 365.790482243984"/>
        </g>
        <g>
            <path fill="none" stroke="#000000" paint-order="fill stroke markers"
                  d=" M 383.83732514237585 374.209517756016 L 394 370 L 383.83732514237585 365.790482243984 L 383.83732514237585 374.209517756016"
                  stroke-miterlimit="10" stroke-dasharray=""/>
        </g>
        <g>
            <rect fill="#ffffff" stroke="none" x="319" y="383" width="102.01792907714844" height="14"
                  transform="matrix(1 0 0 1 -70 -30)"/>
        </g>
        <g>
            <g>
                <path fill="none" stroke="none"/>
                <a href="./on_response.html" style="text-decoration: none">
                    <text fill="#0055FF" stroke="none" font-family="Lato" font-size="14px" font-style="normal"
                          font-weight="bolder" text-decoration="undefined" x="370.0089645385742" y="390"
                          text-anchor="middle" dominant-baseline="central" transform="matrix(1 0 0 1 -70 -30)">10 :
                        on_response
                    </text>
                </a>
            </g>
        </g>
        <g>
            <rect fill="#ffffff" stroke="none" x="464" y="400" width="14" height="28"
                  transform="matrix(1 0 0 1 -70 -30)"/>
        </g>
        <g>
            <path fill="none" stroke="#000000" paint-order="fill stroke markers"
                  d=" M 394 370 L 408 370 L 408 398 L 394 398 L 394 370 Z Z" stroke-miterlimit="10"
                  stroke-dasharray=""/>
        </g>
        <g>
            <path fill="none" stroke="#000000" paint-order="fill stroke markers" d=" M 193 386 L 48 386"
                  stroke-miterlimit="10" stroke-dasharray="3"/>
        </g>
        <g>
            <path fill="none" stroke="#000000" paint-order="fill stroke markers"
                  d=" M 58.162674857624154 381.790482243984 L 48 386 L 58.162674857624154 390.209517756016"
                  stroke-miterlimit="10" stroke-dasharray=""/>
        </g>
        <g>
            <rect fill="#ffffff" stroke="none" x="135" y="419" width="109.59193420410156" height="14"
                  transform="matrix(1 0 0 1 -70 -30)"/>
        </g>
        <g>
            <g>
                <path fill="none" stroke="none"/>
                <text fill="#000000" stroke="none" font-family="Lato" font-size="14px" font-style="normal"
                      font-weight="normal" text-decoration="undefined" x="189.79596710205078" y="426"
                      text-anchor="middle" dominant-baseline="central" transform="matrix(1 0 0 1 -70 -30)">11 : http
                    response
                </text>
            </g>
        </g>
    </g>
</svg>
